<mxfile host="app.diagrams.net" modified="2022-07-29T20:31:14.556Z" agent="5.0 (Macintosh)" etag="lGQqME-WjMHM9Yy5T246" version="20.2.2" type="github">
  <diagram id="Q52-hBHFyBQSgCrMgtd5" name="Page-1">
    <mxGraphModel dx="3626" dy="1510" grid="1" gridSize="10" guides="1" tooltips="1" connect="1" arrows="1" fold="1" page="0" pageScale="1" pageWidth="850" pageHeight="1100" math="0" shadow="0">
      <root>
        <mxCell id="0" />
        <mxCell id="1" parent="0" />
        <mxCell id="N_zuauuihdi1zP-7BYdp-3" value="&lt;h1 style=&quot;font-size: 29px;&quot;&gt;Fluence Analytics Flow&lt;br&gt;&lt;/h1&gt;&lt;p&gt;Rough diagram of data flow from production sources to the analytical stack used by the masses&lt;br&gt;&lt;/p&gt;" style="text;html=1;strokeColor=none;fillColor=none;spacing=5;spacingTop=-20;whiteSpace=wrap;overflow=hidden;rounded=0;" vertex="1" parent="1">
          <mxGeometry x="40" y="-10" width="560" height="160" as="geometry" />
        </mxCell>
        <mxCell id="N_zuauuihdi1zP-7BYdp-11" value="" style="group" vertex="1" connectable="0" parent="1">
          <mxGeometry x="990" y="450" width="910" height="610" as="geometry" />
        </mxCell>
        <mxCell id="N_zuauuihdi1zP-7BYdp-43" value="" style="edgeStyle=orthogonalEdgeStyle;rounded=0;orthogonalLoop=1;jettySize=auto;html=1;fontSize=26;" edge="1" parent="N_zuauuihdi1zP-7BYdp-11" source="N_zuauuihdi1zP-7BYdp-1" target="N_zuauuihdi1zP-7BYdp-4">
          <mxGeometry relative="1" as="geometry" />
        </mxCell>
        <mxCell id="N_zuauuihdi1zP-7BYdp-1" value="&lt;div&gt;&lt;font style=&quot;font-size: 28px;&quot;&gt;Snowflake&lt;/font&gt;&lt;/div&gt;&lt;div style=&quot;font-size: 16px;&quot;&gt;&lt;font style=&quot;font-size: 16px;&quot;&gt;~3TBs of data, opt-in&lt;/font&gt;&lt;/div&gt;&lt;div style=&quot;font-size: 16px;&quot;&gt;&lt;font style=&quot;font-size: 16px;&quot;&gt;set up to scale to 3TB per ISO&lt;/font&gt;&lt;/div&gt;&lt;div style=&quot;font-size: 16px;&quot;&gt;&lt;font style=&quot;font-size: 16px;&quot;&gt;&lt;br&gt;&lt;/font&gt;&lt;/div&gt;&lt;div style=&quot;font-size: 16px;&quot;&gt;&lt;font style=&quot;font-size: 16px;&quot;&gt;Also ran 2 apps as backend DB&lt;/font&gt;&lt;/div&gt;&lt;div style=&quot;font-size: 16px;&quot;&gt;&lt;font style=&quot;font-size: 16px;&quot;&gt;1. Project Valuation Webapp (20 year project valuations)&lt;br&gt;&lt;/font&gt;&lt;/div&gt;&lt;div style=&quot;font-size: 16px;&quot;&gt;&lt;font style=&quot;font-size: 16px;&quot;&gt;2. Battery Simulation (1-year market paper trading app)&lt;br&gt;&lt;/font&gt;&lt;/div&gt;" style="shape=cylinder3;whiteSpace=wrap;html=1;boundedLbl=1;backgroundOutline=1;size=15;" vertex="1" parent="N_zuauuihdi1zP-7BYdp-11">
          <mxGeometry y="135" width="408" height="470" as="geometry" />
        </mxCell>
        <mxCell id="N_zuauuihdi1zP-7BYdp-9" value="" style="shape=image;verticalLabelPosition=bottom;labelBackgroundColor=default;verticalAlign=top;aspect=fixed;imageAspect=0;image=data:image/png,iVBORw0KGgoAAAANSUhEUgAAA0wAAANfCAYAAADq312CAAAABGdBTUEAALGPC/xhBQAAACBjSFJNAAB6JgAAgIQAAPoAAACA6AAAdTAAAOpgAAA6mAAAF3CculE8AAAAYmVYSWZNTQAqAAAACAABh2kABAAAAAEAAAAaAAAAAAAEkoYABwAAABIAAABQoAEAAwAAAAEAAQAAoAIABAAAAAEAAANMoAMABAAAAAEAAANfAAAAAEFTQ0lJAAAAU2NyZWVuc2hvdP23EnEAAAIEaVRYdFhNTDpjb20uYWRvYmUueG1wAAAAAAA8eDp4bXBtZXRhIHhtbG5zOng9ImFkb2JlOm5zOm1ldGEvIiB4OnhtcHRrPSJYTVAgQ29yZSA2LjAuMCI+CiAgIDxyZGY6UkRGIHhtbG5zOnJkZj0iaHR0cDovL3d3dy53My5vcmcvMTk5OS8wMi8yMi1yZGYtc3ludGF4LW5zIyI+CiAgICAgIDxyZGY6RGVzY3JpcHRpb24gcmRmOmFib3V0PSIiCiAgICAgICAgICAgIHhtbG5zOmV4aWY9Imh0dHA6Ly9ucy5hZG9iZS5jb20vZXhpZi8xLjAvIj4KICAgICAgICAgPGV4aWY6VXNlckNvbW1lbnQ+U2NyZWVuc2hvdDwvZXhpZjpVc2VyQ29tbWVudD4KICAgICAgICAgPGV4aWY6UGl4ZWxZRGltZW5zaW9uPjg2MzwvZXhpZjpQaXhlbFlEaW1lbnNpb24+CiAgICAgICAgIDxleGlmOlBpeGVsWERpbWVuc2lvbj44NDQ8L2V4aWY6UGl4ZWxYRGltZW5zaW9uPgogICAgICAgICA8ZXhpZjpDb2xvclNwYWNlPjE8L2V4aWY6Q29sb3JTcGFjZT4KICAgICAgPC9yZGY6RGVzY3JpcHRpb24+CiAgIDwvcmRmOlJERj4KPC94OnhtcG1ldGE+Cq4aGJcAAEAASURBVHgB7L0HmGVXdee77r1VnXOO6pZaQhEFhJAQKCEJBAKRczLG2IPtsf3Gb8ae7817Y78Ze8Yz9vvssfHYBGOEwYgkQChLIBRQQjmnVqtzzrnq3vv+/9tqaKmrqivcc+4Jv/2pVVU3nLP3b+1zzl5rr1DZs2dPM2gQgAAEIAABCEAAAhCAAAQgcBiB6mGv8AIEIAABCEAAAhCAAAQgAAEItAigMDERIAABCEAAAhCAAAQgAAEI9EMAhakfMLwMAQhAAAIQgAAEIAABCEAAhYk5AAEIQAACEIAABCAAAQhAoB8CKEz9gOFlCEAAAhCAAAQgAAEIQAACKEzMAQhAAAIQgAAEIAABCEAAAv0QQGHqBwwvQwACEIAABCAAAQhAAAIQQGFiDkAAAhCAAAQgAAEIQAACEOiHAApTP2B4GQIQgAAEIAABCEAAAhCAAAoTcwACEIAABCAAAQhAAAIQgEA/BFCY+gHDyxCAAAQgAAEIQAACEIAABFCYmAMQgAAEIAABCEAAAhCAAAT6IYDC1A8YXoYABCAAAQhAAAIQgAAEIIDCxByAAAQgAAEIQAACEIAABCDQDwEUpn7A8DIEIAABCEAAAhCAAAQgAAEUJuYABCAAAQhAAAIQgAAEIACBfgigMPUDhpchAAEIQAACEIAABCAAAQigMDEHIAABCEAAAhCAAAQgAAEI9EMAhakfMLwMAQhAAAIQgAAEIAABCEAAhYk5AAEIQAACEIAABCAAAQhAoB8CKEz9gOFlCEAAAhCAAAQgAAEIQAACKEzMAQhAAAIQgAAEIAABCEAAAv0QQGHqBwwvQwACEIAABCAAAQhAAAIQQGFiDkAAAhCAAAQgAAEIQAACEOiHAApTP2B4GQIQgAAEIAABCEAAAhCAAAoTcwACEIAABCAAAQhAAAIQgEA/BFCY+gHDyxCAAAQgAAEIQAACEIAABFCYmAMQgAAEIAABCEAAAhCAAAT6IdDVz+u8DAEIQKAUBBrNiJ5mM/Y1KrFXf+xvROypN2P9/oitvXpT7emdB34eCmTx2EqMqUWMr1Vi7uhKjJX5abT+jdHf3ZVmjKlWQv/RINBxAp7jrbnd1BzX3G7Ncc3zNfuasUt/761HLNtz+Bw/YcKBCTylqxKzRkWM1dwe5TmuiT262tQ8Z453XLh0AAIQSIUAClMqmDkJBCCQJQJaI8amHilF+0KKUTNW7NU/LRhX7G1oERmxUa8NtU2U8mTF6ehxlZijn4vHVWO2Fpmz9PuM7gMLzaEek89DYLgErPRv6Tkwv9dJ+V+2u3Fgnu+NWKt5vkNK0lDbjFE2DkQsHFONhTIYLBxjRUr/9Np0zXHpUzQIQAAChSRQ2bOnD7NSIYfKoCAAgTITsJV9o5Skp3c14wX/0wLyRd3+rCDZ6t7uJqN8S1laIsXpmLHRUqBOGF+JBVpksrBsN22OZwKexiul/HuOP7erEculHC3VPF+vnaSXN0vbCsq7qVagjpby5Hm+RPPbc9wGAnZX24qag0EAAh0mgMLUYQFweghAIHkCT8ml7ieb6q2F5GotKDdoBymJBWR/I/HicYr28+dLWVos3723zazGKROqLfem/r7D6xAYLIFdmsxWkm7a2JBrXSNWaY5v7Y2wkSCtZgPBTO02zdMcP31iJc6dWosTX3bpS6sPnAcCEIBAUgRQmJIiy3EhAIGOEtin1eJjO5rxg3X1eFIKk92T/Fqnm3eXpsoC7xiod8+uxTmTKzHeq00aBIZIYLuUoru21OO6DY14SbulW7SDmsBm6RB7dSDWabIMBCdJYfrgnFqcPLEaTPEhY+QLEIBAhgigMGVIGHQFAhAYGQHrQ7asP7S9Ed9c3RveWcp6867T+7WofMv0akyTIsXCMusS62z/vDO6WYrRTzY14ntr663dpM726Mhn907Tx+Z1xVmTqzFBsX646x2ZGZ+AAASyRQCFKVvyoDcQgMAwCXgH6cmdjbhGO0q3b1EKsJy118qN6QrtOL1+UrXl2sSiMmcCTLi7NgbYlfQXMgb8SHPcu6d5a++cVYuLplVbO06TSDmVN/HRXwiUmgAKU6nFz+AhkH8Ctrjb5e6GDfW4U4rSJi0q87eUPCAHW9/PnlKNS2fW4my56o1Ga8r/BG3DCOxKeu+2ZtysOX7v1kbsHEaGuzZ0Y8SHsOOp45wuml6LyxTHd6wySpIAZcRYOQAEIJACARSmFCBzCghAIBkCXkj+cJ12ldY7hqORaiKHZEZ0wF1pjhaV58kS/5kFXYElPinS+Tiu45S+urI37tjciLUyBninKe/NtZycWe/tMgx8aK6sBDQIQAACGSeAwpRxAdE9CECgbwKun/TVlfW4VbEcO9NMedd3d9r+qneXTp9Uic8t7GoFz7f9BBww8wS8c/qlFb3x8HYXVi6ApvQq4hMUsHeJYvc+s6DW2nl61dv8CQEIQCAzBFCYMiMKOgIBCAyGgAty3if3pH9Y3tvKDDaY7+T5My4W+vF5dmGqtXabyKeXZ2keue9Wi7yrZBfTb6yuD6uI8pHPkp1P2Ov0NXLN+6wMA6/HDTU7gqEnEIDAKwigML0CB39AAAJZJuCF5DXr663sYGtVjLMszbFN71DA/EfkvjRnNCpTkeXuef2tNUoVrnme11il4cjH8/rDc6tx+ayuVia94RyD70AAAhBIigAKU1JkOS4EINBWAtukLF2pWA4rTGVaSB6E6HTjl8yoxqfnd8UixX/QikfAtZS+LBe8nyleqYBepkcUmA0DTrH/ifm1GE82iCPy4gMQgEB6BFCY0mPNmSAAgWEScMrwL2oheb3clPbnL2P4MEd9+Ne8hjxHWfQ+f1QtjhmnyHlaYQgs3d2I/728rkK0JZ7gkqYVJWfQ+3UlPJnaXRjxMhAIQCDnBHji5lyAdB8CRSfgQrRWlm7c2Ci1smQ5K3wr7lFaaS+sl2k3glYMApalZWrZlr3t0iS/dkOjdc372qdBAAIQyAIBdpiyIAX6AAEIHEbA6sAaxXPYRelmKUtWFmi/InDm5Gr8zqKuVsA85Zp+xSVPvznx3bO7m/GFl3rjgW0oS4fKzrupl8oF9TeVDGK24ptwQj2UDr9DAAJpE2CHKW3inA8CEBgUAbvhfX1VPW5BWeqTlxfY/6hMgSv2okn2CSgHLy5T7TDLEGXpcGHZQOJr3wkwnOyFBgEIQKCTBFCYOkmfc0MAAn0ScJzSt9cccMMrY/B7n1D6ePFeuXD9sxJhOCEGLV8ELLN/Uh0xy5DWNwFf+9fJPe9bq5ngfRPiVQhAIC0CKExpkeY8EIDAoAncusmpwxuxFz+8IzK7RYV7vaAsczKMI0LK2Acsq69J0XU2PNrABFyU+ru6F9yk3SYaBCAAgU4RQGHqFHnOCwEI9Engwe2NuFKueA7+ph2ZgDE51bozCNLyQcCycmFapvjg5OV7gXdSn9zJPWFwxPgUBCDQbgIoTO0myvEgAIFhEfBSyHVovqhsYf5JGzyBzYr3cqzH3UpJ7UQCtGwSsGwsI8uKDHBDk9Fyxeo53ms594ahgePTEIBAWwigMLUFIweBAARGSsCB3T9YV29lDRvpscr4fSuZ3xe/tcosSMsmAcvGMsIgMHT5WNl8TDtM12lnzm56NAhAAAJpEkBhSpM254IABPok4PXPfQp+/4nicYhb6hPRoF58aHszHNO0B1+vQfFK80OWiWVjGdGGR8D3BscyPSiGTPHhMeRbEIDA8AigMA2PG9+CAATaSGBzTzOuUla8DftZTI4E626tIr+3th4v7hnJUfhuEgSe3nVANpYRbfgEvEv3Hc3xLbpn0CAAAQikRQCFKS3SnAcCEOiXwNVaAHlBSRs5ASudX1GAPDRHzrJdR7AsnMgEg0B7iD6ixDBON06DAAQgkBYBFKa0SHMeCECgTwKrFMx9ldIGk6ygTzzDetGJBe7aTNa8YcFL4Eu3yhWPekvtA2sX3n+WArqOeL32QeVIEIDAgARQmAbEw5sQgECSBFyPxrshxC21n7IXlFuUPY/WWQKWAYVX2y8D3zO+rWyDeDi2ny1HhAAEDieAwnQ4E16BAARSIvDYjkb8YhvOY0ngdvrlWzeyy5QE26Ec0zIgFfZQiA3+s3doJ/UF0owPHhifhAAEhk0AhWnY6PgiBCAwEgLOGnajMl5tJXh7JBj7/e5u7d7dpcyDq3Fb6pdR0m+YvWVgWdDaT2C94vVuVNFmsoy3ny1HhAAEXkkAhemVPPgLAhBIicALuyOeUaIHFjvJAHdM2Au7m/HEDnbwkiF85KM+pOQEz+wkPu/IpIb3Cbv0PrBNjEkYMzyAfAsCEBg0ARSmQaPigxCAQLsI9Gihc/fWeizF9N4upH0eZ6Ms8Oa8mVimPvkk+aIz4t0jl7GtKshMS47AMiWN+YWUJgwvyTHmyBCAQAQKE7MAAhBIncCKvY14mOKTqXB/VDtML0oxZZ8pFdytk5j1MsXWPLET6klT9y7Tw9rJWy3FiQYBCEAgKQIoTEmR5bgQgECfBOwqtkyFVZ+TuxgteQJOveyF+z7SiSUP++UzmPWTYu4iq7TkCTwlt8eX9mAUSJ40Z4BAeQmgMJVX9owcAh0h4GQPjyo73k58aFLhbz3JsTS7GpVUzsdJosXaux60dAhsl9ujFVTfW2gQgAAEkiCAwpQEVY4JAQj0S2CbMl3fp8xhtPQIWGFaz25HasDN2sxp6RF4SC6+O8minx5wzgSBkhFAYSqZwBkuBDpNYJViDRzfQUuPgOM8bt/MajIt4reJtZnT0iPgXesV3FfSA86ZIFAyAihMJRM4w4VApwncrcxhtPQJPEx68dSg37MVg0BqsA85EW6Qh8DgVwhAoK0EUJjaipODQQACRyLAouZIhJJ5/3nVqtlF3FgycA85qtOIL1MCAlr6BDAKpM+cM0KgLARQmMoiacYJgQwQcHD2UtxmOiKJXQqIf5bMhImzf35XI1xnjJY+gaecDdJpOGkQgAAE2kwAhanNQDkcBCDQPwHXAyK2o38+Sb/ztHaZaMkScN0rWmcI7JZRYPnezpybs0IAAsUmgMJUbPkyOghkisBTLNg7Ko8nFBhPS5bAUhkFaJ0j8NA2+HeOPmeGQHEJoDAVV7aMDAKZI/AiLmEdlcmLcoekVE1yIvDu6VLmeHKAB3Hk1aTPHwQlPgIBCAyVAArTUInxeQhAYNgEliulOK1zBBxbs7kHGSQlgU1iux+8SeEd1HExygwKEx+CAASGSACFaYjA+DgEIDA8Ara+b2OxPjx4bfqW8W/padPBOMxhBDbtj+jFI+wwLmm+sJF7TJq4ORcESkMAhak0omagEOgsgbVylSHhQ2dlsF8ZxCwHWjIEvMPU04RvMnQHd1Tvom5gm29wsPgUBCAwaAIoTINGxQchAIGREOjVQpKl5EgIjvy7XstjgB85x/6OsFeLdbJa90cnndcdo7eDemPpwOYsECgRARSmEgmboUKgkwR21SskHOikAHRuryO3ojElJoV12r3raVYSOz4HhgAEIACBzhBAYeoMd84KgdIRsJuMXcJonSPQGxUUpgTx92h+E8KUIOBBHNo7TDtlnKFBAAIQaCcBFKZ20uRYEIAABCAAAQh0jIBjyLawi9ox/pwYAkUlgMJUVMkyLghAAAIQgEDJCDhOj1pjJRM6w4VACgRQmFKAzCkgAAEIQAACEIAABCAAgXwSQGHKp9zoNQQgAAEIQAACEIAABCCQAgEUphQgcwoIQAACEIAABCAAAQhAIJ8EUJjyKTd6DQEIQAACEIAABCAAAQikQACFKQXInAICEIAABCAAAQhAAAIQyCcBFKZ8yo1eQwACEIAABCAAAQhAAAIpEEBhSgEyp4AABCAAAQhAAAIQgAAE8kkAhSmfcqPXEIAABCAAAQhAAAIQgEAKBFCYUoDMKSAAAQhAAAIQgAAEIACBfBJAYcqn3Og1BCAAAQhAAAIQgAAEIJACARSmFCBzCghAAAIQgAAEIAABCEAgnwRQmPIpN3oNAQhAAAIQgAAEIAABCKRAAIUpBcicAgIQgAAEIAABCEAAAhDIJwEUpnzKjV5DAAIQgAAEIAABCEAAAikQQGFKATKngAAEIAABCEAAAhCAAATySQCFKZ9yo9cQgAAEIAABCEAAAhCAQAoEUJhSgMwpIAABCEAAAhCAAAQgAIF8EkBhyqfc6DUEIAABCEAAAhCAAAQgkAIBFKYUIHMKCEAAAhCAAAQgAAEIQCCfBFCY8ik3eg0BCEAAAhCAAAQgAAEIpEAAhSkFyJwCAhCAAAQgAAEIQAACEMgnARSmfMqNXkMAAhCAAAQgAAEIQAACKRBAYUoBMqeAAAQgAAEIQAACEIAABPJJAIUpn3Kj1xCAAAQgAAEIQAACEIBACgRQmFKAzCkgAAEIQAACEIAABCAAgXwSQGHKp9zoNQQgAAEIQAACEIAABCCQAgEUphQgcwoIQAACEIAABCAAAQhAIJ8EUJjyKTd6DQEIQAACEIAABCAAAQikQACFKQXInAICEIAABCAAAQhAAAIQyCcBFKZ8yo1eQwACEIAABCAAAQhAAAIpEEBhSgEyp4AABCAAAQhAAAIQgAAE8kkAhSmfcqPXEIAABCAAAQhAAAIQgEAKBFCYUoDMKSAAAQhAAAIQgAAEIACBfBJAYcqn3Og1BCAAAQhAAAIQgAAEIJACARSmFCBzCghAAAIQgAAEIAABCEAgnwRQmPIpN3oNAQhAAAIQgAAEIAABCKRAAIUpBcicAgIQgAAEIAABCEAAAhDIJwEUpnzKjV5DAAIQgAAEIAABCEAAAikQQGFKATKngAAEIAABCEAAAhCAAATySQCFKZ9yo9cQgAAEIAABCEAAAhCAQAoEUJhSgMwpIAABCEAAAhCAAAQgAIF8EkBhyqfc6DUEIAABCEAAAhCAAAQgkAIBFKYUIHMKCEAAAhCAAAQgAAEIQCCfBFCY8ik3eg0BCEAAAhCAAAQgAAEIpEAAhSkFyJwCAhCAAAQgAAEIQAACEMgnga58dpteF4VAoxmxx/87pI2vVQ75i18hAAEIQAACEIBAxK76K9cLo6uV6GLJwNRIgQAKUwqQy36K3brB7axHbOmJ2N7bjL36e3ejEvVmM3oaEav3vfIGuGjsgbtfV6US42vR+jdRM3XGqGqM055oN/uiZZ9SjB8CEIAABApIwGuCHa31QiN29FpBOvCvV+sFt5f2vHK9ML27EhO0PqhpvTCu2owxMrhOkgY1rTtisn5q2UCDQFsIoDC1BSMHeTUBK0HP72rGir3NWKPfN+9vxnr926ob4B4pTL4RSncasPlGN0EKk29+U3VTnD26HlP0+/wxlZg7uhInTqjq9QEPwZsQgAAEIAABCGSYgNcGz2m9sFLrhXVaL2zU3xtlYN3a02wZWW1w3S9FaqCmpUHYsDpWCtMU/Zw9qhIztU6YqZ8LtWY4dnwl5ulvGgSGSwCFabjk+N5hBHzTe2BbQ/+asXxvQze9iG1SjLyjdATd6LBj+QXfIDf7n26ay162Kmn3PcZLkZokBWqObn5HaTfq1InVOH3igRuj36dBAAIQgAAEIJBNAvbC36D1wi+2N+Kx7c14SYqS//Z6wQbVV3npD2oQNsDai2WL1gur9Y0nterwcsA7TpO10p0xKuKoMdU4c3JF/6oxS4oUDQJDIYDCNBRafPYVBHxT69E2+f1bG3HzpkY8sUPWIFmCfMPTf4k0n9Pb9Tt0glW6yT6yPeLmDfWYLAXqzEnVuHRGNV4rBcrWJpSnRETAQSEAAQhAAAJDIuBnt5Wax3Y04up1df1sKn75gEH1SN4mQzrRIR/2MsTrkT1aM6zdF/GUtqpu3yKXvVo9TpaR9YpZNdYLh/Di14EJoDANzId3X0XANyDvGG3Q7tGDsg59e039l7s/r/poKn/6Ruvt+p0tBaoe10p5WjKuEu+YWWtZkrwF7y16GgQgAAEIQAAC6RKwwmIXfXueXKfn8wu7kzOoHmlk6krs1KJhp3ay3KebNzbiBLnqvXt2LV6nXacZcvH3jhQrhiORLOf7KEzllPuwR/2M/Izv3tKIn2hH6UWZh4azdT7skw/ii74hPqs+PrurN5w84uLp1XjztFoco98J/hwEQD4CAQhAAAIQGCEBu9QvlSv9nZvrcavWC69O1jDCw7ft609rvfDCst44WnFOF0yvxZunVuI4+/3TIPAqAihMrwLCn30T2Czf4J9uqscNshBZaUpqC73vsw/vVd+g/2llPe6Wy+Cbp9biLVKeHPyJq97wePItCEAAAhCAwEAEbERdJmPqT6Uk/VzP3qd26oWMN2fme1Y7X0v39Mb926oytDbjIilPzrRHg8BBAihMB0nws08C3rGx69335Hr3kH46fihvzTfsl+TEfM/Welw2oxaXzazippc3IdJfCEAAAhDINAHXSPrx+nrcIle3pXsOxA9lusOv6pwNwQ9rnfPCrkYrNvv9c+Wqp9hovPpfBaqkf6IwlVTwRxq2bUJO/e3gzO+trbcy1WXN/e5IYzj0fdeCenyHXQTqcaesXr99VC0Wj+VGeCgjfocABCAAAQgMhYDXCgdd4f/upd6WS7zjlvx6XpsNw14nPClvmvfPqcV7FePklOXENuVVou3pNwpTezgW6ij2PV6mDHR//WJvy9pSlMH5Br5LJqS7tzRbGXreP7sab9WOk+s6Ed9UFCkzDghAAAIQSJqAn6dOALV8b8T1ctX/8fpG2DBZlGYDsetB/ePy3rhXytMfHN0Vi1krFEW8wxoHCtOwsBX3S84g8/OtzfjG6roKyUlzKmjzOL+uMd6vulFXyHp0ljLkuBguDQIQgAAEIACBgQnYbe0urRXsfpfFBFAD935o79pN78+e741Pzq/FuVMqMQ4fvaEBLMinUZgKIsh2DMPb0NduOJAq3NW2i95sQXpS8U0r9/bGqZNq8Z5Z1Zbi1E2CnKKLnvFBAAIQgMAwCDgB1H3acblGsUp+fu7Ls6/+EMb/vBTEf1jejM37a/F21W+aWBvCl/loIQigMBVCjCMfxHbFK31lZW/cutHxSiM/Xp6O4LE79emy3Y14k7LpvUeuek5JToMABCAAAQhAIMKu+o+o6OwPFNPsn2VbJ9iEvFqhCleu6o2t8lD5mBJCTOhinVCmawOFqUzS7mesTqn5N6pDcKvShvumWNa2UjfDq9f1xs9VCdyBnpep+C2BnmWdDYwbAhCAAAQcluRn47elKN2uNcJWGRgLFKo0ZAFbUfzWmkas2xfxx8d0BR4pQ0aY2y+gMOVWdO3p+Dbd/P63Mts4aJN2wIq2wgkvpEC65tTnF3XF8SpiN0Hb79RvYoZAAAIQgEAZCNh4uqmnGbdtbsSV8j7xWoF2gICTXXjN5GRRv6M1gtcHtOITQGEqvoz7HaFd0b6h7eWbVWCOdjgBVwD/z8/2xMXKpOeityeOr8QYgj0PB8UrEIAABCBQCAKt7HBSlJwZ7iYldHhM7ndl9jwZSKi3au00Z3S9lXZ8EqvpgVAV4j1EXAgxDn0QzhJ3vRI8XCcriUoT0fohYPeDH6oW1aM7mnHe1EpcrmBPsun1A4uXIQABCEAgtwSsGP1cipJjmV2wfkvJ4pmHKjivo76zpjfGaafpciWNInveUAnm6/MoTPmSV1t665ile7Y15YdbvgQPwwGoe2IrxfqqvZWW1e1TSi169pQatZuGA5PvQAACEIBA5ggs39OM78o4eKdc8Nar/lBJkt+NWA6OabpKa6k5oyPOVdIonFBGjDSzB0BhyqxokuvYi4rR+eeV9VhfgtTh7aToonxP7Iz4sxd64/RJjfjMgq5YMq4SJMppJ2WOBQEIQAACaRCwUmQvilu0o/QDKUurtSbA/W7o5NeI2xdXNGKxtpoWqrgtrZgEUJiKKdd+R7VL2yV//WJvLFUKbdrwCDj263ZZ4Z7Ysb9V9NbxTUePrZIUYng4+RYEIAABCKRMwDsjTg/+NSV0eFbxurThEzC9F7SmcrKo/3pcV4xlm2n4MDP8TRSmDAun3V1zKtCr1zfCVatpIyewSQ+cr2qn7i4pTx+d3xVnTKrErFFYl0ZOliNAAAIQgEASBBx344RGjmEueymRdvO9e4sL+jZaZUnQmdpNt/PHQ2HqvAxS68ED2xrxfdVSoLWXwLO7m/FXS3vkv1yNS5VRz4oTwZ/tZczRIAABCEBg+ARsMPVO0s1yv7tTC3u73xGnNHye/X3T9apOnFCN107EeNofo7y+jsKUV8kNsd/efv/R+npsUDAnrf0EdkoPdYrRx3c2lRCiGh9S4dtFY7lhtp80R4QABCAAgaEQcN2gb6yuq6ZSs1WEdh+a0lDwDemzjg3//tremD+mO6Z1D+mrfDjjBFCYMi6gdnTP98afqkL3fUoXaisTLRkCZrtaCTV+LMXUNSw+Oa8Wl82sRnelQnxTMsg5KgQgAAEI9EHAj3pnxHWacNdbfH53BIpSH6Da/JKz6t4j5mdsqcc7Z9Z49reZbycPh8LUSfopnNs3TfsrexHvXRBa8gT8kLLi9JdKrnHLpmp8dG4tTplYjYm62thzSp4/Z4AABCBQZgJ+1j+9sxHflXuYF+9kvkt3NmxTYqhrteY6Qa55xymTLs/9dPkndTYUpqTIZuS4zornInQvKM6Gli4B7zg5buy5XY24WLFNb1U2vZOlOJGGPF05cDYIQAACZSDgZ85zetbfqIL0dhHfiAt+x8T+lNzzb5dnz4LRNWKaOyaF9p4Yham9PDN3tGe0u3SjFCZvE9M6Q8BpyK+Wpe/xHc1464xmXDitKv9mbE6dkQZnhQAEIFA8Aqvk1XCbMrba/f5JLdZpnSXgNdePlTHvHBW5P2ViZ/vC2dtDAIWpPRwze5TvaaHuhA+0zhPwTpML3N2vXacrZtXijVMq1GvovFjoAQQgAIHcEnBCh59tOeB2bwOpvUpo2SCwXjt831qj2kwTyf6QDYmMrBcoTCPjl+lve0v4Lvkv07JDwDUwfrGt2bIAWmH61Hxn08NNLzsSoicQgAAEsk/AsbIv7WnEF5bX4wk963dLcSL5XfbkdodSuHstduIEvEqyJ52h9QiFaWi8cvNpZ8P5mjLj+KZKyxYBP9SsON28sRl3yDL4cWfTm1GNmSp6O6qarb7SGwhAAAIQyA4BP9uX72nGdSo86yKpVpRo2SXgNdiVWov96XHdPN+zK6ZB9QyFaVCY8vehxxQvgx9z9uVmd4qvrexVyvdKXC43vTdNrbVqN2CLyr7s6CEEIACBNAm8JEXJRWdvkLL0onaX2FFKk/7wz+W12FPKWnjaJCyiw6fY+W+iMHVeBm3vgS1QP1Pw53Z8mdvONokDWkxWcFfs6Y2HFN904fRaXKDEEDQIQAACEICAEwf9XIrSdcp+52cF9ZTyNSe26SH/U63JXF6khjU0X8I7pLcoTIfAKMqvy/aEMrJReyFv8tyqh+LNSgX7sB6ID2+vxodVv2nOaO6ueZMj/YUABCDQDgL2tntUz3Inb3p4e4METu2A2oFjuA7Wk9phcszZMeMwhnZABG05JQpTWzBm5yD2Zn5UN9aVe7PTJ3oyeAJ2sVinTHrfX1ePB7Y34/2zq3GRdpwm1IKK4YPHyCchAAEI5JaAFSXXUPraqnrcsbkeNqYRqpRbcbY6/qIM2Q8q4dPR4yhgn1dJojDlVXL99HuDbrKPyCK1i7trP4Ty8bIDRZ9XGvK/WNqIW7Tr9KE51ThD/s8TqHqbDwHSSwhAAAJDJGD3bD/D7X735RW9sU2KEq0YBJzu/Uk909/ScyBOuRijKtcoUJgKJu/VKl7nWgy04hB4QHFNz2g7/z2zFduk3aZjZaEaXcVVrzgSZiQQgECZCfiJ7XqJ926tx41K6PCwjJ5kuC3ejHB6cRcYntbN8zuP0kVhyqPU+umzN5VW6mK0hYpWLAI766ECeHVl02vERTNqcanSkM9VfBO33WLJmdFAAALlI+AkTbdtOnB/t/sdrZgEXLjecUwnycee5A/5kzEKU/5k1m+Pd2lR7Qw6DjCkFY+A3TWe3d2M1avrskQ24v1zanHxdAJIiydpRgQBCJSBgNOEX614VStMNnSSJrzYUvfazB5AF06PVlxysUdbvNGhMBVIpi5gR+2lAgm0n6G46O0jSgjxvJSne7dW44PKpnf02EoQ3tQPMF6GAAQgkBECVoq8i3TTxnr8UMrSau064H6XEeGk0I2H9ez2M3wCW0wp0G7vKVCY2suzo0ezD/QLu9le6qgQUjq5nS590/3x+nrcvaWu3aYuZdOrxoIxFbb6U5IBp4EABCAwFAJ+Rjs9+JUqVm5vAVr5CHiN5nkwZ3T5xp73EaMw5V2Ch/T/Id2IaeUjsEk333/SA/jebdW4TLFNTgwxhSu7fBOBEUMAApkk4BjUJ5XI4XoVnnUBU9zmMymm1Dr12I664ph4SKcGvE0nQmJtApmFw/iGTCsnAcc3PSKF+Vn5Rz+uTDyXaLfp9EkVsumVczowaghAIAMEnIjJMSs3y/3uTqUKd9A/cUoZEEyHu/D87g53gNMPiwAK07CwZfNLK/dls1/0Kj0Ce/SEvkFWzMelPL95arWVGGKOsunRIAABCEAgPQJ7dS/+uhL03L652cpeuw9NKT34GT/TCiX7oOWPAApT/mTWZ499L15K/FKfbMr2oq2ay3VD/s6+A1bNjygpxNvkqjdaQaaoTmWbDYwXAhBIi4Cfwz3NZty1pRnfXN2rmOIIFKW06OfnPE+pgK1VJp7H+ZGZe4rClC959dvbtUpJ6oUyDQIm4KlgP3mnrf2Lpb3ym6/GJ+fV4vgJ1Rhf40bNLIEABCDQTgIH45S+v7Ye96jYOHFK7aRbrGM5K+JWxR5P7S7WuIo+GhSmgkh44/6CDIRhJELABW+XKiuTY5su1L8Tx1ejmxJOibDmoBCAQHkI2FDp2NGbNjbilo294SQ8NAgcicBaxbNN7WaP6UicsvQ+ClOWpDGCvqzTxUeDwEAENmoX8tuyfj4o6+fFM2rxzlk1LFwDAeM9CEAAAgMQWLm32So6+9NNdWogDsCJtw4nsLnHazYUpsPJZPcVFKbsymZIPdvuNGk0CByBgH3sXf9jlYKRH1RWvffOrsUbp7DbdARsvA0BCEDglwSc0OE2JXO4RnXwfD/dzfP3l2z4ZXAENsiAScsXARSmfMmL3kKgLQR26QF//7ZmPLWz0VKYPjG/FovGVqMLg1db+HIQCECgeARacaHaVfrCS73xxI5m7JEFykYoGgSGSoCY86ES6/znUZg6LwN6AIGOEPCDfntvxI3yvb9fbnrvm9MVb59ZjZmjKihOHZEIJ4UABLJIwDtKK1S241rtKP14fSN2s9rNopjoEwQSJYDClCheDg6BfBDYrEDlL6/ojcd2VJWCvBZnyU1vOhl88iE8egkBCCRGYJkyjd6lorPXb2jEsj0NdpQSI82BIZBtAihM2ZYPvYNAqgScTe851Yg4a2u1lRTi1InEN6UqAE4GAQhkgoB33+/aUo/rpCg9Lvc76illQix0AgIdI4DC1DH0nBgC2SNgd3zvNt2yqdHK+vR67TT91sKumMSdInvCokcQgEDbCdjb7pEdjfjemnrrp++HNAhAAAIsg5gDEIDAYQS8aFih4OY16+rxkOKbPr2gK86dqqK3qt1UJTHEYbx4AQIQyDcB3/PWK3PZlavqccfmemzVDhMJHfItU3oPgXYSQGFqJ80OHovsZh2EX+BTO1uuffj/2ws9cebkarxfachfO6kaE2sFHjRDgwAESkOgpxGxQTVxfr65EV9Z2RvbpCjRIJA0gTEUjk8acduPj8LUdqSdOeDc0Zj9O0O+HGd1Ot27Ffj8rNKQu+jtO1T0dsnYStSYduWYAIwSAgUjIFtQy/34HsUpOVOo3fCsPNEgkAaBBWN4eKbBuZ3nQGFqJ80OHmsaGc06SL88p94kf/5vy7f/aSlOF02vxVumH0hDXh4CjBQCECgCgdu0o3Tbpnrcr0Q3dr+jQSBNAlO7UZjS5N2Oc6EwtYNiBo4xH2tFBqRQni48pqxRL+7ujfu2VeMK7Ta9UckhRuFiUJ4JwEghkFMCL8nF+PuKzfyZEttslCsecUo5FWTOuz0Hr6DcSRCFKXci67vDY+Ub5bo53gGgQSBpAnZn2VGPuFfWWStPb5pSid9Z1BWTFUzXjeKUNH6ODwEIDIGAlaLNUo7seneNis+u2dfE/W4I/PhoewkslIEbA2N7maZxNBSmNCindI7F46qxSRnNaBBIi4AXIjuVGeLGjc14YHtPvH9OLS6dUY1ZoypBIpK0pMB5IACB/gjYiPjw9kZ8XQkdnt1tUw8NAp0lcJTif2n5I4DClD+Z9dvjUyZU4oFt/b7NGxBIlMBGpeT9Jy1KHpCb3ttnVuOcKbWYSmxdosw5OAQg0DeBndoBf0KJHG7YUI+fKl7JiWtoEMgCgRPGozBlQQ5D7QMK01CJZfjzJ0phokGgkwScZeoX2uVcursRdymr3ge043TyhCpuep0UCueGQIkIuJ6SFSW7Ct+hDHhr5X5HnFKJJkAOhnq6SnPQ8kcAhSl/Muu3x4vGVsPZ8qhM3i8i3kiJgOfgTxRUvWxPxHlTG/FeKU40CEAAAkkTkK0mrtOu0h79ZFcpadocf6gEvEabRcKHoWLLxOdRmDIhhvZ0YqKCRo6XNd/1cmgQyAKBF7V6Wbk34ueak/bb7g3vghJHkAXZ0AcIFJGAd5goPltEyRZjTKdOrMYEChjmUpjsC+ZSbH13ely1GadIYarimdc3IF5NnYBVI1t5n1Ow9a3acXKCCBoEIAABCECgbAS8Nnud3PEm4HCRS9GjMOVSbH13eoysFicrjmkK+4Z9A+JVCEAAAhCAAAQg0AECXpvZ04LSGx2A34ZTojC1AWKWDuFiaMeNR6xZkgl9gQAEIAABCECg3AROlAfQfNVgouWTACvrfMqt315bYTpFPrIUResXEW9AAAIQgAAEIACB1Ah4TXaSFCbXKKTlkwAKUz7l1m+vfVGePrES88jC0i8j3oAABCAAAQhAAAJpEfDO0qlam+GOlxbx9p8Hhan9TDt+RNdjOl6F0UjE0nFR0AEIQAACEIAABEpMwGuxkxQq4Qx5tPwSQHr5lV2/PR+nq/Pi6dWYTPKHfhnxBgQgAAEIQAACEEiagNdiF8+ggHvSnJM+PgpT0oQ7dPwzlLryWJI/dIg+p4UABCAAAQhAAAIKk9B67IxJxC7lfS6gMOVdgv30f7yK2L5vNsn++8HDyxCAAAQgAAEIQCBxAh+b1xWjKZCZOOekT4DClDThDh7/3KnVOH9aLbBrdFAInBoCEIAABCAAgdIR8NrrfK3DTlBMOS3/BFCY8i/DfkegTab45PxazCSNZb+MeAMCEIAABCAAAQi0m8AsZSv+3FG1YHOp3WQ7czwUps5wT+2si8dGvHNWNcaQMi815pwIAhCAAAQgAIHyEvCa6z0Ki6DES3HmAApTcWTZ50jG66K9dEatlf+/zw/wIgQgAAEIQAACEIBA2wi45tKF06oxFmN125h2+kAoTJ2WQArnX6CCae+aVYs5FLNNgTangAAEIAABCECgrAS81vKay2svWnEIoDAVR5b9jsQGDgceujYTrnn9YuINCEAAAhCAAAQgMGwC9uq5XMqS11xsLg0bYya/iMKUSbG0v1PdkvSnF3TFuVOweLSfLkeEAAQgAAEIQKDsBN48tRKfnFcLr7loxSKASIslzwFHM0FlmX5nUVecNAGlaUBQvAkBCEAAAhCAAASGQMBrq3+7uDtGsbIeArX8fBSx5kdWbenpXPnWfv6orjhmHKJvC1AOAgEIQAACEIBAqQlYWbJBelp3qTEUevCsmgst3r4Hd+rEavz6glrMJyCxb0C8CgEIQAACEIAABAZBwGupT83vitdqbUUrLoGu4g6NkfVHwL615yvdZURXfHFFb6zY04xmfx/mdQhAAAIQgAAEIACBVxBwcMPCsZX4zYWKD1eShy6iHV7Bp2h/oDAVTaKDHI8v7Lcoa15XpSu+tKIeL+xuDPKbfAwCEIAABCAAAQiUm8BrxlfiM0qmdcAAXW4WZRg9ClMZpDzAGH2hj9Zm05dWNOPJnewzDYCKtyAAAQhAAAIQgEAreda/O7qbJFolmgsoTCUSdn9DPXtKNcbVuuPKVb1xz9ZG1NGb+kPF6xCAAAQgAAEIlJSAayu9We53n1DMEhmHyzUJUJjKJe9+R3uyMrz8rjK8zBhVj5s3NmI3WlO/rHgDAhCAAAQgAIFyEXBplneqKO0H5tZizigClsolfUf90yAgAlVd+0cpePH3FtXi9EnV+NLy3li7vxkNdpuYHxCAAAQgAAEIlJSA10dzVJLlc0rucOG0isIYUJbKOBVQmMoo9X7G7FvAWO03v21GJU4Y3x1fWF6Px7fXY2tvP1/gZQhAAAIQgAAEIFBAAtaLJmuV/DoZke2BM1tKE628BFCYyiv7AUe+SLtN//nYWty4oRJ3bmnE87ubsbmHHacBofEmBCAAAQhAAAK5JmBFaVp3JY5XFjzHK10yoxrjHbxEKzUBFKZSi3/gwfsG8e7ZtThHSSGe2tWMK1f2xnNSnGgQgAAEIAABCECgiAROlKL0kXld4Z/eVUJXKqKUhz4mFKahMyvVN3yjmKcq1vbfXTy2K769phGP7mjESyp2S4MABCAAAQhAAAJFIGDPmjfIQPxeGYqP0rqHUKUiSLV9Y0Bhah/LQh/JN44l46rxB4srcs2rxXfXOpvegfgmEkMUWvQMDgIQgAAEIFBIAl7bzJD73VvldmePmundEWPYUiqkrEc6KBSmkRIs2fedFGK+Umv+/uIu+fXW4lure+Oh7Q0pUSUDwXAhAAEIQAACEMgtgWlSjs6cfKCm0nHjiFHKrSBT6jgKU0qgi3ga1276v4/tjhu103STajc9vbMZu6jfVERRMyYIQAACEIBAIQg4PvuUiZW4ZHo1LpXhd1S1EMNiEAkTQGFKGHDRD+8bzeUza3HqxGorm96NUpyW7m5Qv6nogmd8EIAABCAAgRwRsPvdsYpTeoeKz56r7HfzFJtNnFKOBNjhrqIwdVgARTi9bzgOlpwt7emcKZW4Zn0lfriuEfsIbiqCeBkDBCAAAQhAINcEXGz23bOrccWsaiwYU2VXKdfS7EznUZg6w72QZ3Wg5BL5AX/+qEqcJ+vNN1bX4+EdzdgnNz1y6hVS5AwKAhCAAAQgkEkCNuaO0v9Ol/vdbyzs0vokwooTDQLDIYDCNBxqfGdAAr4hnTlZRd8mVONWxTddv6Eez+6O2Et804DceBMCEIAABCAAgZETcJzSa1RH6R3aUbpgWi0mKFkVDQIjIYDCNBJ6fHdAAr5BOU3n65SF5rr1dcU4NeMFxTfRIAABCEAAAhCAQBIEXALlYiV0uFipwheqnhINAu0ggMLUDoocY0ACvmH9+oKueP3khrLpVeJnm+uxvXfAr/AmBCAAAQhAAAIQGDQBpwk/T7tJzn7nRFTdZL8bNDs+eGQCKExHZsQn2kDANy7vNC0ZX403TavGVYpvenRHI/DSawNcDgEBCEAAAhAoKYHW+mJSNd6npA6nTqrFJK1s2Vcq6WRIcNgoTAnC5dCvJOAb2BTNuDdPqcaZCsL86eZGfHlFXUVvm9FLVohXwuIvCEAAAhCAAAT6JWBFaWqXEzrU4iLtKo1V/DQ5HfrFxRsjJIDCNEKAfH3oBHxDG6+b3DtVC+Es7Tr9i3ab7t7aiPX7UJyGTpNvQAACEIAABMpDQMuHmKUaShcoG++H59Vi1ij2k8oj/c6NFIWpc+w5swjM1k3vdxfV4s268d2gbHr3bWvElh7QQAACEIAABCAAgVcScJzSG6ceiFM6fVKFNOGvxMNfCRJAYUoQLoceHAGnIT9bBW+PUQ2nc7Y340fr6vH4zkb0kFBvcAD5FAQgAAEIQKDABOx+d4pKlXxwbi1OU0KHqVKcaBBIkwAKU5q0OdeABGZqW/3S6ZU4QbUTfqb4pqulOK2Tmx4NAhCAAAQgAIFyEligTLsuUWJPlEVjcb8r5yzo/KhRmDovA3pwCAHHN/mG+FFZkd40tRLfXduI25WGfKvc9FCdDgHFrxCAAAQgAIGCErBa5F2kS2bU4goVn104hjThBRV1boaFwpQbUZWro95+d/G5PzqmGm+fWY0vLq/H8yp6S/2mcs0DRgsBCEAAAuUi4Gy6LkHyOWW/cz0lGgSyQACFKQtSoA8DEvAN87+8phq3bKzHrZsa8cyuZuxrsN80IDTehAAEIAABCOSIgOOZj5dL/mUykl40vRaTWaHmSHrF7yrTsfgyLsQIvTX/vjm1OENZcRzfdN2GRqwhvqkQsmUQEIAABCBQbgLzFKf0LpUaeZMSQB0t75IaoUrlnhAZHD0KUwaFQpf6JuAb6LHapp+rG+t5sj59dUVvq37TfrLp9Q2MVyEAAQhAAAIZJjBKHncXTavGR+d3xVGjI8agKWVYWuXuGgpTueWfy9GP1w31NeMi/tOSrnh0RzO+tqpXbnoR++Wmh6NeLkVKpyEAAQhAoCQEvHk0uvUcr8Sn5ytOSZ4jfq7TIJBlAihMWZYOfRuQwHiV+36jMukdP2FU3LyxN26Um97SPU0pTgN+jTchAAEIQAACEOgAAe8oHaeai5fNrMWlyoA3iVVoB6TAKYdDgKk6HGp8J1MEXPn7w3O74sxJjfiRlKZ7tjRi5V72mjIlJDoDAQhAAAKlJeCSIa6n9IYp1Xi/aipRT6m0UyG3A0dhyq3o6PirCTi+6bdGV+LsydW4SRn17pbitLP+6k/xNwQgAAEIQAACaRGYUAvVVay2dpROmyj3O3mH0CCQNwIoTHmTGP0dkEDLTU9Zdk6YUI3zpjXiayvr8YLqN9EgAAEIQAACEEiXwEkTKvGReV3KcFuNqVpxeqeJBoE8EkBhyqPU6POABHxDni43vbco8845kyvxzTX1+PH6RmztaUYvnnoDsuNNCEAAAhCAwEgIeANpSnclPqhSIO+bXY2xSuiAojQSonw3CwRQmLIgBfqQCAHfoCfozv0bC7ri4umN+O7aRstNb6MUJ+reJoKcg0IAAhCAQEkJ+Jk7c5SSMTlOaU41jh5bRVEq6Vwo4rBRmIooVcb0CgK+iS9RIbzfPUrxTbqR3+L4pq3N2FNnu+kVoPgDAhCAAAQgMAwC3kU6X1lrL1Lmu7Pl2TGaLaVhUOQrWSaAwpRl6dC3thJwfNOF0ypxsnyqz9jciOs21OPZXc1Ab2orZg4GAQhAAAIlIeDySa8ZX4l3KE34W1RQfqrc4WkQKCIBFKYiSpUxDUjALgPvVlrTUxWE+hPtNl2zvh6bewb8Cm9CAAIQgAAEIHAIAZf0eO+crpYhcpHc70h+dwgcfi0cARSmwomUAQ2GgG/sx6p43iLFN10gq9iVK3vjvm0H3PRw1BsMQT4DAQhAAAJlI2BPu7H63/lKqvTBubU4ZmwlXIyWBoGiE0BhKrqEGV+/BHTfb93oT5A7wZ8f363aTY34/tp6LFUacuo39YuNNyAAAQhAoIQEXE/pRJXseJc8NC6ZjpZUwilQ6iGjMJVa/Az+UAJ+AJyqonq3bmrEzXLVe2E38U2H8uF3CEAAAhAoH4Fu6UbHySPjInljXKzn5Cy5tdMgUDYCKExlkzjj7ZeAXQ3mjD5QO+J0xTfdtaXeSkW+k+JN/TLjDQhAAAIQKC4Bxyk55ve8abjfFVfKjGwwBFCYBkOJz5SKgP2xnUlv8dhanD6xGt+Rm9592xrR0ygVBgYLAQhAAAIlJeBdpTdMrsZHFKd0gp6H450OjwaBEhNAYSqx8Bn6wAT8gDhrSiVOktJ015ZGfHN1PV7a04j9KE4Dg+NdCEAAAhDIJQEbDJ3I4RPzu+INqls4XnFLqEq5FCWdbjMBFKY2A+VwxSLgB4UDXd82oxpnydr2o3X1Vv2mtfuagadesWTNaCAAAQiUlYAzx84fU9GzrhZXyAXPrng0CEDgVwRQmH7Fgt8gMCABP0B+bUEtTlZiiJuVUe9+uelt2N+MBnnIB+TGmxCAAAQgkE0Cjt11bcI3ajfpMhWfdeIjGgQgcDgBFKbDmfAKBAYk8HrtNB07rhpv3NGIGzY04t6tddz0BiTGmxCAAAQgkDUCo6UtnSu380ukKPm5NlHeFDQIQKBvAihMfXPhVQj0S8D2t6nabTp/ajVOUg2n+7dV4isr67FObno0CEAAAhCAQNYJLHKc0rya4nSrMb27EuR0yLrE6F+nCaAwdVoCnD+3BPyAma005G+Xdc7Bsd9ZU4/rN9RjW29EHd0pt3Kl4xCAAASKSMDPrMla9fmZ9UFlv0NRKqKUGVNSBFCYkiLLcUtDwA8hF/L7N0d1tWpVfG9tbzyg+KbNPaVBwEAhAAEIQCDDBByDa8PeB+d0xWvkGcGOUoaFRdcySQCFKZNioVN5JOAHkANmjx3XFT/b3FA2vUY8vqMZ+8gKkUdx0mcIQAACuSfgOKXTJ1Xircr0esG0aoxDU8q9TBlAZwigMHWGO2ctMAE/kOzycML4atyp+k03bHT9JrLpFVjkDA0CEIBApgg4+90SJSc6qCgtUMpwGgQgMHwCKEzDZ8c3ITAggaPHVWLu6GqcreQQ169vxDXr67Gb4KYBmfEmBCAAAQiMjICNdu+aVYt3zKrGUWMivMtEgwAERkYAhWlk/Pg2BAYkMEYPruPGRSw+qhYXTjuQTe+JnQfc9PDUGxAdb0IAAhCAwCAJWCcaq/+dNKESv7OoKxYrC153NQJVaZAA+RgEjkAAhekIgHgbAiMl4AfWKD24TptUjf9+fCVuUtFb1296bncz9rDjNFK8fB8CEIBAaQn4+TKuqxJLpCBdMbsab1Gckg11NAhAoL0EUJjay5OjQWBAAnaVuEKuEqdLebpZsU23b27GC7sbA36HNyEAAQhAAAJ9EViiWFkrSRdOt/tdJfC+64sSr0Fg5ARQmEbOkCNAYEgE/ECzu8Sn5qt+0+SmsulV4tZNDeKbhkSRD0MAAhAoL4FJWr1dOK2mBEPVOEFueMQplXcuMPJ0CKAwpcOZs0DgMAJ+wJ2mdK+LlMnojVMbcZUK3z6+o0HR28NI8QIEIAABCJiAve3OkIfCh+ZU45RJtZjCKo6JAYFUCHCppYKZk0CgfwJ+4J2vTHqv00Pwp5vq8c3V9Vizrxm9zf6/wzsQgED2CGzpjeglm0v2BFOAHilMKebJ5e6jc2tx0fRaTKgF7ncFkCtDyA8BFKb8yIqeFpiA3fTsYvHu2TXtNlXjn1fW475tjVgnxYm8EAUWPEMrDAHrSVv2Y+gojEAzMhDvKM0bXYnXT6nGby7sisms2jIiGbpRNgJcemWTOOPNPIFZoyrxB4u74sHtjbhxQz3ul+K0pSeCDafMi44OlpjAznrEXi7SEs+A9g5delJM7Y44a3I13qlEQadOrLbShLf3LBwNAhAYLAEUpsGS4nMQSJGA05CfI4viccqAdN/WeisV+b1byaaXogg4FQSGRGCXtoL3SWmiQaAdBM6Rp8E7Zh7IqDpdihMNAhDoLAEUps7y5+wQGJCAH5SXzjjw0LxOtZuuXtsbm7XbRIMABCAAgeIRmCv3O+8oOfudvQ1IE148GTOifBJAYcqn3Oh1iQg42NcP0U/Nq8XFqrXhpBB3bq7HdlmziS8v0URow1Dt5hOV1v/bcDQOAQEItIOAlaJp3ZU4X/WUPjinFvOV3MH3fRoEIJAdAihM2ZEFPYHAgAS65abn+k3//uiueNuMaly1thEPKc5pF+n0BuTGm78i4AByZSKmQQACGSHgZD+n6qL8sNKEE6eUEaHQDQj0QQCFqQ8ovASBLBOw4nSmAoGPH1+JH6yvaLepEU/vasR+QpyyLLZM9K1LqUOmy82HBgGGXTE7AABAAElEQVQIdJbAGFkvTtA9/IJplbhcsUoT2FLqrEA4OwSOQACFSYDs1uQMR+uUEnaz/vXohbX7IvRrn81pPf1vom5wM7T4mKI4k/E23dIgkCIBP2Bdk+OcyZW4bXMlbtzYaNVvwk0vRSFwKgi8TMDPgNHs3jEfjkDA7nd2sXZCh/OlLC0eW20Voz3C13gbAm0n4EQ1WxUTvUrpPfdr4bBNdeT8r69mO9uc0aF7XCUcWz1DmanKVguslAqT69qsVn2b53Y144kdjXhudzN2yK1pryz0ttL7/T36X6MfX/9RlWZ06z1b+sfo7je62mwFZx4/oRpHj6u0ttWpvt3XJcdr7SZgPf1YZdKbK5/3N02txbfX9LYUp3afh+MVg0C37ldk3EpGll486DKkQWBAAlcoocO79O+osRhaBwTFm20nsFXK0KNa876oNe8zOxuxXrsC+xqV2K31rte9PU0pTs2+b2JVvTdWCw5vhNowZAXKmwbHac17slLeH6fdUtcL85qkqK2yZ8+efvZRijFkD86a8x5NiuV7GvGTTY1WXZv12kFy6Eddk8ATZaQQbDXyRKnGAQXKsSZnTanFeQrinK2ZJSNSOFU0DQJJEfAc7pHC77pNV67qlSEglOa4OeK5nVR/OW76BGzZ/qsTu1uxcOmfvfhn/PMXeuM61U5jl7f4sh7sCL1+tPvdceMiPjm/q1VXycbWAq8rB4uGzyVIwMb/XfKcWqndo/u0Jrhf5UmWablvBamhVYHXvSO9T3kOe91b0waCFalZ2oFy3bC3KDnVUVr0jtVmwigtjosy1wutMK3VLtJyTRAHxt++pdH63ZMk7WYN/K3afj9NWvg8mSC9+2QFiwaBpAg49bgXbj/ZWI8X90hxGumdMamOctxUCSySIedLrx3VcqVI9cQlOdnXVtXj6/pniy0NAqP1oF8iRelSJel5+8yucIIHGgSSIuDbzqaeZqzThoCVpNs31VseVEmdr7/jWok6Ss+a81VL7PVSoBZo3Ttbxrq8t8IpTJ4w1qgf17bjHVua8bByL2/vxyczTeF5qjjY2tr3aZMqccakaizEfyNNEZTuXL4WntfW+61Smm5SfJO332nlJuAsXP9wClUwk5oF166vx9++1JuJZ05SY+S4gyPg1OAXycPkUhlLbTSlQSBJAkt3N+KxHc2Wh8nD2iTYIqNpFp740/S4OUXhKhepnqSTnFh5skKVx1YYe4cN6E7acJsyht2j3aQndza1HZmF6XJgWrgnG9W/62X1v3NzhOOd3ijt+9wp1bDVlwaBdhPwTcmZ9I4aU4tTtFC+WYrTPdt0XZCGvN2oc3M8W/1oyRFYKDcUx7Vuz8RSJblxcuT+CXgX6Rw9111w/HUyjjrugwaBpAi8JC8qr3vv3dqIF5Qtd4fc8LLU7O1iD6+HtYlxvOKtz9G698KXQ1Xy5mlVmB2mGzY04jtre2OFJo/9NrOjKvU/dZ3l7BgtYC6fJe17utKKkmGpf1i8MyICNihs0U7rA9qm/6bim57XdYKX3oiQ5vLLv7uoKz6mAsi0ZAjYm+E3H9/fcv9O5gwcNasEvPg7Vs/zTyzokqJUxfU+q4IqSL+c2fkmGeDter9Mbvd5cAO26WC8Hj9OVPXu2bVWPck8iSPXCpOD2pbJ/e5fVva2NFgHvOdBUTp0gngCOQDUOwGfVkDoGVikDsXD720mYCXJFqgfy3XoG1Kc/HuGNmLbPFoO92oCXz11VOte8+rX+bs9BPz8+cOneuIeWXtp5SDgDaSJWgR+dmFXXKJdJf+eN8t5OSRVjFE6g/OD25vxpeW9rfVvnte9jnGygWGx3PTykBQtlwqTF30bFdh2mzLefWtNXTWT8qYm9X/hflB1dd450xlGnG3P6hQNAskQsM/zv6yux4Ny0/P1xI5TMpyzclS7Bt36hlFZ6U5h++Fr6u8Vx0QrNgE/nmcqLvlM7SZ9bF41jhlHGtxiS7yzo7OitFLJHGzs/I7WvUVpc5QM4iNa916ozHozuiuZNjbkUmF6XIFt35X73V1K6pClOKV2TGDfhJfoxvs2ZdV5s7RvB8ihN7WDLMfoi8BOxTPdJ4XpJsU32Wrlv2nFJOBEM184mYQPSUv3CcXPfu6x/UmfhuN3kIDd59+gOCVnv329vELGEafUQWkU+9T2AHG25zsUB3Szkje9qPI4RTNuuuj3m6ZW4gNzuhRvnd2NgtwpTLcruO1rciV6VkVni+xK5BvwiRMqcYm07rfrppyH7cpi37aKPToXcnZmnatkHXchZ1rxCPzWUV1y+9VKj5Yogb16MH3gof3hYGda8Qg4491HFAd4pjLeznL1ThoEEiLgsBMnCrtRipLXvHmIUxouCtscXqPQlN+Qi54TomWx5UZhsp/mtZo439CCbpXilsrSXLPpdboxf0rxTZ5MNAgkRcBWqxdkybpBW/43aseJBV9SpNM/rg0u//vkUS0jTPpnL98Z//iZnrBxj1YcAk6P/K5ZtbhYRky73+H5URzZZnEkThH+zdW98YgMmVtL5OHrcBS76F2ujQLH92epZV5hsmrkrHdXr623Jo+zEJVHXTowVXxjtuL0VgWUOrPIPPl8Zm0iZWlS05fhE/C11at1nus3/atu1vcrq962Et2sh08u29+0Nfw/H9sVM7CIpyKon0lZ+r+e7Smc60wq8DJ0EpsoD6YJ/7h2lRYpbTzP3gwJqGBd8caAvT1+uM61E+stRalo7ndHEtnBa+7j2iR47+yqsuplZ6Mg8wqTi21+U7tK16xvhIPeyt6sfX9AStN5ymPvgFOsXGWfEcmN3+4A92ytx5Wr6rF8bxDflBzqRI/se8TnlMHrw3NUIyhDD59EB93hg6+WF8TvK1tembwhOoy87ad32Y/XyP3uQ3NVO2YKbvFtB8wBf0nAStGGVh3Rely9rkFZApFxtslPvKw0+VrMQst04Vpr23bB+4G0bf9OOxD893dKJ/ng9gMVxJ2hxxYwGgTaTcBuXOdPq8kVtNryof6pLF5L5bJHXoh2k072eM48dIriIVGWkuV86NEnivnrtau3am9xslkdOr4i/+773hIpSr73OfmSs3jRIJAUAbvbPShPjlv0fHUBWtoBAi558i/KV9AI1Q6Ui14WdnYzu9S2dftqKUreWUJZeuUlZDaunPy0ggBdUfwy+XqepAVRRpTwV3aWv3JPwAuGj+qG5QXgrbqpO75pCwHtuZHr6critZiUx6nKSzaGOF3GLBdU31c2n5pUSbf3ZAfjlKwsWWki2VJ7+XK0XxHwOu6xHQcy37lum0t70F5JwEqTN03G6H76XnlWdfp6zKzC5F2lr0u7xED3ygl08C8/g11/ylWeHWdyoVz0PrughhX5ICB+tpWAb1QnSyk/amyX6iXU4p9VLJrinG1FnMjBnP74tROrMTWzd/pEht3xg9oNcqFKQtiF+jkZtmjZJ2Dj42eUoeuYsRHjsT5mX2A57qEzaX55pXaUVEvUipKVJ1rfBFzq5KDS5Bj+TrbMxTA5TMkBsy785+A32uAIODRhsQJSP6W0wU7JaIMy8U2DY8enhkbAV6UTsdyxuR5XqYDeS3tCN/xm6ZKxDI1a+p+2I5F3Bf94SVfMxa0odQE4BfCXVqjIpBIWscmUOv4jntDXxyg9JBdLQfqkYiXOnnKgnpJfp0Gg3QR8D1CteClJTmBWjxWKcyQsf3CUfU36Gfbbi7riAm0OdCoUN1MKkyfUU7LG/c2ynnBxWtrQCXgn4Bwtkt4lTfw0uYTYwkyDQFIEnJTFbrO2lBWxoF5S3NI4rq/9z6v20nvncBNIg3df57hF18X/WtYbG3Wd0LJDwMbEo2VgvEQxSk4Vblc8GgSSIrBTBkanB79GnlP3yCOIHaXhkT5VRW1/b3F3nKASO53YEMiUwuSHyt9pZ+kmFemijYyAHwAXKw355XoYHCO3EDwMRsaTbw9M4FEZOK5R/ab75YttJYrWeQKnyhXvz4/vZjHYQVGsk5fEf1uq9Py6LrgqOiiIQ07tYrPnygvDsb9egNEgkBQBJ0hywVnH/Tr+l9qGIyPtnaVLZeT4fSlNkzvgZt6BU/YPzNWM79zCY6V/QoN/xxfmd+Qu9fTOhh4OtXj7TKqSD54enxwqAS88HN/0wJRGK67uoe1NxR9yLQ+VYzs/f4VqWGA5byfRoR/LpR/O0E6/PSbsokfrHAHXc3ER+LdqwXW24pXwvuicLMpwZhsOr1fSl9vluv7UTq79dsjct9DbNzeV9bUe7+uA50RmdpheVKHM335iP0Uy2zGrDjmG7WfjtL3ktMIOmDtXD4pOZxo5pHv8WjACtqht0oPiblnUv6b6Tbaw09IncLxcFr5wcneM65Szd/pDzuwZvXD6w6d64wUHMNA6QmCxvCw+rEyfju+dppTveFx0RAylOKnd7e5QFuOrFbv4jNa1u/VQ5CnYXtHbEPjl145KPeV/JhQmW6L/5PleaY48UNo7rX51NPt7+iHhAnyfXVBtZXCiLsuv+PBbewk4HtH1Jb65ujd+LFc9J4nAwN5exv0dzXXZ/struuMsWdNpnSfgxZLrrPy7p3sokZGiOGwr8C6S3dI/Pq+r5cLTibiHFIfMqTpEwNf4Pj3gnMjh716qxyNKF+5yOChKyQnEyR/+9LjuVDcAOq4weRH1fWniX1rRGw6MoyVPwNq5d5sunl6NBUpwz45T8szLegZf34/r4eFMYQ8r6NX1m3iIJDcbRmtF+JG5VVVIr4VdkGjZIfBfZBR0LAMZ85KViZWi6dpFep3qj71vTlerRiGXQrLMy3x07yi9JEXJMUo2DhKnlM5ssGHQWfPeqVjEtAwhHY9hWrqnGbcozaIt0LR0CPiC/heltXT9pktUU+c8aeqkHU6HfdnO4oWKszUerTz3d22px0+UNew+zTuKUbd/Jvih4SK1DmZHWWo/35Ee8ddVJ2/l3oaKVWIyGCnL/r7frU3Vs+VF4TilN2iH1YsqGgSSIrBGLud3yDPKa9hnlNyB51pSpA8/7g55sNykGLHTlNxokVxu02gdvZ3skvn5J9LKn9uN1TkNYR96Dl/YDkRetrtX8SbV+IAC6OzCw27ToZT4vV0EvHB5uxbyLqLqOmu2xL0kYwmtfQTmqE7Fe7RzvEAFU2nZIzBb8vnw3C7F9fWSSTIB8SyRUcbJjc6XAZBrIAHAHPKXBLyrdJfidH+kNOFPyIMC76hfokntF68enpaSerN0iI/OS8dI2FGXvIfkovNnclOgQG1qc6zfE3mx5SKXH5Y7jx88NAgkRWCffJJekJHk+g31uFH/eNiMnLSTO/ih8XFdv8QmjpxnUkdwprx/XdOIf9UOP1nz2kPZcUpvkzHmYAkNjH7t4cpR+ibg5C1X6Rq+TwoTJTT6ZpTmq16v/kcVZz9Jic2Sbh1TmLZrO+3vVXPJtVuwMyct5sEd3y49ToNrK/Xb5NLgehVp+YYOrod8qigEfM33ykr3qKxz39Di0W5KXkByLxi6hP2YeIcC2//omC6yfw0dX+rf8Dz/WwWG22BAAcvh4fect5HALqi/tqArXjNOme9k50t+yTS8/vKtfBNw3OE6Zbu8Ti5gV6/tbSU0IhYxGzL1GtXFp12kPWkX3I4pTK56/O+fUaIH5yGmZY7AceOr8WkFjru+jtOwojhlTkSF6ZCzZF6rB5ED4r3ztEd/0wZHwNflybKs/c2J3ewsDQ5ZJj7lONK/XNoTt5EZdsjycHzeMeNCcUq1eH8HarEMucN8IbcErBRt7mnKsNeMLyox2XLcyDMpywlKAf0/j+9qxUsn2cGOKUz/6dmeVgB4koPj2CMjYAvehfIHv0jZ9E6X4jSe4hUjA8q3+yXgB9OLexQ8q+LVd6h49Uv6Hb2pX1y/fOO1ui7/8OjueI3qLtHyRcCuPf9zab21y5qvnnemt378HK3gbicpukTK0lGK1cOQ1xlZlOGsu2TMf0CK0m1K6OBiqbjQZlvqb9E69b+qnEaSrSMK07Mq5vVvHu8JW5Zp2SYgnamVQe9NUw9kHjoxBT/RbBOhd0kS8EPpOQVy3qYH1NXrenFZGgC23ZB+S24IZ6kYNbaMAUBl+C0n3vlHWa4fUOZIWv8EHJdkV3FndfXuEgWZ+2fFOyMn8NTOZtxk493meqyVKx7udyNnmvQRHLv7T6/tDhepTqp1RGH662W98e015BFPSqhJHNf1XWaNiviQqqXbX5TA2iQoc8yDBHbo9uBiny58Sxrmg1R+9fNoKUu/bWWJzJa/gpLD37wQe1KLs79f3tuqU5bDISTe5TM1xz+o584ZKk8wUQkeaBBIioCfOzcorv67qhu4fr+K0aIpJYU6keN+VPeJf7s4ueTfqStMzirye0/24AuayHRJ/qBWlI7TYu2T87viTAXcjpNpOzl9PvnxcIbsEvCzyhn0nDb0e3qArVLNC+pchCzsVbnh1Vr1J3BJyu78HWzPPM+fV2yEkyDZSEBYb7QMcvPlcvc+7Sq91XXF9Nxhrg92RvG5oRDw9WfPhge3N+PKVb3xvDygSMYyFILZ+exR2l36Xyd1txKWJdGr1BWmb2ln6SsrVaiWp0IS8kztmGO1/XmxfEadTc+1ddhxSg19KU/kYNvvq+bF7QqSt9GlrIY/PxD+05LuOEWxS7RiEVgrg4ADy13cuawLNitFLqJ+3tRqy5vB5S5oEEiKgBMMPaEd3mu1q3S7YmdJOJQU6XSO6+QPn13g8jjJ7DKlqjA5lfifvdAbd8ovVEo9rQAEnHr8fcpUdO6UShwty7djnmgQSIqAi946CPde1cDYqvtJWZoXknZJ+oRqLZ2tmCVaMQlsUfa8r8nKfYt2VZ1Jr0xtitY4ntuXKqHDuVKYaBBIioDD519U0hVnqfzxeuopJcU57eP6OWlD/h+rxIaN+u1uqSpMDmz9/xS/9KK2PGnFIeDdpZMmVFsT1dmLJiej3BcHGCMZNgHfObyovGtLvRWU6zpORXfTczCrDRKfUr2ZY7XDhGvSsKdPLr7YckNVjaZvyw31pRKkMe7W88PGAHsrnD2lFlOV6Kr9S51ciJ5OpkDAhggbJKwsPbmzvLu5KaDuyCmcDOk/yAsjiUK2qSpMV63plctBg23PjkyjZE/qB9xEKUpWnD6iwLs3YAVPFnjJj26XpU2qj+GH3pUre2NbQXeb7GLwYV1P755VpR5aiea8g82fUbbIr8p9/RcyNNoiXsRm49rnFna1dpRmyFuBbI9FlHJ2xnSfPBP+VWEhT8rQZsNEQS+r7ADvQE8mKDHMby/qamXVbPfpU1OY7I7noNYfyVeUVlwCVpxsMXRRQWcsmTfGAbwkhiiuxDs7Mi8kV+5txr+utsWw3noIFiG+ydfQbC0g/4NcC06X9Z2FZGfnWSfO7sWcF3WOr/i63PR26BlahNBf75Da/e4CpQj/kNy5F1JPqRPTqxTn9DW0Xw+EVXpGfGtNQ14J9ZZHAopSscX/biWL+byyyE5qs7dTagqTay/9jxd6WilUiy0qRmcCfijOV8DuO5WC3IUG/VBMwKUU2BBoEfCOky3xP1JiiIe2N8LpYfPYfN3MlKL0Ru3Qfnp+LWYT9J5HMba9z95tcikOz3HvrObVKOAdpdOUJOgKLWheT0r8ts8TDvgrAjYuuAD6z5XMwQmD1impCq0cBGxk/D+VSdYZZdvZUlOYfr6lEX/6XE9uFzLthF6mYzm+yZPXgXgXTKu1XeMvE0vGemQC9k+3FfEaWeXzFitp97vXK1W/0yj7p/+mQeAgARsB7FJ0q+b3L5QCeWeOtptcx89Fzx2ndJ6eA9MUp0SDQFIE/Bxw0dmbVXz2ceKUksKc2eNO1/3l/zmuu1WnsJ2dbPOGVd9ds/V3xd78Wn37HhWvDoaAZe+H/DO6abnGyGVaDLoQIWvBwdDjM0Ml4IXYB+Tmc6wCP/2wvF0PzazHN9n9zlb3y7Ube6rShTutMg0Crybgoq02PDmY+dEdzdaC8N6tzdiV4QAnz+0Tx7sERS1eN7kSS9ps8X01I/4uNwHbEJxczAYz/8z6vb/c0kpu9Fvkvmw3zDMmRVvXmqkoTN4JXbYnOTgcOfsEfOO6WfVFHlPNgwuUMvbDSo/slOQ0CLSbgJXx12lX8zhVu3zT1ErLd/0xBflmbV1pF9UTtJh0Wv7T1N85uh7skkeDwEAErFA7vs0ubU/LEHWDMurZKJU1N9Q3ayfpMu0oeY47oQO1+gaSKu+NlMBqxykps6S9mVzTLK9uqyPlwPejJXtnGN2nh35XG63zqbjkbdL26H99vqdVOwVhQsALxWndSpOsGA2nIbfllIUi8yIJAn5o2uro9OMumu3sSCq/0ZHAX89xJ0AZV2223FSv0I6SdwvG6YJg/ich/eIfU1O7NZe3apLf2aopU28tFvc2K61g97QWjVaGxuif7+vOkGpPgmOUAt9rFeZ28edhp0bo+W1DgdOEX7mqnuv4vk4xLOp5z5dh/o+UXtxlCtrVUlGYrPn/3pM9sZqgu3bJrTDH8U7AR+ZW45RJim9CcSqMXLM4ENdrct0NpyJ3EL2tkBv2NxPfebJBYLos7AvHVuNkKUiuqXSsdr9oEGg3Ac9xz+375Y707K5GrNEc3yqDpXf4naq8Xc2KkDNQTdIvntveRbKr9clyLfV8p0EgSQKeyi5c/oS0pauU/e5BJfqhQeBQAguUaOyvT+xWpmbdrNrUUnHJ05ok1vt/NAi8ioBvdMuUyeb8ac24UNn0nCAC141XQeLPthBoxQppftn9zfejp7WwfFzzz4Yc+zs7i9J2WStHuq50odnZoyLmyHXKN2tb2h1TdawWleO9vUqDQEIEPMdPURzcKdJaehq1WK7Y4eV7I5bLPcUGAnt7bFeWPWfa2yN3Factd5xpf827Q65r4nlrBWmKdpCcEtzz2v8WaI4vkfLvz9AgkAYBz9eHdd++VS7+eYhRTYMJ5zicgO91us21taWiMG3U4iRHCX3aCpiDHZmAM9q4PtcjcpfyNuq7lHJ2HoHvRwbHJ4ZNwPFz/vdmuQ9t1l11/X4VwtWT2DdZLy6tUNkybytmvdlUDZymPver03mBaMu6m1MlT9FKdc7oaCVs8OvO0jNdi8tZUpysQNEgkDYBK09OsrBk3IEz75aC5J2mXZrLntf7tPDcJYWpR/PbreXepNdH63tjXlaAvA86XrtINtI6a6Pn/WTNa895GgTSJmDj1vfkWn2PdlAdozJS41ba/ed86RGwQUj2ora2VG57G7UYoUFgIAK+8TkN9Fo9xe1O8oE5XUo/i0V+IGa8N3ICtqA7IH2GFJuIWusB7IXlvpdjQA5a33u1qNzX+JXi48Xoy/pSaP3YKtY8VoqR9Xy/R4NA1gg4Vm6cFaF+jFFWm+zSZ3c74o6yJr1y98eZIG9R1lMbVl/QOuHgfbncVBj9kQi4qP3x8uxoV0tFYTpowWpXpzlOcQnYKvDUzoj/8WJv3LCxEp9UNr0TFPeBK1NxZZ6lkbVckGxJb3Xq0Bvtob9nqcf0BQLtIeAZjjt0e1hylPYQcK2xx5RC/yplv3MqfWc9a7OXVXs6ylEySWBvm7cgU1GY7DtNg8BgCXi27NWN8T7VGHlSachd7NBueovG2F2EhetgOfI5CEAAAhCAQN4IOEHJS4q9u2ZdPW7UzlKeijTnjXWR+7tfLsftbKkoTNvlF02DwHAI+Eb5vZetS2+V4nS+EkPMl0sJetNwaPIdCEAAAhCAQDYJeENghdyoblcm01uU1OE5ZXqkQWC4BNa2OdlcKgrTcAfL9yBwkIBvnA74/IXim96iaveueG+ffBoEIAABCEAAAvkm4NhRZ767WTtK9izx3zQIjITA7jzuMI1kwHwXAgcJOLvT/dua8Yxq6dy1uRq/dVRXHK10zTQIQAACEIAABPJJwAmf/tdLva1neztKO+STAr3OOoFUdphwn8r6NMhP/7xl75S4d25txMM79sc7Z9Xi3Ypvmq2UZQQs50eO9BQCEIAABMpLwJnu1sll6ttKE37ThnqrJhh7SuWdD0mMfGKbNZw2H67vIbuAIw0C7SRgxcmxcd9cXY97lRziPbOrcbZq6ri6Mw0CEIAABCAAgWwScJzS3Vsacc36htKEE6eUTSnlv1fz27weTEVhcoVwGgSSIuAb7t8v1w1Yu05XzKrGaZNqFFZMCjbHhQAEIAABCAyDgAsnPyKfux9KUbpfz2t52dMgkBsCqagyY/DJy82EyGtHXb/p51uasVS+0GdNbrbc9E5QwTKmXl4lSr8hAAEIQKAIBOx+97QSN11rRUmJmyg1UwSpZn8ME12ou40tFYUJN6k2SoxDDUjAN+IbN7rIXSMuVAryj83vinZfNAN2gDchAAEIQAACEGgR2KFMZd9c1Ru3KVX4Gj2frTzRIJAGgbljqm09TSoKk/s8vqsSznJGg0DSBHxDfmlPM76u+CYXvfvDo7vitROrMUHWBnackqbP8SFwOAHf+/fouly9L+IpZbncqGDvrT0Rq9pU1Ny12aZ0R8xQ8pcTJ1Rj3uiIsS8/dw7vDa9AAAJJEnCM8U4pSt5N+oKy363X9e7XaBBIi8A0PQ/arC9FagrTAj3AnqGAbVpzhfOIgG/Q3nH6v57tiTcqIcR7lE3vpJcVJ1JDMEUgkDwBJ2ZZJk3phg2NeECLJwd7J9EeftVBFyrY98zJ1bhsZjUWS3MijvZVgPgTAgkQ8NVtRenR7Y34kdzv7t1aZ0cpAc4c8sgEZjpzcpsXeqkoTKNk1p8nC+Azu5J5WB4ZHZ8oMwHvOP1M7gBPa/5dIDe9S6bX4pSJbb6SygyYsUPgVQTsTPC84glvULrg21SM0hbmNJsVsxV764prlGuuilxfNrMWx6pmmxwdaBCAQEIEHpai5Get/61r0+5xQl3lsAUncNTYSoyptfeGn47CVGkGqcULPjtzMDzfwL+3th6+qb91Ri0unVENWyFoEIBA+wjYQHG7FJXvrFEhShkpOhmzYEXtB+vqLTfAj8/rinO000y9tvbJmiNBwAQ26Dq7We7v12sn2TvKysFEg0BHCdjLYJR0j4j2rfFSUZjGSss7VhnLaBDoNAHfyJ/VIm7VvgPW5w/MrcW5LKI6LRbOXyACNyjpypeW98YWueNlIW7BCtsTO5vxVy/2xmcX1lR6oM2pkwokO4YCgaEQ8LX1c6UH/66Kzz6jHWXi1IdCj88mRaBb8auLx1VjdJuD1lNRmNznuXLJcxGpVQn5sCcFnuMWk4Bv7A9tb7bc9M6eXIkPy/p8/Pho+wVWTHqMCgKHE/Di6eZN9fjLpb2Zq69ixc1WcPfNXhqXyi2XnabDZcgrEBgMgb2yPD67+0D2u7sVm9ira59NpcGQ4zNpEHBm7jnyHmqzvpRO0gcDsuvTYvkUojClMV04x2AI+Aa/Wzf+n25uxgPb94dddt40tRILlFqFxdRgCPIZCBwgYAOEM1J+cUX2lKVDZeTYqr9d1hvaYI63ySXX2VtpEIDA4AhYUXJmy58qLvG7cm93UhcaBLJGwO54M0a1v1ep7DC52+68g27v3RqZsz62HytHzBsB3/i/vLI37tpSiYtlfT5fySFmaVeU5VTeJEl/0yaw82Vl6eur8rGA8rV+pfpqg4mVpgkoTWlPGc6XMwK+VtZLUXItpVu1i+zYxB7tKtEgkDUCvp0frc2ZqUor3u6WmsJkX0L7FE7qqsdm1d+gQSBrBPwAeHRHU0GrvXH/9lpcpsXUW5RhiwYBCPRNwBZn7yxZWUo7E17fPRrcq+6r++x2uVKPtzub0uB6wacgkA8CznZpT4xHt+fDKJIPqvQyCQJTu50zof3xS+5ragqTT/Ya7TDN01bZ5h7bK2gQyCYBW6B/vkWZtVSi/O6ttfjM/Fpr3mazt/QKAp0jYGXpK3LD25pD1xwrTe57V6Ur3q0abTQIQOCVBFYr5vyrMiz4ebhN13gWkri8sof8BYFXEnD80okJJZlLVWFaLIXpZFVhf3YXxcxeKWL+yhoBPxg2aSf0elnW7tHD4j1zulqW6BmKxcODJ2vSoj9pE2gleFA2PGeec1xQXpsVPY/B8bWnqKh1m8t25BUL/S4xAV/PNiY4RfgP1mYn22WJRcLQB0nAsefHS1maK6UpiVbZs2dPqo87V3v/0+d7Y6MuSBoE8kTgVBW7fZdSEr9xai2mJeAfmycW9LW8BA5N8FCUoG97Pvwfi7virMkkfCnvzGbkDpe4SwbCq5XQwYXeaRDIE4FZMmj/2fHd2phJRmFKdYfJ4E/SQE7QLtOdmw/4j+dJGPS13AQc3/T0rt54q35erNgmX5QEjJd7TpRt9HlL8DBY+ayR69E/LK9H/aiIc1CaBouNzxWEgK/rR/Rcc1KHm7Vz7B1kGgTyRuB46RYO/Umqpa4wuYjtOxRki8KUlEg5bpIE/CCxm95jOxpxtgreOmB8iZKZtDvff5Jj4NgQGA6BvCZ4GMxYbUt/cU9DBXcjqgubcY52kXG9HQw5PpNnAnY9f04FZ3+8Xq7nKkC7RpnwiFPKs0TL3fcPzamGi9Ym1VJXmDwQFwo9Wlrgi7pQaRDIGwElBouX5Mm6dl8jHtjWjMtmNlXDiaDxvMmR/g6NQJ4TPAxmpF4oLt3diL99qRk27J2pnSYaBIpKYI8eZN9f12jFKq3c22BXqaiCLsm4TpTHz2mTkr1npx7DdFB2Nym70p+/0MNFehAIP3NLwIHiDjT8zIKu1gWrDSd2nHIrTTr+agL7pEncovv1f1/aGzYWlKFNkP3jf57QTSKIMgi7RGO0UUA2gXhkeyO+qrqDrqdUlmu6RGIu3VBdtuj/Pa4W501L1nDdMYVpi4IL/8fSnviZfGZpECgCAccznTe12nI5dayerdQ0COSZgBM83CBl6UtKv12UBA+DlQeJIAZLis/lgcBuaUaPK07JO8V3bGmE45ZoECgCgUtVM/PfHd0dkxP2mUv48P2LwgNz/IczsayT3ywNAnkn4AeQ45ue3NmIC6dV4xJdxI5vokEgjwQ8n29QauF/WV3OYpUkgsjjrKXPfRF4QdtK9uq5dVMjXFuJBoGiEJg9uhKXKgnXxGQ3l1q4OrbD5LPbYvkVbQv/cB1ZWYoyeRnHAQIOGD9VdV1s+bhwei1xywfcIdBOAk7wcK2Upa+raKVrspS1OZnLCXK3/YPF3a0MryR3KetMyOe4XWz2ZhnxfiJPnseVqIhNpXzKkV73TcB1l1x0/LMKh5iUwvZPRxUmP4adoeUvFMv01M7yPpT7ngq8mncCXlw5FuK1Upw+qqQQp1EYM+8iLU3/bcT6x+W94cKuZW82fpykdLX/cUlXLFKBWxoEsk7AcUkPKk7pG9odfkqK0k5VcWGFlXWp0b+hEnCihz9a0h3HKYlcGnfmjipMhuOL+CfaJv6bZRSzHepk4fP5IOAL2eFMb5tRi0/Mr8Wc0REOUqRBIGsEnODhZrnu/EWJEjwMRga+Wo+SsvSXSgTh2Cau3sFQ4zNpE/D1u2ZfxDe0M3yj6ilZcUJRSlsKnC8NAjNUpPb3VWz8LXLHS+t+3HGFyWBd28aued+UNcQXOA0CRSWwQIut92gL+XzFOM2R7y21Xooq6fyNyzFLDggvY4KHwUrrlImV+EMFF9uiic1jsNT4XNIEerSGWq1Y8LuUzOGqNfXYUGI32qRZc/zOE7AB+mPy2rErnt3y0mqZUJg8WLt+/MlzPXGfiqfRIFBkAs6ed6oWXraMXKA0mGn43haZJ2MbOYFDEzyUOWbpSCT9oD5dtT5+a2EXMU1HgsX7qRDYpIzDd26utxI6PKHQBtdXokGgyATeMKUaf3Jcd0xJIW7pUI6ZUZjcqUfla/tXL9bjuV0oTYcKid+LSWBa94HFl4MWz6JIZjGFnINRkeBhaEJyJXnHI37+qK5W/TV2mobGj0+3j8D92xrxvbX1VkKHzVKcaBAoOgGXbPl9JeF5rYzOabdMKUzO4HL3lnp8YXk9lu/BSpL2ZOB86RPwYmuOfHEv0m7Th+fWwn65NAikSYAED0OnfSARREWJILpJBDF0fHxjhATWyP3u23K9u0PZ79bK/c4FaWkQKDoBx5H+20VdcY52mLzbn3bLlMLkwfvCd7DiP0ppsh8u94G0pwTn6wSBg4qTs+k5vml6NzESnZBDmc5JgoeRSdvP64UvJ4KYTyKIkcHk20ck4LXRxp5my/Xuu1KW1qEoHZEZHygGAd9r5yrm+/NSli7S+qhTu/qZU5gsXgcwXqvaAV9TpheK2hZjwjOKwRN4nWIkrDidIrefpCtXD75XfLJIBEjw0D5put4aKcfbx5MjHU7A7nZPqSD6vyoxltOF0yBQJgIuTvtpZRi+fGYt7BLdqZZJhckwrDTdoJ2mL6oWiIMaaRAoEwEHM16im8OFsqacpMKZYzqx/1wm4CUaKwke2itsZ2lyApdfm9/VSj3e3qNztDITcHzhk7sOpPr/6aZ6bKcuWpmnQynHvlC79y7HcpnKsnRSWTL8zCpM7pxjmlyj6Z+VcnwZMU1GQisRAd8cFo5xJr1Ky7Li+i80CIyEAAkeRkKv/+8686Wv099Qmluu0/458c7gCazc2wzHF969tRkr9jZaRuTBf5tPQiD/BBbL5fnfyA3vXMUsZaEES6YVJovbStPD2oJ2bZDHdhDRlP9LgBEMlcA4LcYWqNjtJ7QYO29qhaK3QwXI539JwAuwf9Cu/TYs1b9k0q5fXIzaSpMzOE1VBkwaBIZDwLGFd2xpxpe15lm/P8JGDhoEykbAWfA+p/INLuOQBWXJ/DOvMLmTvl2s0A7TP2mn6eeyttilhAaBshGw64/jmz6u+KYT5KY3TncR9pzKNguGN14vwm5SUdq/WNpLRq3hIRzUtxyM/AaVCHCNEOqrDQoZHxIBJ3TYLcXIdZS+qTilR1RiZT+hSsyNEhKYoHXNBVOr8dmFtXDsUpbWOLlQmA7OGStKP97QCGeIcVVrGgTKSMDW60vlz+u4iZMndCa9Zhm553XMJHhIX3KXzlBxW9VpmqcHPg0CAxHwBtJjUpBs0PiZCtBuIWZ7IFy8V2ACjld635xavFe1KW0gzlrLlcJ0EN7PVHvgx+tthWG36SATfpaPwNHjKnHFrGq8eWotnNaYBoFXE7CydL2MTN+Q1Xq90hDT0iFAIoh0OOf9LI7Nvm9rI36o9cyLu7k+8y5P+j88At5Vet0kr2dqca52l7Lacqkweft6rXaY7lCR2x+sayggksJtWZ1g9CtZAuMV33SKfH0vU0a9N0+pxPisOPsmO2yOPggCJHgYBKQEP0IiiATh5vzQu2TIuFPhBddKUXpSbnh2x6NBoGwE7MLsXaX3zHZyq1rMGpXt+pO5VJgOTir75Tso0paZP3m+l+DIg2D4WSoCvulMqkWcqdiJX1tQiyXjsmuhKZVgOjxYEjx0WAA6PYkgOi+DrPXguV2N+MrKRjy6XWnC6wfil7LWR/oDgaQJuHTKHy/pDnvKzBp14F6Z9DlHevxcK0wHB2/bzFOy0jiT3vO6GTkDFHkhDtLhZ1kI2CnP5Zo+rWx6b1MMha01WfQDLos8OjVOEjx0inzf57VB4yNza/FZGTO860QrHwEncLBLrI0YVykG2xtK7CmVbx6UfcQulTJZXjCuLel04YuUNjxPd8RCKEwHJ6FvQs+oyNsPdFOyXzA++wfJ8LNMBLxAWzy2Gh+cU42zVL9gTsa3ucskm6THSoKHpAkP//i/oRS571dA82RZVmnlIODwgTUKH7hX65HvK3xg2Z4GWSrLIXpG+SoCc5UA5w1ajzihwxLtKuXRdlQohemgfPZIc3KxtxuVdeb+bQ1c9Q6C4WepCEyQm94Zk2txibLpnav6TY53ohWXAAkesi1bxxd+SEaM98/pimnUacq2sNrQu11ah9ymBFW3bWrEQ9uJU2oDUg6RQwJjtO44S+EClytB1VlK7JDnXfZCKkwH55QtO7crTee1G5qxdDeWnYNc+FkuAnbNc+aZdyoDzUkTUJqKKH0SPORDqq7N9P+z9x7wdZRn9v9zi9yL5Cq5FwwYDJjemwFTQwk1lBCSENKTzSbZ/JPsbnb3x242ZVOWZNM22RAIYEI31QZsTAfTjbFxr7KtZtmSbOuW/zkjC1v9Spq5d8p5+RhJV1dzZ77vlPdp52GU6cqypDGHXyN8BFgOwBKBx7elnfVHlWTCwzfJOqIuCTDTZRoiSVx3cP3BCFPQR6gNJk4Oc4fZs4lqNFTUo9dHQwSiRoC5w+wJQzU9Sneyl5NGeAhI4CE4c0kJ3atR03RNWVxR3+BMW057yh5KLAl4qqKpV2Sjms/mxE1vChcB3uMYTWe/SBpKYamlDr3B1HwaMpeY8uO/Xpe2t7anDdoQyiVuhqOvkSFArw9lPG9GPcUxCJMzbY+vaQSTAAUemHr8o1Up3c8CNIW85igE8WkIQQxQqmyAZq7trnJtsQNqd88jm+UO9DtTm5O2jPRK+Anwnsb1xExI9n5hQsJZZ4RtbREZg6n5dGV90zPIKWZX7aU7GXGSWk0zG32NFgEq6Z2PiNP0wXEbjBudRrAISOAhWPPV3t5KCKI9KsF5jYbS0h0ZJ6rEeiUNEYgaAfpbB2L9cCjWERcie+VU1EuznUIYR+QMJk4iPUIbEG16vjpj8xA6p7KehghEjQBvaaMQLp81LG5nIXR+IKQ+EUnXCAABCTwEYJJy2EUJQeQAyYdvYZ0S1w3z4XhdgMjSVqT9axXhw4nSLnlOYMbgmJ2BprNnQFyKaf9hHpE0mJonlPVNK9D09gkYTfNQoMn+TRoiEDUCzC+ejH4Ip+KmdyXShBRt8vcZQIGHuVszTvqPWif4e65y2TvWE944NonawrhRUUrD3wQYVbpjY8pegcN1VUNWPR/9PV3aO48IjISY1Jkwki5AVGkS0vzDUqfUGa5IG0zNYHYyrI70vL8i//h1yJBLF6KZjL5GiQBrKQ6Aqs0nxyac+qYo3ACDOL8sKv/tupQcPEGcvHb2mSbSCCw+Po+8/7OGJyKx8GgHg+9fooOV64PbN6ZtORytdFxoiEDUCNCnw/rn68ck7KBBTXXQUWEgg2nvTPPWtxs3wEXVWbsT3qM1SNnjDVJDBKJGgIbT8UNjds2YJAwoC3TfhDDNnQQewjSbbY+F/Um+OjFhF6CukKqWGv4gQGXdVfVmf4FD9dWatNYF/pgW7UWeCTD6PbGf2U3jknYc1gd98XPU4uEymNo56WqRmvenDSk0vc3aOnTmZr6yhghEjQD7N12ENKFZCLtP6h+Xml4BTwAJPBQQfh4/msXS/zAliZqAmNLz8si9vY+iw3T9rgz6KWWcWiWlv7ZHSa+FnQDrmifg+U8xh0/AicpeclEdMpg6mHn2T3gfaXq8Wb5QnTY2n5Pd1AEsvRxqAkcOYT+FuJ1QHLfSkBd1+nEiJfDgx1nxbp+YnvcZyI3zmpPkuHecO9tyOUQcFkH17ln8e6tWqSadsdLvwkmA0SPWKZ0MUajZcJoegvS7qEe+ZTB1ca7TUFqCKs+523gDRbGThghEjABvnIPhVToc/RUuQcTpWOQvq74pPyeBBB7yw9lPn8LrbTQcEzeilpDS/xKCyN/sMO31pZqsPQZH6Tu1aduBbBM5SvPHX5/kHwJnwUhio/sZkAsfGuGo0v4zIoNpfxodfE8Z8mrcOBdUpu2uzejgjfomDRGIGgG2VijBjZMRp0/BAz5lgAotvD4HJPDgNWF/bp9Gk4Qg8js3q+ozSMVP25uIKNXgec/nvoYIRI3AGCjefQJquWdCgKYYz/uQtlTq0bTKYOoGNt4/2W/h3vI0jKeMMadZ9U3dAKi3hoIAF3PsH3MhvE+XjI7bWHjDox6qd3tiGVl6Ej1efrw6pYWb23ADtD0KQXwFQhC81nSNuT9xTL1nT8Y5eKbPw/XGxvayk9znrC36mwDrlNiTcTYi2h8fnbDhSMXjc16jJQEZTC155PQTjaT30N2bvVBeRH0TvVEaIhA1AvQ8HYD+TR+HN+qUkoQNQz8Zjd4TYM3SE0gJ+gOEZyhAoxFtAhSC+OdpSTutRMIrbp4JTLd/Hs/vOZvRTwnRJQ0RiCKB4XhuH19M52fCDkMTWo2OCchg6phNl7+pw8JmHiJNC1AY+u6OrOOd6vKP9AYRCBmBQQlzwvdXlcVtqtL0ejW7NJZYP3EnJIy3IYKtIQIkwOuKfZoovIKgk0YvCayEgcRr7Hk8u9mHUUMEokZgEMJKMwbF7CxElc6AM4ZZIxqdE5DB1DmfLn+LCL4T0n+lJmOsN1iH8L5yn7vEpjeEjAAXcTNR23Qlok0nYVGne2/3J1gCD91nFpW/aI7m3jwhaSfi+lJdQc9mntkhL+JZfS9qkRejCa2GCESNAO8dE1CndBkiSifAUBqDVDw5YXI7C2Qw5capy3dRXYe50A8jTY83Yw0RiBoB3ohZz3TdXnUvphJp5E6ADpffrFMaXu7EovVOXk6T0Q/l65MSjvCKLq/uzT8b0DLVdQ6ezxtRiyzHZvf46d3hIHD9GKhvjozbOBhNekZ3b05lMHWPV5fv5k14WV3Wfrc+Ze+jzqkOTizdmLvEpjeEiAAlx6/FTfmqsqSjshOiQ/PkUCTw4AnW0G6UDaXZ3PZ4RZpynuNK1CvdV56yvyINjw1pNUQgKgToWBmIZ/KRQxN2E9Rtpw2IKULdw8mXwdRDcF39GWsRWNv0KDxay2FAUX1HQwSiQoBG06UI+d8wNmksKtVon4AEHtrnolc7J8CGkv90QFKRps4xOb+lsXTbmkanCa2MpRyA6S2hIcDG1wcPjKGfEuqU0ICWdUsaPScgg6nn7HL6SxaXvlidheGE+qYGGU05QdObQkPgslJ4tZCix54yGi0JsNj8sa1pCTy0xKKfciQgIYiuQZUj9e72jWmnvrjrd+sdIhAeArw/MPWO6poToGar0XsC6t/be4adboEn7cT+ZodAjeQZRJyerZAMeafA9MtQEXgSEdYhUNG7DpEmqulpNBFgGt4TqHdkipDU8HRW9ITA6oaM/X4dnXASgmiPHx0S90Ay/HHcgzREICoE2Gz2zBEJO2d43GYMlgCTm/OuCJObNDvZFh9rvIGzi/hf4fFasjNjytLrBJh+FRoCQ3AD/8SYpF1RCulSyfE48yqBh9Cc3gU9kGYhiK9BCOIoqFRKCKJpOijw8LdyPmtTtkMaTAU9R/Xh+SHQrFR7LZRqZ+BeQAel4kruspfB5C7PLrdGw4neZdY3/QWG0yakDCivuktsekPACdDr9fmJSTsPni/WN0V1SOAht5nng74PVv/94tkWSk6pbNZ2Z2NOTajEdPaxZAbDt6cW2YEo6I764PP0UaS6/np92tgrUUMEwkygHyyl0j5mN45LOlGlGG4Bugt4M+MymLzhmtNWWdP0wJaMvVQDwwmS5Lq354RNbwooAap7/X9Tm9S9AnoIvdptCTx0jY8REgoaTELO/UEoVj54EPLv++37u2oU8K+sz9o7UCDl181yOH0Eh0bTd3F9TYl482j2RPyPlSnbqsbPH50b+iZ8BOh4ZA+lk1GjdAkEligTruEtARlM3vLtcutUz3tnR1PE6dnKtNWmuvwTvUEEAkuAi7r/mt7HmKYXpSGBh65nuwgLgFlQcjpjOFJKkHvfmboiowhvw2h6sTpjCxGt3wLDSbEEc6TGb0FzWypjRXFUwEj6zrJGe3+nzoYozn9UjpnPz7OQrcH7JZ+p/ZXqnpepl8GUF8xdfwg9p1wA3IOmem+jzklDBMJK4Dr0aLp5fDIyqXlMw3sEAg93SOChw1OaKZs3IKXkLBQqMxKZ62B9ynu4X/5hQ8qWapFsVA0+ZmjcPhdBo4lG9P+g8TOfoRoiEFYCx6H/Glt2HAGnUoladuR1mmUw5RV35x/GnPxyeMgWVGbsbtz06S3TEIGwEWDK1d9PTtpp8I5FYUjgofNZnoj0Oy7wTyruWed53jfXIr35mx80Oil6nX9a+H/LSB0FIL48MWFUaY3KeA6Rxp+uTkl1MioTHrHjLEP63VVlcTt9WMJxKkngJf8ngAym/DPv8hNpJlFqmJLDz8J4qmzMmgqcu8SmNwSIwJFY0LHeYmyI864l8ND5CckH/gEwlr4IMZBj4TXNPa7U/nZXoefdrahdYaNwBPUiPchyOoUgpkAIIgLpeZz7H65K2XtIb9cQgbAQ4D1yRFEMacpxuxaZGXQ29vY+GRY2hTgOGUyFoN6Nz3wZBawUhninNm3bVd/UDXJ6q58JDETu0PV4AFwNqXGq/IRtUOCB/V/+F6liqktsf3a5kP88IksnwFhyY9CptBTG0q/WcuGckYgOoEZBCIKOiTvRb4kORtYEa4hAGAgMQ7rdjMF4RiKqRAejRuEJJL7//e//oPC7oT3oiACVT5izWgwvAzP0qmE0SU2vI1p6PSgEGlFvUIvIKR8I9JqFaTgCDzCW7sQCjrWJGm0JMA3va5PcVUyknC69seNxz1y/qylKH/Xl87Y9Zht3G1LzYjY8ZNcZzyrO7wd1ZndtStkWpbC3vdD0SuAI0IF4BAykq9BP6QY0fKdiqIY/CCjC5I956HIvaCRtgPQ4FaEeQY8JypBriECQCbBA/TMQf7gKUaawqPzQwz1XAg+dnpaTsXj//PiEnYpcfC9Gc6TpZ6ullka+rGk6A/WCjOaxDiJMg5HcP25Io0ltWo7EME1sRI+FDvLLShN2Ipzk/J7PSA3/EJDB5J+5yGlPuCCj4UTFLRpPanqbEza9yacE+FD4+fQiG4OvYRgPYOH22/VKw+toLhlZ+uIELAhKEp4uBiQE0XIG+qIY4ryRcfvMuISNCFGkaT2ehV94b49VKZLbcsL1U6AIsKfS6XBqfA4OxBFoQsvrVcN/BGQw+W9OctojpjS9CTldpv0wb58dzRVzygmd3uQzAqxlYuF/kAfrKJ6oyNiPUXiu67DtTDoCD4gsfRFRDjcEHtp+QvuvrEZz21tXNtoyCUE4xeLnjGiSHGfDyzCM21CvxtolDREIGgHeEwfCUDoc6XfXIP3ucMiEMxqs4V8CMpj8Ozc57RlrJJ6uSNsziDa9i0Jn1bzmhE1v8hEBerzvnNnHUM4UyMGapceRJiuBh46nz22Bh44/qeVvmtPzJASxjwuNpq/AQRH0SBN7cF2xeLfxq4YIBIkAdY7YR4nX4mlITVY/pWDMnkQfgjFPHe5lfywyD8GFdyj+8SKkkp5UuTrEpV/4kEA9FjxT+sftgADKH9NYenRrCpHejAQeOji3vBB46OCj2ry8vxDEBglBOHxWIeoGFW47ABG/QQEukmDLjXn4pyECQSLAGs5zRyTsJqTfUSGUaziNYBCQwRSMeepyL6mid9jgmE1Do8IYVgmboY7EtD0NEQgCAYqanAFPW5AUxllP+BgEHmgssW+aRlsCXBx8YW/NUtvf5ucVGk2jEMWcjHvjh3Wcq/x8rp8/ZU2DWQOeDwfBSTEgSBfdXqis3f31upRt2q3rzs/nmfZtHwFmUJw7MuG005iNesKwqcPuO9LwfqeMyRDN7UA8+I4ZGrevQq73BwckYTxhpaAhAgEgsBJe7xX4F6TxLppkUnxFxlL7s8bI0heghkeBh0IP1gtMh3HwvalFTm+iQu9PoT9/N3IVn0LN3cMw+OsCmMfNe8XahmDdLwo95/r8whHgWuyfphXZl5AKy55KQXRSFI6efz5ZNUz+mQvX94SPkz9DcvVJ1DhthidOinquI9YGXSJAWfHrIP5wE1S8gmDmb0VE6dPvSJ2rvelvFnjg4uBYOHD8Nqio9l+QHH++WiqjQ6G18q0pRY7sOOctCIPPtT/huUbBIzWqDcKMRXMfqXRX2tfs0tEJp6dSQC6vaE5WjkcdbGmqHA8yqm/jBfrJsQkUFcbsgS0Ze6Um46QwsBBaQwT8RIALh7cH+wAAQABJREFUnyU7M7YjlbAhPr8r0fFAZS5JGbd/BrE2hj1//GgscY+HFZmzf4lYyhZVZ40Kh1EdrHmdszlt0wfFAtOjiftMgSMZS1E9a/193HQ8UIXy5JK4YyyxkbaMJX/PWa575/OlSa6Hofd1RIAX7xTk7n9hQsxOQoHhU4g2PY9FQhDTMDo6Rr0eDgJbd5utQWEF5VX9PChRvUDF5u1OEdPw/BpZ2n+H2f/rpnF8/KXQzy7a0ff34ah4Fc60S+AJD8JYBcUKRng1RMBvBFgWcebwuJ2JnkpHDAlmfaDfmPppf2Qw+Wk2PNwX5syeWBJzlMhmDsnY49vS9v7OrLqje8hcm+4egW0I3ayuj8Ng6t7f5fvdz1WlrYYqFRotCDgCD6hZ8mtkqcXO4odJMO5uhlJVOpuyZyJsAPNUfhiy+EExmNajdqlSBlPr01k/F5AAxSYPQZT2stKmyDqj2BrhIyCDKXxz2ukRUZnlAii1HIXagidhND2wJS055E6J6Zf5IkCJ7g27ssaCdL92Oqcq1weIMKkesOVZ0SzwcIIPBB5a7lnnPzHS9I3JRWjH0GiLt0dXVnQ5zmme235vaMt7A+8RvFdoiIAfCLCf2eWlCZuFyBKvH/imNUJKwN+5LyGFXujDYjdp5tV+Bt7V38zoYxePamqcFpSi30Lz0+d7Q4C1dZuwGGKNgl/HBni3K+Td/mh6eM9gU9pvTE7aKZCFD2JbH3qD/wUKVlzw9InoE5FlXIvQ/NzvoxKS8GtwDaoO1+8zFe79432PzWavLkvarw4tcmrFuaaSsRTueVeEKdzz2+nR0RHCi/w7U5N2UlXciTYtRT67Gt92ik2/9JBAOYyRGqiYjerj4Yf0YtNbsH/VjUrHa0ZIudxbfCzw0LyfXX2VEITZOjgr/D7oTNmq3kt+n6ZQ718xVs3TUWd7CRzNp6FWSSM6BGQwRWeuOz3SU3Hhs4nhc/Ayzq9M21LVN3XKS7/0hgAjTFWOQeLPvIYdWLDt8r8j3pvJabXVZoEH9n4Lw2B63qchBBGDEMSCCApBBMEQobOCLTI0RCDfBBh9PnRQ3M5GJPoUrJeYiqcRLQIymKI13x0eLS/90ci/vQy5uDOh7vLq9qzdviFlO5Qr3iEz/cJ9AjzfGOFkyo0fU0QpZaz6JbNmgYewGEvNZzKNwM8iVTkVQSGIrUh38/Ng2mAlDCbVL/l5lsK5b4MhIPlJOFNOLI7ZhP7xQKYeh3Nm8ntUMpjyy9v3n8YahGkD47gpZO2IwX3s/zam7DUUQzfKq+77uQvDDtJQoge5MQvhh5g8eH6cUxY23wKj4gT0GQnjaBaCWNvQaCshYR2VkcI15+fRiJsDa5g0RCBfBFjvfTLasVw/NmlTB5hvxYjyxSPqnyODKepnQAfHT5WyGZB3/uFBRU6PDnZVX16P/k2SU+6AmF52i8AWGEx7sjFDk3QNnxFgrc+N4xJ2EoylIAo85IqTx/mDaQn73vKsrYPIgEbhCfCesD4AdVaFJ6U96C2Bgbi5TUeJwifHMuMm3Pe63rKK0t/LYIrSbPfgWLko4uLoEBQ5PgUZ8rnbMlhAZJSW1AOW+pPcCNTCKGf6jYa/CPBewB5LpwZUDa+7NMf3i9s1ZQn79dqU0sC6C8+D99NXp3Q8D8Bqkx8RYJ0S+7Ox9cps/KPAg4YINBPQ6dBMQl87JcAbx1VYPByM5mzPVsbt+eq0kzoleddOsemXPSBQDZU8pt8Yyu81/EOguChmHxsdnUUEF0/HIx3n5ZoExHBUzFnoM5EpgxUqICz0NITy81kvW4ZU49Mh5nD2CKxzEF3SEIHWBGQwtSainzslcBgiTZP6cyERs7noDv9CdVOj0U7/SL8UgW4QqIErWZmf3QCWp7dSRXMGVKKiNEZBCeuwwRTBidkuhT0LOvXEL4XKgk5BKD+8P5onnT4sZrNhKB0GhzDT8TREoD0CMpjao6LXOiTAW8kQnDXHITXnIIhDzBqecVJW2CVeQwREILwETkS0JWqNXdmIcjoWUWUoqFtdH9651ZGJQBQJTB0Qt5tQk3k01jNUwvOjMmsU58WvxyyDya8z4/P94o2Fna5noSfB8UOL7J7yjM3ZnFLTW5/PWxB2j55kmd/+m6mwquJ1RZqLqtGINK2G6I1G4QhQqbVCjrnCTUCIPplO36vKknZ1aVwRpRDNq9eHEq38Cq9pRnT7u6FeNBoeWC4qNESgtwQqnRqm3m5Ff+8mgYEItVBOPIpjKBZX/Cfvc2FnnzVM6gtY2DkIy6ePRZNq/uPaRUMEciWgCFOupPS+NgRYZ/JmbcYeQy3TKzUZq0HDUQ0R6C0BStennZ4wepj1lqVbf1+GxUWUx3A4g1jasEdBpiifBjr2kBBYujNrv1jd6Ii6XAohm0NRm63SpZBMroeHIYPJQ7hh3vQqNHR8DBLjL1ZnbI36lIR5qnVsImANERc82I10MCmC6kIQgfAQoIP3yYqMrWwwO7E4YxeNStj4iDuGwjO73hyJDCZvuIZ2q7uxapiHm8w9mzO2AU0E+bOGCLhJYAS8+X2U/+Qm0l5vqzzitSM1jVJu7PVJpA2IgA8JrKjjWiZmL9Vk7SrUNJ0zIm599fzx4UwVfpdkMBV+Dny/BzSJ2DBwJW4sP12dtpWILmmIgFcEBuOuRHUyDf8QYIBp8faMoybln73Kz56sRQR9m3Lx8gO7k08p393JL/UrEegFAbYMWFGXtX9fmbEHt8TsKxOTNnVAk8S4HkW9ABuyP5XBFLIJdftwmIqzDDeSeZUZexIpePURT81xm6+2JwJBIfA80m8pvxu1sRLqeFqsF37Wq9WcrfCTEIE9eB/1Td9clrKLRiac/kzsP8deTRoiIINJ50CHBBhJWgBD6dmqLOqUMsrh75CUfuEmgWQsZno8uUnUnW29iQgTIy0jI6SGycj6uzuyVoWUPI3CEuiD+4KGCOSDAIWH7i1P2Wvbm1L0Ti2J2RS0F9CINgEZTNGe/3aPnjeL+TCUHoH63SoURKrDfbuY9KJHBEb2MdUwecS2N5vdtMfsWdwXripDh8eIDKYhv1idNgU3Cj/hY1SQX/hJiNAesDyb4lZ3bMra81Vml5cmjYbTQMnpRegsaHmoMpha8oj0T1wULNmRsbs3px258FrJhEf6fCjUwfeDI081t4Wi3/Hn0pHyTGXajhwSs2kDw+9tZXTpmaqMbYy44EXHZ0R+f9M/rihffonr00iA970lO802rmm0hVVxu2Fs0g4ZpGhnFM8OGUxRnPVWx7wHGg5roXg3B4YSU/DqVKfUipB+zCeByf1j1jfGxZEeSvnk3tVncUaWIL//Ltwnbh4fs1I0sg3rDPGe+AQi7A9tSSsVuasTI0+/59lGR4qEWfMEXB/TggBlyBfCgfL69kY7d2TcLh0Vtwn948iGaPE2/RBiAjKYQjy5XR0aHzyUBn8NtQmMKm3E9xoiUGgCg5DykFC9QqGnod3Ppy9lPtoKJGNpu2lcwspgNIVtUOjmGTiObluXMhpOGv4gkMTCdAiyQdUg3R/zEdW9oEP5/vK0vVKTsWuQnnxicdxxHikrIvxnhAym8M9xu0dY3WhObj5TTigXrIVBu5j0Yp4J0FtXhloFee3yDL4bH8fU3Se2sa4na1+bVGRDQ/QUoQroE1AD/dOG6BlLfhfzKIJtPrJvHAaTrNhuXK56q0cE6GC+bW0aDuesnTEsbieVxG1IiO6FHmEL9GY1vYGevp7t/Nu1GSf97m3UK9FbpxSHnnHUX7lPYDhWRYN8rClQjP1j0S/z2qM8ePhsYN03nrJbJiStOARPEkaWaCzdvjENVbzoze5Yn4sqsJk1BWE+rIve3OiI/UlgNxZPz0MU5v2dGXyN2ZWlCTtiiHL0/Dlbvd+rEDzmeg8hKlugiMPtG1POQqcSMrkylKIy88E5Tnq5/RyxGAJjCWnrpjWbGewLexJGk1nwjSZG2JmG90dElhh9j6I5PMHvBhPqGsf5fB+Dc6fVnrpFgOuoCrRbWID2K2xBcDFqm64sSyra5BZgH21HBpOPJsOLXXEuZhhHC7EYYLF2uRSfvMCsbbpEYBIEH0b6OB9vIvZveBEfkC4dcMA3w5YDcyGOQE/rZ8cnnZqmoFU10Vh6GOIOUa9ZOmaov2eOzUMpCMO9jKJBG/BbReh3n2st9qn73w1pewKOpOvHoL4JaXojkJWg+qZwTL8MpnDMY7tHwYjSYqTfcUHzGgoUI55F1C4jvegfAmxvMRoiAgN9nJLHXjDcxw/rFaFtPnMYaQqqEIQEHppmsQROgKk+b8wJe8lGIQI9GKsWtbxovvr01Y8EWN/009UpO7Y6bpcg4jQTaiWqb/LjTHVvn2QwdY9XIN5Nj+m7qE9aAEGHeRVpPVwCMWvaSdYHjYcHmQsjvw7WVx07NG5vQCiFfXo0mggEUQiiWeCBaXhRF705tcTHXor9LrIRcFaMh9OC8vYaIuBnArwnvlSdQc0dRCGGZ+3s4Qk7eKAEjfw8Z13tmwymrggF6PcMCW9Cyh0VrBYin3ZNQ8apMwjQIWhXI0yAqW5+r6Pg9Jw1ImGP4xp7X4u2Fmfr/kIQn0N6HqMWfh37CzywZinq4+QSH3sp9pscisLQqSKDaT8o+tbXBFjf9CBkyN+Gk+1UqOldPDrhREp9vdPauXYJyGBqF0vwXqS/bS4WcfejTmn9bjPWFsgHF7x5jOoeM8eb9UGsUfD7oCLctWOS9v3lWmm3nqsgCEEwmvR0xAUe9p83puJNHRgMZS9ee9zfvvGsUze3/3HoexHwKwE6k1YgjXvD7oy9gKgTnx9nj4iHtvG3X+eht/slg6m3BAv49zSIKG+8DCHfOzel7WXUKWmIQBAJNKe6FQVj3WazhsdtNh54VFbjw1BjHwE/C0FI4GHfPPE7OirOwLlcEpCVAPd3+qCYUQJ9FRagGiIQFAI8WxnZXgaJ1X/+sBFZCnG7fmzCDhoQswEo4PW/qzAopL3bz4DcJr0DENQt88H/QV3GnsWC7UlEltT9PKgzqf0mAdYvzQxY/4rPof/QjnTK6fjOdFiNfQT2F4L41LiEjUHtSaGHBB7azkAZ5uXoIZDK93PhYKvdPhDRsPH90kg5Vw/BVmj0Y4AI0MG9HGu480cm4LRI2IEwnILiMAwQZld3VQaTqzjzszFKVz68FaIOMJZUp5Qf5voUbwkchGJYvzfObE2gFIpdnxqbRJQ3Ze+hcaGMppaEGHljPWUjwHx9clFB+2tJ4KHl3PAnRmuOhpNiks/V8VrvOaPRMwbH7fXtWaujZa4hAgElwAbZd6OMgirGp8Fo+hgU9diLUMOfBGQw+XNe2t0rekipfDcfhtJiFBBGXdmpXUh6MZAELoCXLWijOT3olgkJ+9XaLCK+khpvPYc0mni/6pdIWaGEICTw0HpWmowlKnZdOApyx8G79Oyk4rjdj0L6OilVtp1cvRIoArT5lyO9dM2uFISE4sZn4YnFwYr6Bgp4L3Y21tDQIBdNLwDm40/puWbfl9shf8u+SpQzljc7H+T1GfkgwN5Gdx3RJ7DpCHzgsY7w1pWNtlp1Fe2eMn1hXZ43Mm63II2Rhfv5GnQqPYXWCr9ZlzKq4elh10R+MtJ/vje1yBjZDVA23kenDZ9/v1ibsnvhndcQgbAQoBNuMBwYJ8AhcC0a31LghK9p+IOADCZ/zEO7e8GHfWVj1uZsztgDW9QrpF1IejHQBLhY+/qkpF1eGkA3dyvylPT/5tJGW4emhXJotIKDHznX50Ao47OQHGftjNfrAN4/H9qStl/BWFI0vmk+uPiidP9Pphf5oq6s7VmS+ys0gK98c48x3VJDBMJGoA8EkC4bnbRryiDKghpf/qxRWAKJ73//+z8o7C7o01sT4P2fiy8qcP1qXdqeq0qrn1JrSPo5FAQmw4P2mfEJGwyVoKAPHsP0QXFbgULeSkUz2kwnl7VrkNCwA0GBAxDZ8HLOmYbHVEBGIWQsNU0FjaXp4P4PiCxNQYQp6KM/fCys512qfmhBn0rtfzsEuA5cgtrYd3dknMj4UBhNA+B1UsSpHVh5eimPyRF5OqKAf0xtyhx5cPYJeQN1SipqDfiEavc7JMCIw+nDYgUVA+hw53r4C6Y4fXFi0n4LR4eEINpCZE0TVT1TCMF5JQTBiMPj2zL2J6Qwy1hqmgMusmbAmGe9Hc/RsIyLUST/IvrabIaDUUMEwkiADdLXNaTste1xOxPCEEzXG6KVe0GmWil5BcHe/ofywrhnc8rers1aBVLxlNbTPie9Gg4Ch6KfyjenFNmBWMCFZwlnTl8megV/heiGhCDaP1dpLF8EwQG3hSAYWaKxdPvGtBN90DJ6n8DDl2DIHwZ1uRAEcz86qWgcswfhXzDf6of2ERZ9E0ICdHqMQJTpCLQB+CT6N7G+SSO/BGQw5Zd3m0/jA70G6TsPb03bo/hHTxlDsRoiEGYCFAG4Cf15WNgapgVc85zxGpYQRDON9r82C0G4ZTQxmvQkBB5+K4GHFsCDLvDQ4mBa/cBH5XIIrvxkVSPSl/TgbIVHP4aQAJ1NbMHB/k0Xw+lUXGShcjj6ecpkMBVwdrYi//o1pN3dAe/YWokVFnAm9NH5JEBP2XFD44guJQNfeN4VN9YifuuDRuf6VsS4LS0+/N0QgqCxJIGHlnx5nU3sH7MfHxx8gYeWR9b2p6cqMvbfaxqd2sG2v9UrIhBOAry+r0e06Xg8T0eof5PnkyyDyXPEbT9gJ3IHlsIr9lekErwJmXDl2bdlpFfCS4A39r+bnLQzh0UjpYCptj9b3ehc8zKa2p7XjDCeC2/ptWUJYzSku4N1nwsgjPNfq1Wz1MyOxhIFHv4ODYMPQepr2AdbbTCy+AiyNPQ8Dfts6/j2J0D1vBNgMF2O+yev+UFhTNnY/4AL+L0MpjzCZ471B1g8PVOZdhTwGGHSEIGoEaCE+JdQfN6P4YUIDKbnvYOapt+tTzuKRzKa2k46n/HH4KF/2ei487V/DucG76cfwvHENDwKSWyH4aTRVLPEWqXPQX3ycHzNAWUosG2AnP+PVqXsdWRtaIhA1AiMgiNy1vA4/iXsYDhJZDe5fwbIYHKfabtbpMwwU0YWVGWgeKKoUruQ9GLoCYxD7vV/H1Jko9GHJ0qDi/v3YDTdJiGITqd9DM6LI4fE7RREH/m1IzWoxVgUvwB1NH5di4WyogpNWBlZOhhe5i9D4GFGyAQeOj1x9v6SdUzfXdboCH7k8n69RwTCRIDRpgn94zYb/e4uQNR+GOqbNNwjIIPJPZbtboneZNYp3bY27fRWooqThghEkQAjSv82LWknl0QjFa/1HEsIojWR9n+mZ3QQeuwMxDfTkKJ3MOSw++GUgXCoI4rzLtKY2dCbaVgylFoyDLPAQ8sjbf8nPm/nItr48zVp26VnbfuQ9GroCQzEs7YUzqcvT0zYsYjc05Gi0XsCMph6z7DNFmgS1cOlTEnhOeUZ9FVKW6OyBNpw0gvRIcDF781QxbsEKVdUR4vykBBElGffm2PnJRUVgYeuCNKIfgppmr9GNLdGaZpd4dLvQ0ygiPVNxQm7uizu9F9j49toP317N9kymHrHr81fM/WGMqfPok7pSSj3VKhOqQ0jvRAtAqxHYYPJG8clrVgN95zJlxBEtK4BL4+WxlKUBB5yYUlDaQ56Gt5fnjaKgmiIQJQJMNrENL3ThiWcvoeqb+rZ2SCDqWfc2v0reo4XQa2JEqcsRqbxpCECUSbAnGqq4X0KxhI94BpNBCQEoTPBDQI0lqIo8JALuyrUDf+tPGUPwGiSIEguxPSeMBOgkTQN9Y3njUjYGRCHGCkZ8m5PtwymbiNr+wesS3p1e9bmQtL0HeTX70BuvYYIiIBBpStm35laZJNkLLU5HSQE0QaJXugGARpLURZ4yAUVDaXnq9NobJu23ZKnzAWZ3hNyAhTSmTkkgca3cfRDjFkuiqQhR5Lz4clgyhlV2zfy/rsRUaU/rE/ZqzVNhpLuyW056ZXoEWAsid3If4KmmVTG4+JOoy0BRpqYwnvrypStqlehY1tCeqUjAlMGxO17U5NOig2yXjU6IMD64YVQVLxtTcpRz1PiRweg9HJkCPB5PBjCOscVx+2z45POM1q3kK6nXwZT14zavIM3YKo0USb8Hog6SI2nDSK9EGECFHWYOSRm30Bz2vEwljS6JiAhiK4Z6R1NBLjYkcBD984GOjKX12ftjxvS9gZUa+uloNc9gHp3aAlQvfbGsQk7FzVOw4tiRqEIjfYJyGBqn0u7r/Kmuw0iDq/ihktjiSp4iii1i0ovRpQAu4yfgZol3oAZYdLInQCFIH6+ptH4VfeV3LlF6Z00lg5BU8qvTypyvkbp2N041nJkhPDZPQ91xnRSaIiACDQ1u2Z67yWjE0jTa6pv4r1GoyUBGUwteXT4E6VKFyGsPx9ypYtr0QNEig4dstIvokmgBE3yLsUN92OjEk4PiGhS6PlR0+n9Lprb/nZ92vkqo6nnLMP4l1zAUODhlvEJ56vS8Ho2y8wIeRXP8Ee3Zux1OD/VG7FnHPVX4SNAh+fRyA45H8/wE2A4UbRJYx8BGUz7WHT43UrUFtyH1LsXYTBtlUx4h5z0i+gSoOLO1yYl7VjkRDM3WqNnBJqFIH6FHjJLFcHuGcQQ/hWNJUqHf2li0mbAaJIscO8neeOurCMI8TgMpxUNiur2nqi2EBYCYyBDzvqmy0vjNhW1khpNBGQwdXAmMFhPhZ1HoXz3GDqHb8DNVc1nO4CllyNLgAu5E3FjvRmFo1MHxExe796fChKC6D3DsG1BAg/ezCgzR9grkdkjczanbQu+V2TXG9baarAIsJaJgk0XjEzYhYg4DYW6XtSz9GQwtTqHebOkLPgrUL27fWNaylWt+OhHESABhuon4mbKFLzZkCcdKEvJ9RODNRbf/iBlaxoyWsS5TjcYG6RDYlL/uP3o4KTR66vhHQGm5s1BJglrnCjqJAepd6y15WARYH3TtWORQYI0PWaQ8L4UxSGDab9Zp6H0PmoI5qMgdF5l2uh90hABEWhJgMp3J5bEHWNJ/ZVasnH7JwlBuE00ONvjokQCD/mdLzpMKeZEo4niThR5UsQpv3OgT/MnATpJzxmesHOgpncohGcGRjAvWAYTzk2mwKyE5OhTEHRYWJWxzfDs6ibpz4tWe1U4AoPgWToB6XfnIkRPJR3Jj3o/F7w3SQjCe85++wQaSxJ4KNysUNSJ4k7zsCZgup6iTYWbC32yfwjwvsQ0vdOhhHsWjKeopeFH3mBi9++7N2fsWUSU1u0y9VTyz7WpPfEJAWbb0dP98dKkHQUFHfZqiGpIvhBTIiGIQlAv3Gfy2pLAQ+H47//JFHl6AU7U+7ZklJ6/Pxh9H2kC7N00oZ/ZmTCarimLG3svRmFE1mBiBOkl1Cndtampn5Ia2UXhdNcxdocAb4EMu19TlnD6M7DoM4JR+O4g8+y9zUIQ/74yhWi4coU9A+2DDVOV6rtTk3Yg6gZUGlj4CWF0iaJPFH/iv5pGMywfNEQg8gQG4AY1Hc5U9l08akg89I7UyBlMLOxcWW/2t/KULYDnSHVKkb/mBaAVAS7SimEcnVCcsJvQ80XF5q0AFfBHCUEUEL7HH00nrQQePIbcy82vgrOCYlAUhWLNs1L3ewlUfx4KAqxvYsP6K5CFMnWAWf+QenoiYzDRQ7sWalPPVmbsYfRdYDGnhgiIQEsCQ2AozYSn6EIo31ERh6F3DX8RkBCEv+bDjb2hsSSBBzdIer8NpvFTGOop/HsfAhF1amLvPXR9QiAIsB/jxaPidvaIhFPrFLblQyQMpkqE0BeiRulZRJQWQ/lGQwREoCUBptodhBQg9lygAl6pJIxbAvLRTxKC8NFkuLArNJYk8OACyDxugpElpulRJOppCEOsRONbXpcaIiACZsdDHOpUrCNOR43T8KLwEAm1wcR0u1dr0jZ3W8bers1YLRrR6p4WnpNXR+IOAXqFLoRX6Ayq3vRX3YQ7VL3dCp3aS9AC4ba1KVsKL7dSg7zl7dXWaSxR4OHLE5N26OC4agS9Au3RdnfBSqJYFEWjKB7F6JOGCESdAG5rxmyVI5CtchGyVY5Dej/T9oI+Qmkw8Z7FxnO/wmLiVeQa1yrXOOjnqfbfAwJMtzupOGZXl+3LO+aNTiMYBHifW452CLeukBBEMGas7V5S4OF7B0DgYYCUJ9vSCc4rFI1aujNrf0Z90xtwzspuCs7caU+9I0CH0BC0I2Gk6dPjGG0K9n0uVAYT1WzKUZu0AHVKfytPq07Ju+tAWw4wASrfjetrjlf7aNQpaQSbAPvGfeuDlK1BjaYWasGYSy4kKPDw44OTVqb012BMWg57yQjTgqqs3QdRKYpLUWRKQwREwIyZLFeUJmzW8LiNxj0viIq7oTGYKmAovYL6pLkQdFi6U+p3ukBFoDUBhsQnI+VuFrw9F45K2LAQ5Ra3Ptao/SwhiODMOI0lCTwEZ756sqcUlaK41HzUN7HWSXZTTyjqb8JGgGsQ1mteiFrpE1DjRDXeII3AG0yMKi1DDv89m1P2Ogym7ahT0hABEWhJYBS8O2ePaOrOPQ01E0H07rQ8Iv20PwEuyN5FTdPv1qftHXxVpGl/Ov75nsbS4VgwfA5y/Vw4hE1Fyj+k/bEnlB9fVJ1xRKcoPqUhAiJgxp6OJ5Uk7OOIOB2KPk5BGYE2mNgH4eEtaZuHZnLM5dcQARFoSYAeHcqDXzcGgg4D4zYY+cQa4SQgIQh/zyuNJQk8+HuO3N47rkooNkV13kexTuFX9X50m7K2F1QCVOa9CNkusxFxCsLaJJAGE29CayHj+Yf1KTSQyxoLLmUuBfWS0X57QYCLs8mokbgRhZbswK30Oy8o+2+bjCxJCMJ/88I9ksCDP+clH3tFZ8ZOOHjZ3uSPG9KOKJWiwPkgr8/wMwHGlgYg3eX4oTH77PikTUTJgJ/jTYEzmOideRFhbsrpbkJusIYIiMA+Aky1G4+bzrloHHcB5DxHIBVPI3oEKATxbQhBrJYQRMEnv9l58SMJPBR8LvywA1tR33TPprQ9DXGqKqj5qu+tH2ZF+1BoAmP6xeyrk5J2AjJi/CpBHiiDqQo5wM+giPK2dSmFtQt9duvzfUeAyjPHIJp0RVnCaULrux3UDuWVAIUgfrGm0Zbgq7zZeUX/0YfRWGKO/tcmFTlCDx/9Qt9EmgAdv6w1fAxpeq/BAaz6pkifDjr4vQSYlvcF9KQ7bZg/RakCYzDRKzNnc9oe2pKxOknO6AITgY8IUCb8aBhKsyHqcBw6bA9SndJHbKL8jYQgCjv7NJYk8FDYOfD7p1OkimJVD6ANCg0oRZv8PmPaP68JsOHtxahrunpMEn2bvP607m0/EAbTeqTe/R/yfqk2s1N3lO7NsN4dagLM+f0EBB0o7DAa6XdcpGmIQDMB3i6XYCHGFOalUBNVpKmZjLdfeR1K4MFbxmHa+qr6jL2MeuyHt6ZtHeqzNUQgygTo9GWz20+OTdh4pOr5ZfjeYGI/g5+uTuFmInUZv5w02o/CEuDtYwD0iM8fFbfrYSyVIMJUpP6zhZ0UH386jaQPoSL6/1awmSZygTQ8J0CBh+8fkLRpA+TE8Bx2SD6AaXpr4Rz+GzJpnqnKWD28HTKdQjK5OoxuE2Ad0wnImPn7yUmn6W23N+DBH/jaYGIz2h98mLI3avWQ92DutcmAEaDXegg8L8fiJkJDiYsyRZQCNokF3F0JQXgPn9cj1Skl8OA96zB/AusP/we12st3IqsG6noynMI82zq2zghQ5fcH05K+ELDyrcG0EZ6WXyON5Fl4WjREIOoE+mIldgykN8+G+t3JxTEbRDk8DRHoJgEJQXQTWDfeTmNJAg/dAKa3dkqgDhGmR7dlbAHWQMuQTtug2u1OeemX4SUwa3jcvgwxiFIIWxVy+NJgomLM/6LH0uO4WexW0n0hzw99doEJIPPOpiCSdDZuGGdD1KGswDeMAuPQx/eSANdc76Gm6bfrm4rMdXvtJdC9f05jiQIPt4xP2Ax85XWrIQK9JcAaxLVoDbAAEuQLqrJKqe0tUP19IAn0ww31IpQg3Di2sEIQvjOYKOpwb3nG7tqUckLRgZxd7bQIuECgBAoxsxFRmoXiR3bE9mtvAhcOVZvIIwEuwiQE4R5wGksSeHCPp7bUlgCVgdfvMrsX9U1Po/kt6500RCBKBCgEcQMMpitK49a/QB4pXxlMfJDPQ5+lX6xJWS3kNjVEIIoEeC+YibzdG6EQMx09XCjwIId1FM8E7465WQji1pUpW1Gn1VdvSB8wMG7fmyqBh94w1N/mRoDrordr03bnpoy9h/omRYhz46Z3hYNAMSTHv4qedsy2KURVgq8MJvYh+N6yRjVxC8e5raPoJgEaRmMhoXkVPCgXog+Bhgh4TUBCED0nzMiSBB56zk9/2XMCjDg9ujWDf2lbDRlyOps1RCAKBNib6daDipwU6Hwfr28MpirULX132R40b9OVn++TQJ9XWAKMKE1AP6VZw+J2/siEU9jIxZiGCOSDgIQguk+Z16cEHrrPTX/hLoFNEMf6y6a0LUbz20271WfNXbraml8JHD44BiXSPsYmt/kcvjCYGpER8luIPPwVF76GCESJwEDElS8cGbdTS+J2GIrFVacUpdn3x7FKCKJ780BjSQIP3WOmd3tHgMJYr2/P2nyUM7xYnbEdWkZ5B1tb9g2Bm8cnnfYq+exB6QuD6RkowPxstVLxfHMmakc8J8D826OHxu2S0QnIhceNBY0aIlAoAkzpeR81EbehlQMjTqqNaH8maCwdgrpCStweMqgwefTt75lejTIBXq+VjVl7szZrD2xJo85JdYlRPh+icOxjoBj8rSlJOx59KfM1Cm4wbUEY+T9XpexVhJT1kM7XtOtzCkWAC67SPjH7BBrPno4UvGFFMTWfLdRk6HNbEOD998P6rEkIogWWFj9I4KEFDv3gMwKMFm+HMMQjqG26d3PKavC91lU+myTtjisEuJY6EcbSNycnbXSe2q0U1GCiNOYdSMO7fWNKMpmunELaiF8JsE6JxtF5SL+7sjThi67VfmWl/SosAQlBtOXPh7MEHtpy0Sv+JEAjaQ36N923JWMvoPFtBaJPMpz8OVfaq54TGIiF1afGJSCUlbB8pOYVzGDC9YxeIFn78apGx6vZc2T6SxHwLwEutGgoHYEixfMg6HAyapU0RMDvBCQEsW+GeA1L4GEfD30XHAK7EHJ6FfVNj29L2+tI16uTnF5wJk97mhMBtl755uQiOxhfcav2dBTMYKIs5h0b006EiWFkDREIGwEKOByJfkrnoGfA8cUJGE7m+QUdNoY6nsIQ4D35PbR5+N161EPga1S90zSWjoAYy+fGJ2wGvjJSrCECQSNQCRXipyEK8Qya3i5BjaLWXEGbQe1vRwR4T74eJQ7Xo28lI05ejoIZTCvrM/YPH6QcKUwvD1DbFoFCEBiJOqXrcBGzIJG9lQrRZK0Qx63PDA+BqAtB0FiSwEN4zueoHwmv59VYdy1Ait4j6OFUsUee6qifE2E5fgpA/OfBSZs6wNsMnoIZTFRjugv1S7pkw3LK6jjo2+gPDwcjSsyppaEkmXCdF0EmwMjSCghB/L+VKVtRFy3lLQo8fH9q0g4YIGGWIJ/D2vd9BLjeYpreBvRv+tOGtD0PGXJGm7QO28dI3wWPANdeFNKieqmXoyAG0070Cbh48R7nwvXy4LRtEcgXATZQYx8lXrRM4fE4Mpyvw9LniIBDIEpCEIwsSeBBJ34UCLwEg+nPEN1a2WBWjxCUDKcozHo4j7EYa7A5R/X1tEVLQQymuzen7ZdroHepIQIBJ8AIEj3QF0DQ4VxEltiIVkMEwkiAQhC/XNNo74W4TxONpRkoHv7qpCInHS+M86hjEoH9CWxDat6TFRlbiPqm5YgmN0YrkLw/Cn0fcAJ/NylpV5Z519Qy7wYTu1B/4/09TuFhwOdGux9hAlxYjUPK3ZnopXTmiIQdCKNJQwTCTCDsQhC8piXwEOYzWMfWEQFe2+zBNg9qek9XZmyr6ps6QqXXfUzgKIhs/Ri1TCyN8GJ4m/DXzh6/vT1tTO/QEIGgEuDFOBvRpPPw74CBMc+VWYLKSfsdLgJ8Bh2KdNNbJpjdtjZrjDiFRT2PxhIFHm6ZkMBXpdSG68zV0XRFgNf2wXiWjeuXtGOLM/bQlrQjR95AS0pDBAJCgL3H3oR8/kklITCYeOktrjVjDZOGCASJAC8/LqqmIZL0mfFJp68S0++8uSyDREb7GiUCzDidAYOCfS9uhRDEhyERgqC6EjvGS+AhSmezjrU1gUHIZjpuaNwOhODJa9sz9he0flmLRajsptak9LMfCdC2eA19x04s8aaFS15T8jZBmYUP2TdrlSTrx5NN+9Q+gb6wlCb2M7tgVMIuHIU6JY/Cve1/ul4VAX8SCIMQBJ0gEnjw5/mlvSo8AZZQPFCetoe3po21TqpvKvycaA86J8Del9+DuukYlEy4PfKakre0rknO0u2D0PZEwCsCE/rH7ET0UroIhhIXVlxgaYiACJiVoffFd/Fg+kVAhSB4LVPg4WsoFOaxaIiACLQkMBgRp0+iIejRiDo9gjS9l2vQv6kxPKm4LY9WP4WBwEYEZpahHi/QBhM9E2yaVo2LTUME/E6AdUonF8cQUaJMeMz6Kark9ynT/hWAwIGoe/jChKT9bn3a3t6RCUxNE42lZoEHHoOGCIhAxwQOhWNhQv+kHQeD6Rmo6b1Yk1VbmI5x6TcFJFADefz1DU1GvdsO7rxFmLbzIGD5sdu0hgj4lUBz8eulaDzLXO6RfbSY8utcab8KT4DXS9CEIPgQlcBD4c8d7UGwCDDadAZUYWk8nQBhCNY3cU2nIQJ+IrAHwRmel0wnHeqyhePy5jrGVtlotg5Wn4YI+JEAF1FsfPaJMUk7e3jchsNQUkslP86U9slvBIImBCGBB7+dQdqfoBDgc3I00lfPQ9/BI1Ar8iDqmx6DFDkXp2FRzAzKXGg/OyawHkIl23ZnYDChUaaLI28GUxUKBiUn7uLMaVOuEOADYFhRzI4eErPPIbVItQyuYNVGIkaA1xFT2354UNL+YVnKSb/2m7JWEZ6dk1EI/B/YR13nETtBdbiuEqCTZDyupa+g/m82jKe/bqKYV9Yq1L/JVc7aWM8IsI6pOtWzv+3sr/JiMPHByUZotR4cQGcHp9+JQEcEcL+3wTj7Z8JLdgFu+CdA2KGPu86Ijj5ar4tAaAnQEPk+hCD+uD5lr2MBVe8Tq2kQVngnoibx0+NkLIX25NOBFYTAQXCUfHtKEoIQWbsfESe2GlDrmIJMhT50LwFmtG1Fv1dGPenMc2vkxWDajb0uV7Nat+ZM23GBAKUnZyH17uSSuJNi4MImtQkREAEQmIYFFD3PcyFF/GRFxrbg3l+oZGw+K5lCdP5IKl0mrFRqeDpHRcB1Amy1cdbwmNPH7IXqjHPdr4TIl9L0XEetDeZIoAJGU2M2a31j7llMeTGYUtkYIkw5HqXeJgIeEuDiafaIOBZQCRuL75mmoyECIuAeAT6exiJd59qxSTt8cMYegeH0ErzPdJzlc7B/Gg2ls+AYORDNdlm0riECIuAdgYlow1HaN+5kbjwLNb2HtiLaJKUv74Bryx0S2IC0vN2ZmOF0dG3kxWDagwclU/I0RKAQBLiAoyz4cUNjdgMWcZP7m1E2XEMERMA7AjRQjkeqK1X0qFr0XFXaXoH3eSOcZ40eGU9FMJLG9sHnInJ82rCETULD6QFIx9PV7t08a8sisD8BOiqmDzKb1D9hZ41I2I9XNSJNL2vMztUqcH9S+t5LAnUw1N3OCI81NHgvXUexh29+0IhCYF0uXp4g2nZbAjSMpiNF6Ho230ManiJKbRnpFRHIJ4Em2dcMWky4a8YkY1kUoqsWMZ9zqc8Sga4I8Hp/pjJj95anbG2DWQNWsVoJdkVNv+8tgckDYvaTg4tcFfjJS4SJzsR6yE5qiEC+CNAwmoL0gBPhaaZUuNJx8kVenyMCnROguAqlvd0f7hpg7u+ftigC0SPA6/08pMYeNrjInoAE+cLqrK2AMISGCASNQF4MpkYYTJVKyQvauRHI/eWSiXVKZ6LBHtMBKHVMCVQNERABERABERCBwhBgXeONUKk8amgGhlPMXqhOWxUK8zVEwAsCtDkaXbbL82IwZaBUobo/L04JbbM1gTNR4H3Z6IQdhCLvQSrybo1HP4uACIiACIhAQQjQeUmF2smIMFOh9iEIwizenjGm7WmIgJsE2MYoBdvDXKxgzYvB5CYEbUsEWhOgfsOk/nGnTukk3IRpKCmo1JqSfhYBERABERCBwhMoxsrzFDyrDxkUs4VVGZuzOW0b9/bNKfzeaQ9EoH0CMpja56JXA0CAudEM889G6t0liCrxJqwhAiIgAiIgAiLgbwJsKDqiT8wuL21S0/vduhTaD2Sc8g1lJPl77qK6d1piRnXmA37cw4vMzhiesHNhLB0ML5XqlAI+odp9ERABERCBSBKgs/PraHZ9ei3rm9L2GtL0qlHfJDW9SJ4Ovj1oGUy+nRrtWHsE2FH8qKFxm4VapVNLYjaA+XgaIiACIiACIiACgSXAjBH2bTtwYNxerknbfEiRv4S+bRoi0BMCbCmTiLm7PsyLwcRmgiWICNBjoCECPSHA8P1k1CldURq3Y3FTLUUon69piIAIiIAIiIAIhIMA14rMHDkMDa+PHsL+TWnbgvomDRHoDgFmIRW5vEbMi8HEdKmh+F819cU1RKAbBGgU8fz5RFnCPoY6pZG4AtR8thsA9VYREAEREAERCBABPvfHoT75CtQ3HV8cs/vKMza/Im116OepVWSAJrKAu9oHJ5HLASbLi8HEFoV9+T8NEciRAG+YzGuml+kz4xJ2AML0GiIgAiIgAiIgAtEg0Nzk+ttTmtLw58Bwent72nbAcNIQgc4IBDbC1A+5hBP6x2xZnXwDnU2wftdEgHVKMwbH7PyRCfRqiBl/1hABERABEXCHQAaP4nqUh7D/zW78UAdZsmwrdyz6f9sghPd5+0XbHEX23UGvrfSQwDGoXT4cDtT7t8TsaUSbVjfgHE5rTdlDnKH/s+F9zBhlcnPkJcKURBB1mNvJhG5S0LZ8Q2AKnsyXjmqqU5oII1tDBERABESg5wRoHFUgHX7zLvzb3fR91Z6s46XfhQXn7mzMavF7/rf/oKAOe9oxJXoInt9D8H0xvvK+zDqTUlhUcmbtT0zfe02AESem6VH4aVFlkzDEepzXPMc1RGB/AsNxr0rEeGK4t47Mi8HUFzfe8chH1RCBjgjwAXzmXplwNrNTUKkjUno9HwQasJDcusesce+TOI2b7hYsMgdj0ch/HHTIl6CgbhjOXQ0R8BMBnr/LkdHx3s6svbuDEs0wkND5vhaRpPpMzGgodT1avoe1o3yMl0BwB/o7OPdjEOKJ2SHw+h+LBeyQvKwmut5rvSPcBGjAHzggZmP7JBwBqKcqMnY/hCE0RGB/AmVw6PQNZIQJJzgblNE7wBQADRFoJkDpxyOQfnftmIRNh6FEryZOFw0R8IwAl4FZ/I/NERvxTSUMo6VYXC7dmbEKGEXvY5FJOynFN+0d/C6Fexfvv/sb85Qt5c9soDwa97hpA80OQJR0Mv4NTGQtjrM5ifuezulmkvrqNgGem83n63s7so4c8zs0knAuM3rElLu9dv/ej953XndnXxpx/lPodkdD09/HEJF6o9bska1pG4xV7DTUmZ6Jdg80nuhU0HnfHbp6b3cJDMQ5dxjWDlNhPB0/NGZ/3ph2nAT0BfTsDO/uHuj9fiXAVOJRSMmjce3myJtPiAbT+H5xW8nEaY3IE6ChVNrXIOiQtFNK4o4xHXkoAuApAXrVa+BlL4dELesp30aTxDfxbzte6/loejRzm87Yxv+nHcN/XD+zQ+F9Pxky+PR2DcM9kAtJl51eTZ+r/0eOAI0gFr+vhwHzBs7jx9Hwc+1eY2YfDO+WjtwyHaDwN9hOXFubd6ftuaq0sdj65JIEalDjNg6hqBKsMnTO75sRfeceAa6HmRZ66rCEzRyasKdwDcyFAb8a14Gc8+5xDtqWmC48jBEal0esoaHNHdblj2ja3Ebkmf58TcpeUCMyT/gGZaNM65gAw5liDh8blXA880HZd+1n8AhwUbkNnvZV9Vn7gEYSPO+MIO1keClPg4vFMbiBHzkk7oiZsAaEKSUUw9EQgZ4QoJFPY5+NPV+pySB9NH/nc677y/P7JEhCnwSH2KGDYDwhCqtTPld6el9PCayoy9hj2zK2CNcG150a0SNw5rC4fW1yElEmd5+xeTOY6N397fq03bNZuabRO32bjngoPI1noyHdWUjbOHigFoxRPQ/ycdw0lNbhYcnF5FtYWC6FkeSHRSVzqrlwPAopJFR8Yjoqo+8aIpALAUaU3tieseexGHypOm1VAWgGz9Sp6bjfnwbD6TxEnZguoyECXhJg+ujLNWljfdOreAZIhtxL2v7aNh2U16PE49PIXnI7yJS3lDx6m6bAq8rC0NpepcD4a3K0N7kROBp57dfhJD4Ynkb2V9IQAa8IrEPQ/L4taXsXhtIGGE1+anbIepKViHZREndBZca5J86CA+Fs/GOaqoYItEeAdRnvITp6L4rbl8D4Z9SUToEgDEqWv76dIhQZe702YZeOjtvRiLaqAXkQZi+Y+8hzi2mhB2G98QbOvfvKU06GAa8jjXATYNo7RebcNpZILW8RJn4Y6wZ+uLJR/ZgIIwKD6z/WblxeGkdUKeFIyyuXPQITX4BD5OKR9UkP4MH4ONIxtkEVjF5Gvw9eDzSURqDu44sTEnYc6p2KICSh68TvM5ef/eN5Te/4HRtTTm3GTnwf5EUfz2s6zE4oTjgONPZnlJ8gP+dSVD+F2de8bljbdCeuI15PQXE2RHXOenPcByGa/Z2pRcavbo+8Gkx1uNP/x8qULajK6IR1eyZ9tD0+FFmzcTrySC9HzwQW4GmIgFcEKLjwGtKU5mzOBFpUhgtHSupfXZZ0+oyw740MJ6/OGv9vl5GZxYiS/n59sM/rjkhTHOLy0qTNRpoeaw2UqdcRKb3uFoHViO6zLOQlpOlVwakWZOeDW0zCtB0+L89BtsZ3YTB5EcHOq8HEiXkAKQW/Wddk5YdponQsTQTYk2Ym0i0uG50wpuFpiIBXBOg1pNLdg0i/exUGUxAiSrmwYNryaVB9ugALSV5LGtEiQO/3ZjgBnoDi10Nbm6Tuw0zgKJzjF6JZ+TF4XrDZpJwEYZ7twh8bHfeL8bxw6puQrpdPAaDCH32494DPzq9MTOJ+Am+jByPvBhNVS762tNE2Sb3Eg+ks3CbZP4k9ESjocBJyh9XMs3BzEfZPpmHE9N756PT+DOqA2DspjGMaaj6vKEsgUptQU9AwTnAHx0QVx9s3pOy12qyxAW0UBhc6JyIdlfV8TEt1u+FkFBjqGLtHgCJAzyPb6ckK1Luif5lG8AlMxjPzZ9OLXFfHayaTd4OJ3rMfrmrKx27eCX0NNgGmU7DxLOVj2bzTi1BosAlp790iUAlVsIcRUXoahtKGXZnQ99pgvccpMJgomEI5co1wE3gdnu9frk1DBj96aetMSeXz40Q8R65EKjfrmzREwEsC9EesxrU2H88T1jgFQXXSSx5B3/alyGz69hQ8ND0aeTeYeBzLkUf66Xf2qI7Jo0nNx2aZNsGc8/MgE37d2ITzoPNClSQfx6LP8DcBOllYuEuZ2NuwmKyA0cQ2BVEZdECwb9PN45NOLyc5JMI38zydH0UK3p83pJ10vPAdYe5HxPO7FIbTVYiunjsyYQPws9L0cuend3aPAJ8ku3EBUrn0LxCFeBVpeozsRucJ0z1efn037xF/PaKPp46WghhMBP53SMtjjxSNYBGgz28wDPhD0UPmE3igsRmnVI6CNYdB2Vs+sOphKb2HFKWHEFV6EfeLKHdvZ5H89XBO0IumlKWgnMVd72c9FmePoVbpz1isMYKq0USAzxX267t2LERQ8JxhHz8NEfCaAJtB/xEpsWt2mVF4RSMYBE5GZPrHB+Mh6eEomMHEgrt/h8R4lBdAHs6rJ5tmROkIPLjYRfksRJb0APMEsza6lwDzyl9Ec07KhPuh6awfJoZR3C9OSDrXHw0ojWATYKT0UZzff9mY1jnewVQOhOV09oi4zca/Q9FXR5kMHYDSy64RoOPiETjpnqtCeiz6+mmd6hpaTzY0CBoP/3ZgkR2P+kcvR8EMJhZq/9sKFLYiZ1vD/wTGohHYOXhgnYN+Siys0xABrwjQOGJT18eQU74SDyusKTX2I0CBlUugKvYJ1DWNQOqSRnAJ3AuJ4zs3yVjKZQZZw0dRCP6b3D+uNL1coOk9PSZAI2kFykcWwmiig38LlCs1/EmAa9NvTC7y3IlfMIOJkU4Wbv/XqkankZg/p0F7NQhhJfZTOg8nJHvEsMmmhgh4QYAPqJfhQHkQrQfe25Fxmg168Tlh2Cavy4thNF07JilFyoBOKGuWfr02ZdVKw8t5Bvvh+TOlv0FyP2HnQ3Zfz6Oc0emNPSRA2XGqss4pz6CMJK1oUw85evVnVGT+1pQiOxUpeV7XOhbMYCI8RpluwwNjHqx32e5enU7d3y5NoiQim8wf//S4pM3Yayh5fTJ2f0/1F2EgQOfJ2oamtCTmj9fBcFIn9q5nlnVMl42O26dwjVKWWSMYBHhus2/YT1an1F6jB1PG5xOjrFOR6fBl9Fw5EM8pCkXIldcDmPqTnAjwmq1F3z+miN+1KeM8r1TelBM6T9/ENSlTdb80sQg93Dz9KGfjBTWYuAfMEf3lmrRtUrjT+9nO4RO4CBuP1AdGlD6OxRg9ehoi4AUBRpS2wWnyBBwmTEuKkvKdmzwpOf7Z8RKCcJOpV9viwuttRE9/jmfeh/QMaPSKAJ9Ps5GidwmEUCYi8sSIk55YvUKqP+6CQHNrC/YAXA1Hn5x7XQDz6Ne8ztmr8O8RXWIP0HyMghtMXCT9dn3GHtiSUqgzHzPewWfQUh/bt6kHxgXoknwAjCa+piECbhPgA4Z1Si9D9e5xpCUthQqevHU9p8wi+K9PStrHcN3Kv9Fzjvn4y/Vo2P7fkManp1oLLXeI8znFmiYKQ5yGtBzV2LrDVVvpnADb49wFZcs30WBaokSds/LitxSDoWosHYYUJMvHKLjBxINch8Luf/wwJY9bPma8nc/ggov9lM6Ap+4wpN8NzNfZ186+6KVwE2BUifLg82AoLa7NWG0q3Mebr6Nj8+hvTE7aaag31PAngTo4BxlJvWdzxunz4s+9DO5eMTvicHiaz0d9E5uoK001uHMZlD3fgTS9V/k8Q5YEm06zRYBGfgjQOfLtqUV5reH1hcFEvE/ihPuXD1X9mp9Tbd+nTIeBdDm6qp9YnLCSPOSA7vtkfRc1AiuQgvQg+s28gDolpuLJw+7eGUAvO2sNvw6lINYeaviPAM/7W1c0Wo2cBJ5ODovAZ6L9BZ9rh6NfoKKunuKO/MabMyboALwT7QHWIACg4S0BOkP++5AimzYwvw5C3xhMjfA8/xRFsHPhedZCytuTjYurEUUoGMcDhUpDw/G9HireMo/q1nktc4H4VEXaaT7LWkVe6xruE+A1PBuR4s9PSNhIyY27D7gXW2Qk9Zb39qBYXIupXmDM+U95LRRjUcV+gddSfh/POD73NETAKwJMK9+B6/wPaHr7NJ53OxF90lrWfdoUePn2lKSdj2s739e0bwwmYmUe6D8ub7QlqGnQieb+icaTiw+RU4cl7Abkfo5BzZKGCHhFoAoB47fgdbsdDxDme2t4T4APk8+NT9oVpXFjipJG4QkwDfV/1qWQiocVlEbeCbDB+pdR43c0ok50JHh6C9sAAEAASURBVMg5mPcpiNQHcu3K/k23o76Jzz86DLWedecUoMjLdWVNPQiplJnv4SuDiScV5VZ/sSYlT5zLZwJDmDORnnAmrPJzURyrIQJeEWAeN4Uc2GeGSkJcMGrkjwCb2f7rtKSTlpS/T9UndUSANQ7/hlQ8qmtpFIYAHQlHwWC6GGp6R+Irjaj8L7cKc+z61MIQ2A5DicJG8xBtegPCEFKB7d088Bo+HXVLn0crgUI5+31lMBEnF1tzUedA65weao3eEeBJduiguJ0FQYdTURBOD5seFL1jqr9unwAdHivrM05X9EWo19gARTB51tpn5fWrJxTH7YcHFRkFXTQKR2A3LoCfrk7bE3AeSAmycPPQ/MkURzlmaNzORSr6sfiqIQJeE+BzkI7Dp/FPrQR6RpvBpKNxvX5hQtIOKmCNru8MJuJkvvcdMJju2yI1oZ6dXk1/xajSVWVJx1gqQ/qdFk+9oam/7YwAvWePwNExd1vGUb3kQlGjcASYjfdPBxQ5Tf0Ktxf65GV1WfvhykbjVw1/EOC1Ma5fk5oesy1KlZruj4kJ8V7w+biqgeJmaXsSzhOpw3Zvsieizc2/HlhkUwvc7saXBhNRMtJEzxxPMK29cj+5GD1iVOlkeJivG5tEN3RTLUPu+PTObhDgEpACDu+gEecf1qeQt9103XZjE3qrhwSoIPSz6fmVXfXwcAK3aV4ff0Pd0u/Wp42S4hr+IsAaPza7vbosYSeXJGyw0vT8NUEh2xveARpwH/gQzpPb0V5gMcpP+PzUnaHjieZ6lo7/n0zvY4dABZY/F3L41mAiFFrl/7QiDZ37tOogcjhLBiXMpiP9jnKqTMlRRCkHaHpLjwjQoUED6YHylC2qzqr/RI8oevtHLJC9EuIPnx6XkNPEW9Ttbp0iRr9EPS7TcTT8S6C5volqetOR7jNIfQj9O1kh2rMHytP28Na0rd8lR2N708pI8HhEgr8FRTzWH/ph+NpgIqAtkCG+bW3KnseiTGk+7Z8yzO+cMiBuFyIvexZqlVj0rSECXhCgo3xtQ8aercrafER/JZPsBWX3tslUhq9DIYz1GnwAaeSPwBtQyLp1Rco24xmm4X8CdDheClGI04cn7ABlZvh/wgK+h8ycYpuNx5Ci9xyep3yu8vmq0ZQlNR0ZEjfB2cfaJb/4MHxvMPH8WY/eFX9GQ7CFVeqk3PpiYv71GRBzOB3/jvCJFd56H/VzOAhUQ4RlYVWT8t3bSMNTPyX/zysfNM29meRIyd98URnywS1p+yWcfUopzx/33n4Sr5cpcDJQTfYc1Dex9ld+ht5S1d93RoBpekuRpvcc1rePoga4LuLqMM0CD2yPwSbsfnL0+d5g4olGo2kb0hvuQt7nwygs5wkW9cF0O9YpsfnswUjDGwjvmG7sUT8rvDl+GkZvwlv+ABaArFeqgeGkK9Ab1l5sdViR2XeQ1nAS6jT89PDx4lj9sk0qvP7nKqSrwsGgETwCTMubOiBmFyFr48JReLhqiIDHBCgE8VZt2u4tz9jbeN5G1W6aDUfFTeOSTjqe355XgTCYms9T1k08BIPpd+tY05SN5KKNHrDR8Hp9GVr0Rw+JGZt3+e2kap4vfQ02Afol2Evif9F4dj7SBupgOMlbHrw5pSPlbDyE/m5ykdO4OnhHELw9Zqrql5bsUWuM4E3dR3vM64bP1xOKY3YDFnCTUU+RhKNSjsmPEOkblwnw+VrZ2BRt+htqnDZCkjwKhhOvKabEXgUBFoqw+LWOMFAGU/O5+SxCl3+E8hBzPqNwMvG4GVEaixs2U+8+MSZpg+X0aj4d9NVlArymGNFligCjuixe1wg2Ad4/foS+TMchKq3hPYFHUcx960p4GzRCQYCNbi9CpIne74n9JagUikn1+UGwvukRZHU8UZFxnsdhdVby2cTeSlR1PhH1ShRh8esIpMHEE+cD5HzeszllL6NB5o6QZz2wq/GxWOhcMBLpdzix/HxC+fVE137lRoB1Sq9C7vQxLPjeUp1SbtAC8q4Lcf/43gFY+Wl4TuA7HzTac3g2aYSLABd25yFN7/RhCfVvCtfU+vZoXsR9hMIQXPPSkRmm2mGmi58JkZWPQWzlgAL3WMrlBAikwdR8YPR8L4BkK4tr1yAFImyDhtFxsLip3HPY4LijRx+2Y9Tx+IMAb8Lv78zYfUgDoLoXazA0wkWAUem7j+xrJXhIaXhHgIIPH3t9d+gded4R9PeW+yNN7/ihMZsNBwTljtknRkMEvCLAlS0dmR/g+fw6nJlsDr8zBKlVhw+O2cVY256C2tqgXEOBNph4glJqfC06KN+xMeV49PiwCuJgWJKKPEV7C5JoeZ9aEnf6KTEVT0MEvCLAPGnmSzOytLo+fI4Hr7gFcbvfnZp0UouCuO9B2Wd6gj/9zp6g7K72swcE+JgeUYTMDzg0ry6LO209VEvcA5D6k24RoDDE49tSEGDK2LqABgnGYD17EZwNpw6L2SSkt1IVLygj8AZTM2im5b0Dz/gdqLlYCkucHnO/L/14g+2D/01Bt/FrUJc0ExZ3cu9dlycR7SSl3zXPsL66SYDXxg7cfJ9GLyVGaNfCaAqqs8FNLmHf1klwwvz44CIVrns40YzS/nS16pc8ROybTVOEaRgMJ0qQs2dMPzy/9z7CfbOP2pFwEeBzuhYRpjdqszYHZSkr0UC+MZv1tSATrxOKOpyB9LtLoew8CYtbrm3xcqBGaAymZupU0luEJrcsllsNUQiqfPmtWI4nD3uiHIh86ItRSDpzr9pd8zHoqwh4SYBeqtX1GfsNhFMoX6oRHQL07v3ykCJjXaSGNwS+u6zRFkAwRSNaBKaieTyNJvZDLEGangynaM1/IY6W693XtmcRdcrYh5CxpcKeXxyffMIMwGJ3VB+zk1CDT3n+SahTCvIIncHUPBk7EXFaUJl2cj6XI0ViIxRHClksx9OEvZIm4oQ5CH2TmG53JG6sTMXTEIF8EGD/sg+RcjcPqjvzEVmiM0EjWgSKsZD7+ylFdtZw3Xi8mPk6XGOffbcRaeJ+z2/w4ui1zYFIDaEMOdX0+Hz3qzyyZipcBGgkvQXn50s1GeN6lwrSNQUMFoyDY24yHAhHIGvqRBhLXPeGwYEQ2nJFhv9o0Z4GNZvlsLyX4SRiMTsL51hAl6/BsCNlSHniHDIIzfAG4uTpZ9Y3DGdPviDqc3pNgBKlc6F8t6iq6WYagprRXjOJ4gZ2Z2OBzX0Pwnxt3GW2S8GlIEyVJ/tIg/npyiwEdLJ2fHHWLi+NowGunBOewNZGPyJAxztbRsyEkc6a5FVw2KzAupciEevxM7NKvBxczjI1lVlT0/FvBkTKJqPx8yhkUoVphDbC1HqSGF2iJOMW/Ptwr/HEm1oVQphup+xRjWoKDCPWJNFIKkX6y+i+UtNpPSf62XsC9DwtRHrQ3ch1XgNxFEaZNKJLgA+2c0ck7B8lL+7JSUAp8R+tbJTKpCd0g7VRXmuUIT8LdRvnocidQk4aIpAvAnzWl+9uWveuQGYJU/YY+aYojRuD0dNxfc0Oh5E2HVlTY7HOHYb0O4qhhDVzKjIGU/MJwlMlhUUk1fX2wNtaAYOJUSdGoKgQtgnWOMo7WhhRXGNm8V8M/1GMoXnE8H2fWNbGI/w4rh+VchCG3JtyxzqlvvGsFeFNCiY1E9PXfBDgOU4HAcVP/gIRFIqhMEVVQwRIgFH3f5mWUJTbg9Ph/zaknWtOjgkP4AZwk1wu9MWiYSqEna5HY85jWK+MxcF+y4gAHpV2OUgEmtcDFIZIY827EwtarnU3YK1bjswTfmVUnMGDbfh5/8H1LqNExTCCKKc/ZYDZcHw/DY4ABgIoclKENTAzpqKwzg1tSt7+k77/97xRMU1un3w3wogDEBLab+zCCbUOlnnz2OyENLM2FCcKT5LmUYoTqXP9+H3vbf4bfRUBLwnQUFoJL9ITaHTHf16H4r08Fm3bGwLs4cE+W2XwDmq4S6AabFNYmGiIAAnwTOB6YslOs3/+sNFORtrUtTCcJsOAGrC/91W4RMAjAlyFMuLTZ6+ZPgQGu7uiP9FZ50bOYMrlnOyHG9mBsKSbx4GIHGmIgJ8JMK2UdUqvoehzDmSNVXTu59nSvoWVQCVSvgspLhRWrmE4LqZHP4v06GV1jU599SnD4h/JK4fh+HQMIhB2AjKYwj7DOr7QE2AU6YXqNKSMs/Ym0++k6BD6OdcB+o9AHa673VgUa4hAZwTo2Lp9Y9peqUnb6ahvYk2h6ps6I6bfiYA/CMhg8sc8aC9EoEcElkK4hM3rFqOJnRcCJj3aKf2RrwkwJVnpQO5PEesEpZDnPtcwbpE11O/sYD+8lL0EoZAbxibs2KG4MDVEQAR8S0AGk2+nRjsmAu0ToAgJo0r3lafsb0i/q8NCja9piEBXBJhczH5wVPLUcJcAg0sqX3KXadi3tgP37sWQfqYE9MklCbsOhhN72FA0SkMERMBfBGQw+Ws+tDci0CEB1imxk/ci5MHfC0OJ/RX4moYI5EqA0SUW/EZB0ShXJnqfCBSSAG/hbDL6KER6XkKa3uWlSZuFxtJU39V1WsiZ0WeLQEsCMpha8tBPIuBLApQpfrEGTREr+FBlrYQsJV9OlM93Ko42B2gJpyECIuBDAlSv/P16pFhvj0MYIo5mpAnIOPtwR7VLIhBBAjKYIjjpOuTgEKB+w0r0THhiW8bmVaTUEDM4U6c9FQEREIEeEXgD4j1sNHrqsKydPSJuhw9G/ybJkPeIpf5IBNwiIIPJLZLajgi4TIDexoe2QP2uMm1rkH4nuWKXAWtzIuAigSGoC+uv2jAXiUZ7U6xvmod7/1s7WN8Ut4+PTtjE/ipuivZZoaMvJAEZTIWkr88WgVYEmGi3B+l2CyER/teNKVu7q+lnJeC1AqUfRcBnBAagUr8f0h25pNX16rPJCeju0Em2Cc6yB+E4Y+3q9WMSdt7IOM4z1TcFdEq12wEmIIMpwJOnXQ8PAS6wKEvMNIyH8XB8qkINXcIzuzqSKBCgoVQGQQ0Ka7BJqYYIuEWAhlM5+jf9bE0KUae4XV2WsCMGx20oVnAShnCLsrYjAp0TkMHUOR/9VgQ8J8A6peV1WXsG6RfPVGZsCx6MGiIgAsEjQEENCmsoxhS8uQvCHrN9xNuob1pdn7FTIEN+Duqbjkb/JsmQB2H2tI9BJyCDKegzqP0PNAHWKc3dmrbnqtK2AuIO8kwHejq18yIgAiLgOQH24XsMMuRLdmYcCfKzhyds8gDVN3kOXh8QaQIymCI9/Tr4QhFgisWLNRl7AOl3S3ZmrY5hJg0REAEREAERyJHA2oas3bU54zS/vWBUAsZTwgZJeCRHenqbCHSPgAym7vHSu0WgVwRoKK1pyNidm9L2Mgwm1i2ppVKvkOqPRUAERCCyBHYhT++9nYYMhbTNR+3rp8YlbMaguFNLp5hTZE8LHbgHBGQweQBVmxSB1gQYQGLR7hNIo5izOe0YSq3fo59FQAREQAREoLsE6HSrh+H0+nb+yziiEOeNTNiEfpS6l9nUXZ56vwi0R0AGU3tU9JoIuESAD7KKxqy9imjSY2g++xYKdjVEQAREQAREwCsC95anHePpXEiQn1QcQ/+muMlu8oq2thsVAjKYojLTOs68E9gNa+nFmqzNQ1SJndtZqKshAiIgAiIgAl4SoKNuJZT0/rwxay9Xx1DblLWLUOPUByqOGiIgAj0jIIOpZ9z0VyLQKQEW496N1LuXqjNOhIkPMA0REAEREAERyBcBigm9UZu1VTCe3t6RsUtHJ+zIIbKa8sVfnxMuAjKYwjWfOpoCEqBRVIX0u3nopXQfjKWte7Im8bsCTog+WgREQAREwGqQ3fA0nktvoL6JtU2XlSZsdJ+Y0vR0bohANwjIYOoGLL1VBDoiUIl+Sm8i7e7uTSlbhia0bDCoIQIiIAIiIAJ+IECHHp9TVGhlg/TrxiTslGFxG1EUQ7NlP+yh9kEE/E1ABpO/50d753MCrFN6d0fWaT77fHXWUSry+S5r90RABERABCJMYDMUW3+yOgUxoridi9qmo5GmN0SrwQifETr0XAjoEsmFkt4jAq0I0FvHvPD58NQtqMrYOtQsaYiACIiACIhAUAgsQo3tUmREnFQSt3NGxO2wvf2bgrL/2k8RyCcBGUz5pK3PCgUBFtI+tDVj8yrStnaXGRsHaoiACIiACIhAkAjwybUNtbaPUckV9U00nD41LmlDtTIM0jRqX/NEQJdFnkDrY4JNgA+WPQgrLd2ZtdvWpiDZ2vSzTKVgz6v2XgREQASiTqAR7QHX78ra/VvSTi3uNWVJx3galDDVN0X95NDxf0RABtNHKPSNCLQlQIOIHdRXwUB6eGvaURpSRKktJ70iAiIgAiIQbAI0nJYjRe+Hqxrt+OKEfXx03A4ZHLfBMJw0RCDqBGQwRf0M0PF3SuDD+qwtQo0S0+9Up9QpKv1SBERABEQgBAT2wHBaVJW293ekbdaIhJ2LfwcNlAx5CKZWh9ALAjKYegFPfxpeArXoW7GoOm2PIEVhWZ0Z1fA0REAEREAERCAqBChDfi96Cr6LlhlnwWiaNTxuZX2lQR6V+ddxtiQgg6klD/0UcQLUb3gLD4d7y9P2HjqjV+GBoSECIiACIiACUSXA3oIbdqftRajqfRxNb0+FOESfeFRp6LijSkAGU1RnXsfdggANpXL0pvjzxrS9gMjSdkSYFFRqgUg/iIAIiIAIRJAA8yt2Qh32rdqsU+P04KCYfXNy0ok2FcFwUswpgidFBA9ZBlMEJ12HvI8ADaUtMJReR1Tpf6B+R0NJQwREQAREQAREoCUBGk51eGgu3p61m9/dY1eVJez0YXGb2F8Rp5ak9FMYCchgCuOs6pi6JMAbfzXS7V5D74nH0YPiTRhMVAjSEAEREAEREAER6JzAzrTZ/zkZGRm7aFTCTiiO29h+ijV1Tk2/DTIBGUxBnj3te48JvFqTcZr1LYbBpDqlHmPUH4qACIiACESUANPWWd+0eX0KqexxuxT1TccMidmAhAyniJ4SoT5sGUyhnl4dXGsCm5F+dz8EHRZAKpzfq06pNSH9LAIiIAIiIAK5E6Cq7MtwQq5tyNoxQ+N2BVL1pg2Q0ZQ7Qb0zCARkMAVhlrSPvSJAo4i1Sc9DzOHect7UlX7XK6D6YxEQAREQARFoRYBOSKa4v4rMjY8hTe9jo+I2vChmcdlOrUjpxyASkMEUxFnTPudMgHnWTLtjVOktyISrTilndHqjCIiACIiACHSLAMT0HCGlPyBNb15FzD4zPmlHDolbCVabMpy6hVJv9hkBGUw+mxDtjjsEdkHJZ3m92cJKNJ/dlnEkUd3ZsrYiAiIgAiIgAiLQFQGm6P3HyhSU9GI2C2p6M2E4DUoq3NQVN/3enwRkMPlzXrRXPSTA9LuNSAt4AmkBz1dnbVV9xigdriECIiACIiACIpBfAg14AD9VkbV30MPplGFZO39kwg4aKKMpv7OgT3ODgAwmNyhqG74hMBeG0iNb0ra6waxelpJv5kU7IgIiIAIiEE0CdGRugiPzQTybX0cPJ9Y2XYgap0GJaPLQUQeTgAymYM6b9novAQaPWJe0oj5rv0fO9Ds7ssZ0PAWVdIqIgAiIgAiIgH8I7MGzmlkfv1mXtfkVabthbMKOQpreQKTpKebkn3nSnrRPQAZT+1z0agAI7Ibbai0iSUy/ozIPlfA0REAEREAEREAE/EuAz+4lO83+dUXaTirO2MfRv2ka0vQGqn+TfydNe2YymHQSBJIAw/tPV2TsaYg6LEfjPA0REAEREAEREIHgEGDa/PzKrL23k7VNcTsTwhBTBsSlphecKYzUnspgitR0B/9g2SDvNciEz0NE6UU0yqOEqYYIiIAIiIAIiEAwCZTDAXrnJrT+gDDE6RCGOGtEAv2bgnks2uvwEpDBFN65DdWRUb/hA0SS/rY5ZW/gplrZmDUWkmqIgAiIgAiIgAgEmwDrm96qzdhK1DjRGXrdmIQdOzQe7IPS3oeKgAymUE1n+A6GhlIDbqRsgsciUdYp8TUNERABERABERCB8BDgo51ZJK8ji2QJ0vTOQIrepyAMMapPzIpkO4VnogN6JDKYAjpxYd9tRo8qEEV6FZ6mvyJUvwYN8DREQAREQAREQATCTYDP/zrk2z+6NW2vYQ1wGUQhaDyN6xcz6UKEe+79fHQymPw8OxHdt524UTLt7knUKb2Cng3qpxTRE0GHLQIiIAIiEGkCW/dknQyT17fHbfaIuJ1SkrAS1TdF+pwo1MHLYCoUeX1uuwTeRxi+qbldxlgIqiECIiACIiACIhBdAkzDX4w0vWU7M/YGvp4DUYijh8asb1zdm6J7VuT/yGUw5Z+5PrEdAlWN5oTf51VmnMZ2EnRoB5JeEgEREAEREIGIEtiZNuMagfVNJ5fE7dLRCRuPND3ZTRE9IfJ82DKY8gxcH7ePAONHvAG+wjqljSlbhTqlRgg8KK60j5G+EwEREAEREAERaCJAZ+qGXVm7f0vaFlVn7BrUN7GHU38UN8lw0lniJQEZTF7S1bY7JEBDaWVdxu7anLHnqvCDhgiIgAiIgAiIgAjkQIDO1U0wnP5rTcoWVsftyrKEHTYobsWob1KiXg4A9ZZuE5DB1G1k+oPeEGCvBSrePV2ZtnkVqlPqDUv9rQiIgAiIgAhEnQDrmz6EA/aMYQk0vY3bEYPj1kcy5FE/LVw/fhlMriPVBjsiwDqlx6B8txDG0op6s90qVOoIlV4XAREQAREQARHIkQD7N83F+uJdCEMch4a3VyPiVNpXsaYc8eltORCQwZQDJL2l9wSeQ67xPeinRC8Q0/E0REAEREAEREAERMAtAvTBrq7PosYpbe/DcDoPanrnor5pgJo3uYU40tuRwRTp6ff24Jl+t64hY3fCUHoBBlMdDCUJOnjLXFsXAREQAREQgSgTYH3Tezuy9mF9kzDEdWMSNn1QTIZTlE8KF45dBpMLELWJlgQcLw8MpQWQ/3wASjZMxdMQAREQAREQAREQgXwQoHN2Fxo4vVyTtTdqM1DSS9iVpXErQ5oeFfU0RKC7BGQwdZeY3t8pgW3oyk2ZcDafZRNaDREQAREQAREQAREoFAFmuzyENcnSHWh6C8PpFPRwGof+TbKbCjUjwfxcGUzBnDff7XUdPDmLa7M2H0WXL8NgUp2S76ZIOyQCIiACIiACkSWwHPVNGzek7XWo6p0xLG5nQ1FvoKymyJ4P3T1wGUzdJab3tyGwFjLh95an7fmqjFU2Zg22k4YIiIAIiIAIiIAI+IoAnbuvbc/acghQvVCTsM+OS9iBA5Wi56tJ8unOyGDy6cT4fbdYp1QDGc95FWn7K0QdqmEopWQo+X3atH8iIAIiIAIiEGkCXL9Uo7b6xWqUDuxI2zlQ0/t4acKpb0rKdor0udHZwctg6oyOfteGQLOh9CaKKO/dnLIlqFNSRKkNJr0gAiIgAiIgAiLgYwJcz1CU6p7Naaf2+nIYTYcNiduEvmb9lKrn45krzK7JYCoM90B+KqU6X6pJ27NQv3sJdUpsFKchAiIgAiIgAiIgAkEmsAalBb9cm7IxUNG7bHTCzoM4xBCtkIM8pa7vu04H15GGb4N1yLWjLOdbEHVYiDqlTbuVexe+WdYRiYAIiIAIiEB0CdApzJrsP25I2bK6rM0cEoOiXsJKiqLLREe+j4AMpn0s9F07BKh2d/+WjD28NW2UDOcNRUMEREAEREAEREAEwkiA2TNPoj77pWqzRdVZu3Fswg5F41uNaBOQwRTt+W/36JnXWw/D6O5NKUSUsrZ+V8bYx0BDBERABERABERABMJOoLlem8IQrNn+7Li4XTQqYQNQ2yTTKeyz3/7xyWBqn0tkX2VE6c3tafvzRjWejexJoAMXAREQAREQAREwGk4sS/j1OhhOkCO/cVzSpg6IWZ+44ESNgAymqM14B8fLm8KahgzC0Bl7FOl3VI7REAEREAEREAEREIGoE2A5wvMQu6pobLQry5J2eklMSnoROylkMEVswjs63JdxI5iD5rPv7MjaLkSZNERABERABERABERABJoI0LH8Plqp/GZdCn2c0LsJanqKNEXn7JDBFJ257vBIGVX6PW4A5RB14A1BQwREQAREQAREQAREoC2BLVAK/j8o6VVizXTz+KSMpraIQvmKDKZQTmtuB4UG13YfGrbNQQPaGvVUyg2a3iUCIiACIiACIhBpAlTSewAKwo3ZlH0GRtPgRKRxROLgZTBFYppbHiSDSKxR+svGlM3dmrF6peC1BKSfREAEREAEREAERKATAvXprLOGMkvZDWOTNgz9mqSg1wmwgP9KOh8Bn8Ce7H4NjKU7YSw9uo3GknLwesJQfyMCIiACIiACIhBtAlxDcS3FNVWdnM+hPhlkMIV6etseHPsp/QkX9iOILFEqU0MEREAEREAEREAERKBnBLiW4prqoS2ymHpGMBh/JYMpGPPkyl7SWPr9ehhLyLutU2TJFabaiAiIgAiIgAiIQLQJcE3FModXoDisEU4CMpjCOa9tjoo9BB6E9+MR9FjaLSm8Nnz0ggiIgAiIgAiIgAj0lACFIH6+JmXL6rKm/J2eUvTv38lg8u/cuLZnjCw9U5Wxu6GIxwtaQwREQAREQAREQAREwF0C63dl7XfI5NkGyXGNcBGQwRSu+WxzNLxkV9RnHenwcvQO0BABERABERABERABEXCfABN43t2RtYeR0bNTJU3uAy7gFmUwFRB+Pj6aEaV70WeJIWINERABERABERABERAB7wjshAjEE1DOe39HxlQB4R3nfG9ZBlO+ief5857YlrKF1VldtHnmro8TAREQAREQARGIJoFypOSxZrxWUabQnAAymEIzlW0PZANyaf+0IW27pIjXFo5eEQEREAEREAEREAEPCDCytBC14wsrZTF5gLcgm5TBVBDs3n9oA4yk361LSeTBe9T6BBEQAREQAREQARFoQYCtLim2VSOxrRZcgvqDDKagzlwX+/1CTdZe265+AF1g0q9FQAREQAREQAREwBMCaxuydn+5okyewM3zRmUw5Rl4Pj5uK3Jnn9iWth26RvOBW58hAiIgAiIgAiIgAu0SeLYyY5ulUtwumyC9KIMpSLOV476+hk7TS6TOkiMtvU0EREAEREAEREAEvCGwBU7sRahn0gg2ARlMwZ6/Nnu/CV6M56CK9/+3d+dNcl3lHcefXkaj2aQZjUYa7astyZJtydiysLwvCO/EGGwWu8pA2FOVhPeQSoX8RVEJVQRSlZCA2Tc7xolJMBiDYkAkYYslbEm2VmuXRtt0d35Pj0Ukz6Kemb7Lufd7yip5emb6nv48rdv3ueec57BB7TAaHkAAAQQQQAABBGIVOKHFTD/WjWyf/UMLV4CEKdzYDeu5V2X57fGabTlSMf5ZDuPhAQQQQAABBBBAIFYBvx7bdqJqPz9S49osVvnmHoyEqbmeiT6b7yq9WXcxWLuUaBg4OAIIIIAAAggg8AeBQ6qU96vjVfPrNFqYAiRMYcZtxF7vP1O15w7xr3FEHB5EAAEEEEAAAQQSEBiaAVS1PRR/SEC/OYckYWqOYyqeZcvRmh04m4qu0AkEEEAAAQQQQACB1wW2DpjtUJlxT55o4QmQMIUXsxF77P/+vr6X0aURcXgQAQQQQAABBBBIUOC0MiWvYHyyQsaUYBgmfGgSpgnTpesX92qY96UB/hGmKyr0BgEEEEAAAQQQGBLYcpR1TKG+F0iYQo3cG/pNjf83gPBlagSKBbO5Uwu2pqtgrf4FDQEEEIhIwM8xfq7xcw6nm4iQedoJC+w4ZXZYBSBo4QmUw+syPR5JYPMRNkUbyYXHkhVoKxXs5hlFu7W3qPV1NfvM9kE7zVs12aBwdAQyLNBWrNk9s8rW21Kw7x+o2n9ow1CmQGU44IG9tAFNx/PZQCs6uHkYWOiMhCm0iI3QXy/08MoppuONQMNDCQosaivYxxeVbVVn0bp1pvELFxoCCCAQtUCnbtS8ubtYP/fc2lu1T+tGzXYttqchkAaBF7Un01v7mOCVhliMpw8kTOPRSunPvjxQtRPUe0hpdPLVrbJumvVNKdh9s0t276xSPVFiWky+3gO8WgTSIODnnRktVk+cLuucYt97rWJf3V2x/RrpPsu9mzSEKLd92KLCD7TwBEiYwovZsB77nbNTVF0Z5sID8Qr4moFrdVf3bbOKdkkHd8/i1edoCCAwkoAnTj1KnB6eU7INOj95NdmfHqraTmZljMTFYzEIvMp7Lwbl5h+ChKn5prE/43b942MvtNjZOeDrAtN0FlnTNZQoXdtdshZyJd4bCCCQQoHFmib8JwvLdn131b69r2IvaO3vURbgpzBS2e6Sv+eOaVZQVynbrzNrr46EKfCIDmpa9j5lS0wxCDyQAXbfEyNfuHrnzFJ9ZMlHmGgIIIBAmgX8vLVeI03LNQr+/KGKpupV7ZeaIsVnaJqjlr2+7dF1W1c7n5khRZaEKaRojdDXw5qPzfqlEWB4KFKBTt0Ze3huWRXwCjZ/atGmMKoUqTdPjgACzRXw9U2b+kq2bnrRnlVBmi/tqti+MxSGaK4yzzaawH4lTJeQMI3Gk8rHSZhSGZbGO+UlmpUz0RCIXMDXArSr+tRV2uPkY4vL1q/iDmUlStwji5yeAyCAQAQCXqRmbmvBHuwv2R0aKf/czkGVIq/YcU2XqvK5GoE4T3lOwEeYaGEJkDCFFa9hvd2rO2JHfV4eDYGIBDwh6tCI0mpfp6Tqd16ulxGliLB5WgQQiF3AE6dejTh9YknZ3jKzaF9WNb3/0jS9Q9qyg0/X2MORiwPyvgovzCRM4cWMHiMQq8DlGlG6cUapvvlsv+7G0hBAAIEsCmgA3dZOK9rS9qL9UOub/l0b324+XDXuSWYx2rwmBMYnQMI0Pi9+GoHcCPgd1zs1x/8O/Vmq6lJ+MUFDAAEEsi7glT/v1nnvCo2q+/qmp/ZXbZv2O6QhgEB+BUiYAo/9gTMqT0lZ1MCjmK7u+3S7DVoI/YDm9a/W6FIHmVK6AkRvEEAgFoEFqvz5YH/RrtE05CdVhtz/+PomGgII5E+AhCnwmJ+p1WyQ1amBRzEd3fdEabmq9rxb1e829hSspVAwL/RAQwABBPIq0KqT4CXtZh/V/k13adTpsyoMseVozQa0WTzrUPL6ruB151GAhCnwqE/VybylflXLqTvwUCbWfb8gmNNqdnNv0R6dW7KpjCglFgsOjAAC6RPw+0Z+Q+lS7Tv3yZUt9l2NND1Rn6ZXs+MscEpfwOgRAhEIkDBFgBrnU/ZonUmnorhfU/NoCIxHwPPs2SoNfv2Mot2mZGmVNnL0TR1pCCCAAAKjC9w9q2RXadry91UU4pnXKlrfpJke3LMcHYzvDBNoU+VZWlgCJExhxYveItA0gduVJHmidOW0kvkiZxoCCCCAwMUFfMTJ9296SOs8r1JVvedVUe9xlSJnfdPF7fiJIQEqzob3TuAyKbyY0WMEJiWwWBXvHppT0shSyXp0BqjP6JzUM/LLCCCAQP4EfET+ss6CLdZwgZcj//Keqv3kcMXOUlAvf2+Gcb7iNj54xymW/I+TMCUfg0n1YEZLwToZ2p2UYR5+2Zcl+fS7O/uKdo+mk/Tp/zlf5yHyvEYEEIhaoF0n2KumF2yl1jj97GjR/vHVQdt20uyUCkPQEHijgI9QrtB7hRaWAAlTWPEa1tsubVHuhR/Yj3wYDQ+8LuD7KXlZ3Af7y/W7ocAggAACCDRXwD+FO/R5fOMMJU/TWuwbe6v29GtV23GqyohTc6mDfzZfe84Ny/DCSMIUXswu6HG3ItjOCNMFJnwxJOAf3mu1j9JtvSW7VWuVvMoTDQEEEEAgWoFOnXsfmVey9bpR9cT+itY4VW336ZqxA0i07qE8+6pOPoxDidX5/SRhOl8jwP/3qVb9rV7djLtYAYYvki77natlWqfklZy8Al4/0+8iceZJEUAAgbEEfNrVvNZSfSPwf1dFve8frNpJpumNRZaL7/l+h7TwBEiYwovZsB73t9bM99I5y+2rYTZ5e8D3UHpgdtHuVbLUr72V/H1BQwABBBBIRsBHmzZ0a32TRhVu6a3ap7cP2ssnWduUTDTScVRGmNIRh/H2goRpvGIp/PlFbUVrLaikaQr7RpeiF/CcqE2J0ptUpen984uq2MR+StGrcwQEEECgMQE/R8/QupUNmqK3umuKfU/T9L6yp2L7ztRY39QYYWZ+yt8HXqmWFp4ACVN4MRvW40u14ajfxTpwlrtWw3Ay/oDHfZWmfdzZp+l3PaqYqK9pCCCAAALpE/DEabquut6pbR2uVfL09b0V23y4atsZcUpfsCLqkY8u8TkdEW7ET0vCFDFwHE/vdyx8lGn7yUoch+MYKRG4RInyHTOLdrPWKc2fSqKUkrDQDQQQQOCiAos0yvDxhWXb0lO1bytx+s8jVTs6eNFf4wcCF7hMCVN70W9u85kdWihJmEKL2Cj9XTutYM8eHOWbPJwpAU+Qb1Hlu9tV+W51V9EYVMpUeHkxCCCQEwHf+Paa6UVb1l6057Xh7dP7q7blGAWcshp+r1y7TDNCWr1aFy04ARKm4EI2cod9bvSnRv4Wj2ZE4NyH69tnl+qJUpf+9XLazUhweRkIIJBbAb8JtmlmSfs3Fe2HqqT3z7uG1jflFiSjL9yr481TMSY+t8MMMAlTmHEb1msf3ve7VNsGqsO+xwNhC/j+SX0qDf6BBWVNvytYS6HApndhh5TeI4AAAhcI+EyBOa0Fe3u/Zg8oefr8K4P2b69V7IRm2lOJ/AKqIL/w9WurOws2VzGmhSlAwhRm3Ib12v8J3qwpWiRMw2iCfcBHlPzk6muUHtCHqCdNNAQQQACB7Ar4bC0fcfqzxWW7Q5/pXk1vy9GqHTprRlmncOPer89y30jeK9rSwhQgYQozbiP2+s2alvel3QU7MchpdUSggB7s1Qfm9TNKmqahdUpaJOrJEw0BBBBAIB8Cfl19paboLdHMkecOVez72vh2swpDnGUSSXBvAB9dWqo4rtBnOS1cARKmcGM3rOd+B2OdTrA/Oki1vGE4gTzgidEVKuTwUH/R1kwrWTf/QgOJHN1EAAEEmi8wTZ8Bvm3E5fpc+IHWNz2lwhDMJGm+c5TP2K7s92oV5mKWSJTK0T83l2PRG8d2hK6S2XXaUfynh427ULGpN+9AC1Qa/OHX9+eYS5nw5sHyTAgggEDgAr51xDs0NXu9ZpI8sa9iT+rPce6NBhHV2ZpOf4umV9LCFiBhCjt+F/TeRyfWaFGhb2T6X8eYlncBTkq/8KH6mS2F+n5K984q1fdT8sdoCCCAAAIInC/gBYC80trHtH/T3fq8+OzOiv1C65sGNA2fT/zzpdLz//5xfvesos1kDXJ6gjLBnpAwTRAurb+2UBvYru8u2e9UWud0lVNoWuPk/fKFvWs0zeK9c8v6mywpzbGibwgggEAaBPyTwm+OXqLE6a9WlOujTU9omt7WE1VGnNIQoDf0YaEqGN+lKZV8wr8BJsAvSZgCDNpYXfY7UBt7fC+HipKmsX6S7yUl4POZvbzo7SrocJMKO/gcdRoCCCCAAALjFbhLI01XafNbLwrxjMqQbx2oGXWfxqsYzc974Y4HNY2Sz/hofON+Vi7V4haP4XhLdUfD5zlvP1W1U2zgEIN444fwvbJ8eN4rGvqcdD+h0hBAAAEEEJiIgH+E+P5N79SFuW98++PDVXt81yCjTRPBbPLveAGn63QDm5YNARKmbMTxglfhw/U+BPyjQ1V7aeCCb/FFQgI+8nd7b8kemVeyfu303cpCpYQiwWERQACB7An45/4qzVxYpGn566a12Jd3V+35wxUKQCUUah9Vetvsks1i7VJCEWj+YUmYmm+aimf0ebN+x+mTLw0aS5mSCYnf+WvX9u1Xan3SI3NLtlIfZiRKycSCoyKAAAJ5EPAp3+tUwnqlij+9cKRg/7SrYi/qximzTeKLvs8cuUU3SK/RTBJmkcTnHvWRSJiiFk7o+f1i3Tc9/dfXivZzVdGhxSvgI0qrtEndXX1FjSwV2d07Xn6OhgACCORWoH6zTlfqN2qNrE/T+9a+qj39WtVePsnGt1G/Kdzel0Xcqc9+9lGMWjve5ydhitc71qNN1Qnzsfkle/nFqh08G+uhc3swn2nn+yndoHnL92o43v+fhgACCCCAQBICnZrl8B7NcLhGhSGe2F+x5zVVf9fpGjNPIgpGm667fHRptW6Y0rIlQMKUrXgOezUrNCy/aWbJvrKnQuWcYTrNfWC6/jXdLuubZhTNF3v6KBMNAQQQQACBpAUu1bXAvNZSveDQM6qo51X1TlIUqulh8Qq4d6mwE1Pxmk6b+BOSMCUegmg70KG7S7fpIt6n5f3uBPsyRaX9Jt298/Kh6zT9oUv/qhhXikqa50UAAQQQmIiAXw+sn16wFR1Fu623ap96eVDT9LgumIjlSL/js3o+pE2FKfQwkk74j5EwhR/DMV+BX7j74s8HdDH/mR2DdoipeWN6jeebPoI0V+VcvRKO/9FnkVH8bjyC/CwCCCCAQJwC/hnVo03Tr1VBgs+smWJPaZre1zQDZe+Zmp1hufOEQ+EFnT62sFSvVDjhJ+EXUy1AwpTq8DSnc36CvFlzal/Uhnbf2Vu105TNmxSsD7X7vhfXa52SJ0q+nxKJ0qRI+WUEEEAAgRgF9DFW31D1nXNK9eTpm7o2+InKkG9nxGncUfCbp/doGt5btJ2Lu9KyKUDClM24DntVXSWzB3Rxv11J038eYQh+GFCDD/jeCjep8tCtqny3VqVbKRPeIBw/hgACCCCQSoFFqur2UY2ObOwp2Hf2Veyn2vz26GAqu5q6TvnMkqtfn5Lv11m07AqQMGU3tsNe2WKdFN+/oGzbBs5QNW+YztgP+ElxjQo53Ku7SNf1lMwLPNAQQAABBBDIgoBvfOsX/svai/WRpu+pDPkvtPb5LNP0Rg2vzyy5REsefJ9FKuKOypSZb3DZl5lQNvZC1qiCy4e1KPGvtaEt85UbM/MFnD5t4QZVv/M1S1S/acyNn0IAAQQQCEvA1zfdoUJRXsDoBwcr9sVdVdun9U204QI+Hf/ji8q2WjdTmZY/3Cdrj5AwZS2iF3k9/o/aN1I9XS3bZ3cOMuw+ipc7dWp43cuEPzqvZL0tJEqjUPEwAggggECGBHxGRb9uDr6jv2yb+sw+p2uFf3utYscrZlQiH6qC6z5/cWnZlmhETly0HAiQMOUgyG98iV76ctPMoh0eLNvju3USHOTu0TkjP/H5OiWffvdHWvN1nQo70BBAAAEEEMibgN847Nbn4Z8uLtdvtH5V1fR8mp5X283rVYObLNPyhk8sbbGl7aRKefo3QcKUp2if91p99+/7tR7HN67z6jgD3DaqbzR7uRKlm5Qk3aqRpRmamkBDAAEEEEAgzwI+Df1KTdFbqv2bnjtYtWcOVGzzkfytb/JqeJd1Fu2x+SXzDWpp+RIgYcpXvC94tTO1Nufdc8vWN2XQ/nZHJddrmnxt0j2zfJ1SwRZOLZovgKUhgAACCCCAwJCAV4F7a1/RLu8q2LOHqvYv+6u29UQ+qkJ4svRm7V316LyyLdfIEmuZ8/evgoQpfzG/4BX7KMofzS5reL1Q39g2b4UgPDHyEaWHlTguaTNr4yx4wfuDLxBAAAEEEDhfYJ6KHbxdU9av1tYaT+7XH5UiP6b1TVlu9+v1vkfV8GZqPbNPy6PlT4CEKX8xH/aK/c6Jn/zmt5r9jUaadp6qZX5hZ4cSoxVeDlQFHa7Q3TJf18U5cNhbgwcQQAABBBAYJuDXDZdoit7HVPTgbo06/d0rVfuZpun59P6srG/y4hc+E+cjqix8i4pl+de0/AqQMOU39he8ch9puV4bsnbrf76wa9Be0Oa2WVzX5K9zse6O3avpdz61wNdy0RBAAAEEEEBg/AL+EbpcidNfrija11QU4mlV09s6YPX10eN/tnT8hl8VeHl135fq3T4FT0UeGFVKR2yS7AUJU5L6KTz2Go22/PmSsn1nb8W+oT8HVQ0nC81Pdr5OaaM2nb1TxS4upbpNFsLKa0AAAQQQSImAV5Zdp2l6/6pNb3+sNU4vnaxZaEV4/aaq70F1q0aUbtD1gidONARcgISJ98EwAd+o1efq+v4C39bc5J9rmD20k975L8qn213frVLqfSVbq4Swg1Gl83n4fwQQQAABBCYt4Dcml+q64ZF5+szVjJXNh6v2hK4hdp0OY5LeIo0kbVKF3JuVLC3QTBSWNE/6LZGpJyBhylQ4m/diPMm4WRXjVmqdzw90p+jxXZUgd/teopEkr2rjQ+s9erczrN689wjPhAACCCCAwBsF2nX9sLpTyVNbsb6XoW96+9T+ih1I6YyVXo0ieVGHG3tLtkBruSn+9MaI8rULkDDxPhhVoD6NTXdZHuov1Tet+86+qn1jz2C9Gk5aq+n53GM/WS9Sxbv7dAK8RSdATa8mURo1ynwDAQQQQACB5gt44rGiQ2uc2sv2LlWi/dGhSn3Eabum6p1SNfIkriP8GsGn3Wn3kPo0fU+U6tcJKpmu7tIQGFWAhGlUGr5xTsATpz5N03ufNmu7XUPVPk3Pq+G8etrshObqpWGw3fvo5T6Xa0TM90rwEyAbz56LIH8jgAACCCCQjIAnIv55fJ+KLfmfHx2s2AtHa/bb4zWtk/Y/FnmRKa/q16trhNlay+wVcn3WydXTC9bKtJNk3hQBHpWEKcCgJdnlhZrj+6EFZdvZV61X0vufY1X7b5309iY0R9lHkxZrNOmyrqJdqT8bdAJkjVKS7xCOjQACCCCAwOgCvr7puh6rJ0tbB2r14hC/19+7tKXJ/jM1e00J1CmVJ59M8yRtKEEy832j5mtIaXm72crOovk6bRoC4xUgYRqvGD9fH872hZ1LdfK5TQskX9RO3787UbPfKHn6tf72O0bVyZ3rxlT2PZQWKknySja+D8RiJXELpg5NxRvzF/kmAggggAACCCQuUJ8VosTF9zna0G12XBvf7j1dtcNKlg4Nmu1W8uTXEv63/quPQp0d5cLC059puprtVkGnPo0gdWskab6SpOl6rFfP7wlSl6bcMZiUeNiD7gAJU9DhS77zvlhyhqbArZtWs2Pa1+iIpujtOGX1ynp+x2jbQNWO6uQ32bZMCZrfHbpCo0ieJHmpz269e32ONCfByery+wgggAACCCQn0KmEplOf8+ear286owTJ1zr5YJNyqTGn//u6JOVFNkUXBFMKtfpm9Oeei78RaIYACVMzFHP+HH53x+cBt04Z2hV7iUZ/bugp1keZfIXTTi3w3HvG7GX9fVQJ1at+u2iM5neH5uguka+b8rtECzSCpC/Nj+PD7CRIY+DxLQQQQAABBAIX8DVHnvyo2N4Eml8t0BBorgAJU3M9eTYJeEJTv09UP2cNFWJYrko5GzVnmYYAAggggAACCCCAQEgC/z/+GVKv6SsCCCCAAAIIIIAAAgggEIMACVMMyBwCAQQQQAABBBBAAAEEwhQgYQozbvQaAQQQQAABBBBAAAEEYhAgYYoBmUMggAACCCCAAAIIIIBAmAIkTGHGjV4jgAACCCCAAAIIIIBADAIkTDEgcwgEEEAAAQQQQAABBBAIU4CEKcy40WsEEEAAAQQQQAABBBCIQYCEKQZkDoEAAggggAACCCCAAAJhCpAwhRk3eo0AAggggAACCCCAAAIxCJAwxYDMIRBAAAEEEEAAAQQQQCBMARKmMONGrxFAAAEEEEAAAQQQQCAGARKmGJA5BAIIIIAAAggggAACCIQpQMIUZtzoNQIIIIAAAggggAACCMQgQMIUAzKHQAABBBBAAAEEEEAAgTAFSJjCjBu9RgABBBBAAAEEEEAAgRgESJhiQOYQCCCAAAIIIIAAAgggEKYACVOYcaPXCCCAAAIIIIAAAgggEIMACVMMyBwCAQQQQAABBBBAAAEEwhQgYQozbvQaAQQQQAABBBBAAAEEYhAgYYoBmUMggAACCCCAAAIIIIBAmAIkTGHGjV4jgAACCCCAAAIIIIBADAIkTDEgcwgEEEAAAQQQQAABBBAIU4CEKcy40WsEEEAAAQQQQAABBBCIQYCEKQZkDoEAAggggAACCCCAAAJhCpAwhRk3eo0AAggggAACCCCAAAIxCJAwxYDMIRBAAAEEEEAAAQQQQCBMARKmMONGrxFAAAEEEEAAAQQQQCAGARKmGJA5BAIIIIAAAggggAACCIQpQMIUZtzoNQIIIIAAAggggAACCMQgQMIUAzKHQAABBBBAAAEEEEAAgTAFSJjCjBu9RgABBBBAAAEEEEAAgRgESJhiQOYQCCCAAAIIIIAAAgggEKYACVOYcaPXCCCAAAIIIIAAAgggEIMACVMMyBwCAQQQQAABBBBAAAEEwhQgYQozbvQaAQQQQAABBBBAAAEEYhAgYYoBmUMggAACCCCAAAIIIIBAmAIkTGHGjV4jgAACCCCAAAIIIIBADAIkTDEgcwgEEEAAAQQQQAABBBAIU4CEKcy40WsEEEAAAQQQQAABBBCIQYCEKQZkDoEAAggggAACCCCAAAJhCpAwhRk3eo0AAggggAACCCCAAAIxCJAwxYDMIRBAAAEEEEAAAQQQQCBMARKmMONGrxFAAAEEEEAAAQQQQCAGARKmGJA5BAIIIIAAAggggAACCIQpQMIUZtzoNQIIIIAAAggggAACCMQgQMIUAzKHQAABBBBAAIHoBYoFs1aubKKH5ggI5EyA00rOAs7LRSApgZZCzfxihpacgJ/wWwhCcgHgyJEL+Pu7bwonmsihOQACORMgYcpZwHm5CCQlMHtqkYv1pPBfP64nrbNbuZiMKgwzdaHeYrWonp7nbUDAL2rKep/TEEAAgWYKkDA1U5PnQgCBUQX8pi8nnFF5YvmGp0ot5EuRWXeVC1bCNzLfRp7Y+UsFgtCIFT+DAAKNC3D90rgVP4kAApMQmK6LSf1HS1DAL+bbSwl2IOOH9rUzzHhMNsgtikFvS7J94OgIIJA9ARKm7MWUV4RAKgV6dBFT5oyTaGym6Gp+1pREu5Dpg8/SdEfWiCUb4g7dEOjkzkyyQeDoCGRQgMuXDAaVl4RAWgXmaR0TLTmBKeKfxYL4yAIwU/Md4Y2Mt6En7meNXkNO/BACCIxPgKuX8Xnx0wggMAmBRVMn8cv86qQFenVBz933STOO+gTTy2Y+wkFLTmBJO5c1yelzZASyK8CZJbux5ZUhkDqBFZ2ccpIMysI2FpFF6e/rl3iPRyl88edewnv84kj8BAIIjFuAq5dxk/ELCCAwUYGVHVywT9SuGb93eRf+zXAc6zmuwHgsnsi/x3s8cmIOgEAuBUiYchl2XjQCyQjMn1qwaZq2REtGYBUjfJHDYxw58agH8Op4bFo7Kg/fQACBSQiQME0Cj19FAIHxC6zp4rQzfrXJ/4ZvquoJKy1aATd2a1r8AmuncW6JX50jIpAPAc4u+YgzrxKB1AhwUZNMKNZ0sg9WHPJe0dqtafELvLmHS5r41TkiAvkQ4OySjzjzKhFIjcANuqjppJJYrPHwYgS3zgQ9LnS/cGcD27i0h47jU31XM+U0XnSOhkCOBEiYchRsXioCaRDwstarmZYXayi8nDgFN+IjX6epYW5Oi09grc4p09iwNj5wjoRAzgRImHIWcF4uAkkLdBRr5heUJa4nYwvF1dO5mIwNWwfq0oX72mm8weMy93PJVXqPswdWXOIcB4H8CZAw5S/mvGIEEhVo1dXNaq3xmN3KBWUcgZgq72u4mIyD+g/H8Av39TJ3e1r0Al5oY6Wm403hiiZ6bI6AQE4FOL3kNPC8bASSEvBLSN9AdRV7MsUSgqVtZstkzbV7LNz1g/jMsEt1Ae8ePj3MAAAM50lEQVT2tOgFfO3SAipARg/NERDIsQAJU46Dz0tHICkB3ytlgxbGd7MnU6Qh8At3n463cGqkh+HJRxBwc7dnWc0IOE18yEu4X9tdtB7twURDAAEEohIgYYpKludFAIExBXwd0wrdGaaa2JhMk/rmoraiXddTslaQJ+U4kV92c58KuUCjqbRoBPxtvazdi8hgHI0wz4oAAucESJjOSfA3AgjEKjBXa5g26s5wO2ehSNx9ZMPXilEdLxLehp7Ubwis6mCUqSGsCfyQnzv8HOLnEhoCCCAQpQCXKlHq8twIIDCmwG3aG8jXM9GaL9CtstZ3zGQhfPNlG39G32/sdsXA9wiiNV/Azx1+DqEhgAACUQuQMEUtzPMjgMCoAr7u4P7ZXPCMCjSJb9w0o2hXsN/VJASb86tXaerphm7e483RvPBZ/NzB2qULTfgKAQSiESBhisaVZ0UAgQYF7plVsuWatkRrnkCXrs8fm1+2FlibhzrBZ/JS1x9dVLYOqj9MUHDkX1uvqXh+7qAhgAACcQjwcRqHMsdAAIFRBXxC3ocXlMwv8mmTF/AL9EeVLM2gatjkMZv0DB6Ld80psU9QEz0f6i8Zk3mbBMrTIIDARQVImC5KxA8ggEDUAldo2tJb+krsFdQE6DepMtttvZzam0DZ1Ke4s69oVzJFctKmvp/YnTpXXEFlvElb8gQIINC4AJ+qjVvxkwggEJFAh0aX7tV6BN+AkjZxgfnavPMBOfo+V7R0CXhMfM2N7xtEm7iAnyPuUMLUzhTHiSPymwggMG4Brk7GTcYvIIBAswX8EnKpKl75XXgWcU9M1/f9uVUjS2unFRipmxhhpL/l1/frpxdsk6rmsS/WxKj7VT787ZqK5+cK0s6JGfJbCCAwMQESpom58VsIINBkAb+g9Kk2d/vdY593Q2tYwLk29hTs4bkqLoBdw25x/2Cn3uTvmVeux4owjU/fi2bcrSIPXv3RzxU0BBBAIE4BEqY4tTkWAgiMKeAFC96li36/+Kc1LuCb0z6qC/Fu9vtpHC2hn/QYeazYUHh8AbhB5wSfburnCBoCCCAQtwCnnrjFOR4CCIwp4FPyvCQ2pcbHZPrDN31T1A8uLNulSppoYQh4rPw9zoa2jcXLk8sPyIvpuo158VMIINB8ARKm5pvyjAggMEmBxVqj8BGVGl/SThIwFqWPVnxwQdmuUWU8WlgCvo+Qx45RwbHj5ueAj2gfq7kqaEJDAAEEkhLgUzYpeY6LAAJjClyjC8r3664yVcVGZvJNaR/S9MVNKpRBC0/A1+G8RQUg3qYiBmwwPHL8Fr1+42Sdth2gIYAAAkkKMOM9SX2OjQACowr4BeWNWuB9slqyz+2s2N7TNauN+tP5+oZv8usFHh6cXaTIQ8ChrxeB0Ia2LYWCfWnXoB2rBPximth1FXy0fpVff59umFyvcwANAQQQSFqAhCnpCHB8BBAYVcCTpk0zS1ZRpvTFXRXbfpKUyUfc7ptVtHfoQtv3r6KFLeDV3zyWlVrNvrK7QtKkcC5rL9p75pbsFjZgDvvNTe8RyJBA4eRJrkAyFE9eCgKZFBhUnvTTw1X79PbBXCdNXiTg41rPcXNvyTpJljL1Xj+u0aUn91Xs868M2tHBTL20cb0Yn4b3iSVlu5p1eeNy44cRQCBaARKmaH15dgQQaKLAjw9V7e91Qfmr4/kbaZqnRe/v1V1334vGR95o2RPwGwNPKGn6gkZTXz2Vv/e4r1V6ZF7JNmj9Ig0BBBBIkwAJU5qiQV8QQGBMAZ+at3WgpqSpYs8dqtSn6o35Cxn55qrOQr2iml9Qsg9NRoI6yss4UzV74UjVPqN1e1tP6IscNN/E1zekfWy+KmO2Fc3XMNEQQACBNAmQMKUpGvQFAQQaEjihW/Ff3lO1b+2t2L4z2b0T78UdbtT0u8d0152yyg29NTLzQ7s0wvR53Rj44cFsr2vqby3YvRo1fWe/CpgwdJqZ9y8vBIGsCZAwZS2ivB4EciTwrKbo/YOm6Pmok9+Zz0rzO+wLNAXvgdklu19/GFXKSmTH9zr8xsB391fsm3urtlMJVDVD9wamalhpaZvZH2svqmuZgje+NwY/jQACsQuQMMVOzgERQKCZAi9q2tKT+2v2rO7E71bp8dDbdBV28DUcb+0rcSEZejCb1H8vePKUEqef6O8jgReE8JsBczSqdJsq4N2hfai8Ih4NAQQQSLsACVPaI0T/EEBgTAFPkY7pIvK/j2mK3r6qbT5cCXK0yS8kV3VoVEkbmXqFsN6WAms5xox8fr7pI0sHztbqa5u+vqdivzkR5mhTq97kG3sKdo+m4F2udXlMwcvPe5hXikDoAiRMoUeQ/iOAQF3ALyoPK3HactQr6VVs20A4c/S6Nar0mDbpvEl33WcoUWIpB2/qkQS8it5BJU4/ODBULdLf76E0H0nyog5euMRHUf0GAQ0BBBAIRYCEKZRI0U8EEGhY4LSyp2cP1upFIV46OTSNKU3rP/xisUMzkXzB+yZNvbtfG9Fyt73h8PKDEvD1TT6i+j1N1dujqaheUC9N73FP+n3fsCVKlO7TiNKNMwrmI0w0BBBAIEQBEqYQo0afEUCgIQHfDPRnKtH8Hwcq9vuTVl84f8prkyfUvHjD7CkFrdso2HqtU9rYU7Q+fU1DYKIC+1Ul8jkVP9ms9U2/01Q9n7qXZAEUL+bgBUtWanrp9Zp+59NL27xuOA0BBBAIWICEKeDg0XUEEGhMwC8g/1cXk7/UOiff22brgNl2jTz5FKeom18rztZI0nLdaV+hi0jfU+nyLq3f4CIyavpcPf8J3QjwmwPb9N72xGmrpqTu1chTHPcHfDRpkfZPWt5utlxDp1d2Fe1Svdep7pirtyAvFoFMC5AwZTq8vDgEEDhfwC8evcqYT2HyMs2/Pu4JVM1e0sVlM9eDdGr/pAVtQ0nSaiVHC3XH3ZMmH01ifdL5EeH/my3gNwF81MmTpR16j//q2FDytPNkzXzEtVnN192t6CzaYiVKK3UTwEeVfIqpr0/iXkCzlHkeBBBIiwAJU1oiQT8QQCBWAV/vMaAMSgNNdkp/duvi8hX98bvzfqF5WFOb9pw28/VQozW/MJylJMgvEpfpzvpiJUkLp5ot1EVkm5KmqVqz0aG/uYAcTZDHoxTwGwQnlCSd0nv4pP7eoTf7jlNmLyt52qaRVr954Bs/jzUK5SOhc5QM9bYMrbm7RNNJ5+trf6xd32st1Op/szwpykjy3AggkLQACVPSEeD4CCCAAAIIIIAAAgggkFoBdoxLbWjoGAIIIIAAAggggAACCCQtQMKUdAQ4PgIIIIAAAggggAACCKRWgIQptaGhYwgggAACCCCAAAIIIJC0AAlT0hHg+AgggAACCCCAAAIIIJBaARKm1IaGjiGAAAIIIIAAAggggEDSAiRMSUeA4yOAAAIIIIAAAggggEBqBUiYUhsaOoYAAggggAACCCCAAAJJC5AwJR0Bjo8AAggggAACCCCAAAKpFSBhSm1o6BgCCCCAAAIIIIAAAggkLUDClHQEOD4CCCCAAAIIIIAAAgikVoCEKbWhoWMIIIAAAggggAACCCCQtAAJU9IR4PgIIIAAAggggAACCCCQWgESptSGho4hgAACCCCAAAIIIIBA0gIkTElHgOMjgAACCCCAAAIIIIBAagVImFIbGjqGAAIIIIAAAggggAACSQuQMCUdAY6PAAIIIIAAAggggAACqRUgYUptaOgYAggggAACCCCAAAIIJC1AwpR0BDg+AggggAACCCCAAAIIpFaAhCm1oaFjCCCAAAIIIIAAAgggkLQACVPSEeD4CCCAAAIIIIAAAgggkFoBEqbUhoaOIYAAAggggAACCCCAQNICJExJR4DjI4AAAggggAACCCCAQGoFSJhSGxo6hgACCCCAAAIIIIAAAkkLkDAlHQGOjwACCCCAAAIIIIAAAqkVIGFKbWjoGAIIIIAAAggggAACCCQtQMKUdAQ4PgIIIIAAAggggAACCKRWgIQptaGhYwgggAACCCCAAAIIIJC0AAlT0hHg+AgggAACCCCAAAIIIJBaARKm1IaGjiGAAAIIIIAAAggggEDSAiRMSUeA4yOAAAIIIIAAAggggEBqBUiYUhsaOoYAAggggAACCCCAAAJJC5AwJR0Bjo8AAggggAACCCCAAAKpFSBhSm1o6BgCCCCAAAIIIIAAAggkLUDClHQEOD4CCCCAAAIIIIAAAgikVoCEKbWhoWMIIIAAAggggAACCCCQtAAJU9IR4PgIIIAAAggggAACCCCQWgESptSGho4hgAACCCCAAAIIIIBA0gIkTElHgOMjgAACCCCAAAIIIIBAagVImFIbGjqGAAIIIIAAAggggAACSQuQMCUdAY6PAAIIIIAAAggggAACqRX4P/Etq41plqHJAAAAAElFTkSuQmCC;" vertex="1" parent="N_zuauuihdi1zP-7BYdp-11">
          <mxGeometry x="40" y="180" width="97.8" height="100" as="geometry" />
        </mxCell>
        <mxCell id="N_zuauuihdi1zP-7BYdp-10" value="" style="group" vertex="1" connectable="0" parent="N_zuauuihdi1zP-7BYdp-11">
          <mxGeometry x="-20" y="-30" width="510" height="140" as="geometry" />
        </mxCell>
        <mxCell id="N_zuauuihdi1zP-7BYdp-4" value="&lt;div&gt;&lt;font style=&quot;font-size: 21px;&quot;&gt;Looker (Semantic Layer)&lt;/font&gt;&lt;/div&gt;&lt;div&gt;&lt;font style=&quot;font-size: 21px;&quot;&gt;For getting data to the people&lt;br&gt;&lt;/font&gt;&lt;/div&gt;" style="shape=process;whiteSpace=wrap;html=1;backgroundOutline=1;" vertex="1" parent="N_zuauuihdi1zP-7BYdp-10">
          <mxGeometry width="510" height="140" as="geometry" />
        </mxCell>
        <mxCell id="N_zuauuihdi1zP-7BYdp-5" value="" style="shape=image;verticalLabelPosition=bottom;labelBackgroundColor=default;verticalAlign=top;aspect=fixed;imageAspect=0;image=https://www.grazitti.com/assets/2020/08/Looker_Logo_Vertical_FullColor.png;clipPath=inset(0% 24.33% 27.89% 23.33%);" vertex="1" parent="N_zuauuihdi1zP-7BYdp-10">
          <mxGeometry x="49.99806629834254" y="35" width="64.79666666666667" height="87.5" as="geometry" />
        </mxCell>
        <mxCell id="N_zuauuihdi1zP-7BYdp-40" style="edgeStyle=orthogonalEdgeStyle;rounded=0;orthogonalLoop=1;jettySize=auto;html=1;fontSize=26;" edge="1" parent="N_zuauuihdi1zP-7BYdp-11" source="N_zuauuihdi1zP-7BYdp-39" target="N_zuauuihdi1zP-7BYdp-1">
          <mxGeometry relative="1" as="geometry" />
        </mxCell>
        <mxCell id="N_zuauuihdi1zP-7BYdp-70" value="" style="group" vertex="1" connectable="0" parent="N_zuauuihdi1zP-7BYdp-11">
          <mxGeometry x="480" y="226" width="340" height="340" as="geometry" />
        </mxCell>
        <mxCell id="N_zuauuihdi1zP-7BYdp-39" value="&lt;div&gt;In-warehouse data transformation&lt;/div&gt;&lt;div&gt;&lt;br&gt;&lt;/div&gt;&lt;div&gt;For normalizing, adding persisted metrics, etc&lt;br&gt;&lt;/div&gt;" style="whiteSpace=wrap;html=1;aspect=fixed;fontSize=26;" vertex="1" parent="N_zuauuihdi1zP-7BYdp-70">
          <mxGeometry width="340" height="340" as="geometry" />
        </mxCell>
        <mxCell id="N_zuauuihdi1zP-7BYdp-41" value="" style="shape=image;verticalLabelPosition=bottom;labelBackgroundColor=default;verticalAlign=top;aspect=fixed;imageAspect=0;image=https://dataschool.com/assets/images/sql-optimization/start_modeling_data/data2.png;" vertex="1" parent="N_zuauuihdi1zP-7BYdp-70">
          <mxGeometry x="10" y="20" width="127.55" height="39" as="geometry" />
        </mxCell>
        <mxCell id="N_zuauuihdi1zP-7BYdp-74" value="" style="shape=image;verticalLabelPosition=bottom;labelBackgroundColor=default;verticalAlign=top;aspect=fixed;imageAspect=0;image=https://logos-download.com/wp-content/uploads/2016/10/Python_logo_icon.png;" vertex="1" parent="N_zuauuihdi1zP-7BYdp-70">
          <mxGeometry x="170" y="15.500000000000114" width="48.18" height="48" as="geometry" />
        </mxCell>
        <mxCell id="N_zuauuihdi1zP-7BYdp-75" value="" style="shape=image;verticalLabelPosition=bottom;labelBackgroundColor=default;verticalAlign=top;aspect=fixed;imageAspect=0;image=https://www.eksworkshop.com/images/argo-workflow/argo-logo.png;" vertex="1" parent="N_zuauuihdi1zP-7BYdp-70">
          <mxGeometry x="250" y="15.5" width="80.91" height="39.75" as="geometry" />
        </mxCell>
        <mxCell id="N_zuauuihdi1zP-7BYdp-15" value="" style="shape=flexArrow;endArrow=classic;html=1;rounded=0;fontSize=26;entryX=0;entryY=0.91;entryDx=0;entryDy=0;entryPerimeter=0;" edge="1" parent="1" source="N_zuauuihdi1zP-7BYdp-4" target="N_zuauuihdi1zP-7BYdp-2">
          <mxGeometry width="50" height="50" relative="1" as="geometry">
            <mxPoint x="1340" y="390" as="sourcePoint" />
            <mxPoint x="1390" y="340" as="targetPoint" />
          </mxGeometry>
        </mxCell>
        <mxCell id="N_zuauuihdi1zP-7BYdp-16" value="" style="endArrow=classic;html=1;rounded=0;fontSize=26;exitX=1.002;exitY=0.477;exitDx=0;exitDy=0;exitPerimeter=0;" edge="1" parent="1" source="N_zuauuihdi1zP-7BYdp-17" target="N_zuauuihdi1zP-7BYdp-1">
          <mxGeometry width="50" height="50" relative="1" as="geometry">
            <mxPoint x="860" y="690" as="sourcePoint" />
            <mxPoint x="880" y="740" as="targetPoint" />
          </mxGeometry>
        </mxCell>
        <mxCell id="N_zuauuihdi1zP-7BYdp-17" value="" style="swimlane;startSize=0;fontSize=26;" vertex="1" parent="1">
          <mxGeometry x="400" y="570" width="460" height="350" as="geometry" />
        </mxCell>
        <mxCell id="N_zuauuihdi1zP-7BYdp-13" value="" style="shape=image;verticalLabelPosition=bottom;labelBackgroundColor=default;verticalAlign=top;aspect=fixed;imageAspect=0;image=https://res.cloudinary.com/hevo/image/upload/f_auto,q_auto/v1603345359/hevo-learn/image3-14.png;" vertex="1" parent="N_zuauuihdi1zP-7BYdp-17">
          <mxGeometry x="20" y="30" width="137.05" height="68" as="geometry" />
        </mxCell>
        <mxCell id="N_zuauuihdi1zP-7BYdp-18" value="&lt;div&gt;Matillion &lt;br&gt;&lt;/div&gt;&lt;div&gt;(Off-the-Shelf Data Pipelining tool)&lt;/div&gt;&lt;div&gt;&lt;br&gt;&lt;/div&gt;&lt;div&gt;&lt;br&gt;&lt;/div&gt;&lt;div&gt;For RDS-to-Snowflake &lt;br&gt;&lt;/div&gt;&lt;div&gt;near-real-time incremental data loading&lt;/div&gt;&lt;div&gt;~1 million rows per week&lt;br&gt;&lt;/div&gt;" style="text;html=1;align=center;verticalAlign=middle;resizable=0;points=[];autosize=1;strokeColor=none;fillColor=none;fontSize=26;" vertex="1" parent="N_zuauuihdi1zP-7BYdp-17">
          <mxGeometry x="-10" y="90" width="480" height="230" as="geometry" />
        </mxCell>
        <mxCell id="N_zuauuihdi1zP-7BYdp-71" value="" style="shape=image;verticalLabelPosition=bottom;labelBackgroundColor=default;verticalAlign=top;aspect=fixed;imageAspect=0;image=https://logos-download.com/wp-content/uploads/2016/10/Python_logo_icon.png;" vertex="1" parent="N_zuauuihdi1zP-7BYdp-17">
          <mxGeometry x="270" y="20" width="53.21" height="53" as="geometry" />
        </mxCell>
        <mxCell id="N_zuauuihdi1zP-7BYdp-72" value="+ SQL" style="text;html=1;align=center;verticalAlign=middle;resizable=0;points=[];autosize=1;strokeColor=none;fillColor=none;fontSize=16;" vertex="1" parent="N_zuauuihdi1zP-7BYdp-17">
          <mxGeometry x="325" y="31.5" width="70" height="30" as="geometry" />
        </mxCell>
        <mxCell id="N_zuauuihdi1zP-7BYdp-19" value="" style="swimlane;startSize=0;fontSize=26;" vertex="1" parent="1">
          <mxGeometry x="390" y="985" width="538" height="350" as="geometry" />
        </mxCell>
        <mxCell id="N_zuauuihdi1zP-7BYdp-14" value="" style="shape=image;verticalLabelPosition=bottom;labelBackgroundColor=default;verticalAlign=top;aspect=fixed;imageAspect=0;image=https://logos-download.com/wp-content/uploads/2016/10/Python_logo_icon.png;" vertex="1" parent="N_zuauuihdi1zP-7BYdp-19">
          <mxGeometry x="300" y="38.38" width="48.18" height="48" as="geometry" />
        </mxCell>
        <mxCell id="N_zuauuihdi1zP-7BYdp-21" value="&lt;div&gt;Python Scripts &lt;br&gt;&lt;/div&gt;&lt;div&gt;in k8s-managed containers&lt;br&gt;&lt;/div&gt;&lt;div&gt;(Custom pipelines, &lt;br&gt;&lt;/div&gt;&lt;div&gt;mostly for Scylla/API interaction)&lt;/div&gt;" style="text;html=1;align=center;verticalAlign=middle;resizable=0;points=[];autosize=1;strokeColor=none;fillColor=none;fontSize=26;" vertex="1" parent="N_zuauuihdi1zP-7BYdp-19">
          <mxGeometry x="40" y="138" width="400" height="140" as="geometry" />
        </mxCell>
        <mxCell id="N_zuauuihdi1zP-7BYdp-23" value="" style="endArrow=classic;html=1;rounded=0;fontSize=26;entryX=0.5;entryY=1;entryDx=0;entryDy=0;entryPerimeter=0;" edge="1" parent="N_zuauuihdi1zP-7BYdp-19" target="N_zuauuihdi1zP-7BYdp-1">
          <mxGeometry width="50" height="50" relative="1" as="geometry">
            <mxPoint x="460" y="180" as="sourcePoint" />
            <mxPoint x="480" y="150" as="targetPoint" />
          </mxGeometry>
        </mxCell>
        <mxCell id="N_zuauuihdi1zP-7BYdp-73" value="" style="shape=image;verticalLabelPosition=bottom;labelBackgroundColor=default;verticalAlign=top;aspect=fixed;imageAspect=0;image=https://www.eksworkshop.com/images/argo-workflow/argo-logo.png;" vertex="1" parent="N_zuauuihdi1zP-7BYdp-19">
          <mxGeometry x="20" y="20" width="172.51" height="84.75" as="geometry" />
        </mxCell>
        <mxCell id="N_zuauuihdi1zP-7BYdp-25" value="" style="group" vertex="1" connectable="0" parent="1">
          <mxGeometry x="-210" y="950" width="420" height="430" as="geometry" />
        </mxCell>
        <mxCell id="N_zuauuihdi1zP-7BYdp-24" value="&lt;div&gt;Time-series production data &lt;br&gt;&lt;/div&gt;&lt;div&gt;&lt;br&gt;&lt;/div&gt;&lt;div&gt;Forecasts, paper-trading simulation intervals, etc etc&lt;br&gt;&lt;/div&gt;" style="shape=cylinder3;whiteSpace=wrap;html=1;boundedLbl=1;backgroundOutline=1;size=15;fontSize=26;" vertex="1" parent="N_zuauuihdi1zP-7BYdp-25">
          <mxGeometry width="420" height="430" as="geometry" />
        </mxCell>
        <mxCell id="N_zuauuihdi1zP-7BYdp-12" value="" style="shape=image;verticalLabelPosition=bottom;labelBackgroundColor=default;verticalAlign=top;aspect=fixed;imageAspect=0;image=https://www.scylladb.com/wp-content/uploads/brand-logo-vert@2x.png;" vertex="1" parent="N_zuauuihdi1zP-7BYdp-25">
          <mxGeometry x="10" y="50" width="120.2" height="85" as="geometry" />
        </mxCell>
        <mxCell id="N_zuauuihdi1zP-7BYdp-26" value="API" style="rounded=1;whiteSpace=wrap;html=1;fontSize=26;" vertex="1" parent="1">
          <mxGeometry x="210" y="970" width="100" height="390" as="geometry" />
        </mxCell>
        <mxCell id="N_zuauuihdi1zP-7BYdp-27" value="" style="endArrow=classic;html=1;rounded=0;fontSize=26;exitX=1;exitY=0.5;exitDx=0;exitDy=0;" edge="1" parent="1" source="N_zuauuihdi1zP-7BYdp-26" target="N_zuauuihdi1zP-7BYdp-19">
          <mxGeometry width="50" height="50" relative="1" as="geometry">
            <mxPoint x="310" y="1180" as="sourcePoint" />
            <mxPoint x="360" y="1130" as="targetPoint" />
          </mxGeometry>
        </mxCell>
        <mxCell id="N_zuauuihdi1zP-7BYdp-34" style="edgeStyle=orthogonalEdgeStyle;rounded=0;orthogonalLoop=1;jettySize=auto;html=1;fontSize=26;" edge="1" parent="1" source="N_zuauuihdi1zP-7BYdp-29" target="N_zuauuihdi1zP-7BYdp-18">
          <mxGeometry relative="1" as="geometry" />
        </mxCell>
        <mxCell id="N_zuauuihdi1zP-7BYdp-67" value="" style="edgeStyle=orthogonalEdgeStyle;rounded=0;orthogonalLoop=1;jettySize=auto;html=1;fontSize=16;" edge="1" parent="1" source="N_zuauuihdi1zP-7BYdp-29" target="N_zuauuihdi1zP-7BYdp-55">
          <mxGeometry relative="1" as="geometry" />
        </mxCell>
        <mxCell id="N_zuauuihdi1zP-7BYdp-29" value="&lt;div&gt;Postgres&lt;/div&gt;&lt;div&gt;&lt;br&gt;&lt;/div&gt;&lt;div&gt;Production relational data&lt;br&gt;&lt;/div&gt;" style="shape=cylinder3;whiteSpace=wrap;html=1;boundedLbl=1;backgroundOutline=1;size=15;fontSize=26;" vertex="1" parent="1">
          <mxGeometry x="-170" y="470" width="310" height="220" as="geometry" />
        </mxCell>
        <mxCell id="N_zuauuihdi1zP-7BYdp-35" style="edgeStyle=orthogonalEdgeStyle;rounded=0;orthogonalLoop=1;jettySize=auto;html=1;fontSize=26;" edge="1" parent="1" source="N_zuauuihdi1zP-7BYdp-30" target="N_zuauuihdi1zP-7BYdp-18">
          <mxGeometry relative="1" as="geometry" />
        </mxCell>
        <mxCell id="N_zuauuihdi1zP-7BYdp-42" value="" style="group" vertex="1" connectable="0" parent="1">
          <mxGeometry x="-170" y="700" width="310" height="220" as="geometry" />
        </mxCell>
        <mxCell id="N_zuauuihdi1zP-7BYdp-30" value="&lt;div&gt;&lt;br&gt;&lt;/div&gt;&lt;div&gt;SQLServer&lt;/div&gt;&lt;div&gt;&lt;br&gt;&lt;/div&gt;&lt;div&gt;AEMO Market Data&lt;br&gt;&lt;/div&gt;" style="shape=cylinder3;whiteSpace=wrap;html=1;boundedLbl=1;backgroundOutline=1;size=15;fontSize=26;" vertex="1" parent="N_zuauuihdi1zP-7BYdp-42">
          <mxGeometry width="310" height="220" as="geometry" />
        </mxCell>
        <mxCell id="N_zuauuihdi1zP-7BYdp-32" value="" style="shape=image;verticalLabelPosition=bottom;labelBackgroundColor=default;verticalAlign=top;aspect=fixed;imageAspect=0;image=https://clipart.info/images/ccovers/1499955337microsoft-sql-server-logo-png.png;container=1;" vertex="1" parent="N_zuauuihdi1zP-7BYdp-42">
          <mxGeometry x="10" y="30" width="74.29" height="60" as="geometry" />
        </mxCell>
        <mxCell id="N_zuauuihdi1zP-7BYdp-44" value="&lt;div&gt;Trading Portal UI&lt;/div&gt;&lt;div style=&quot;font-size: 16px;&quot;&gt;(Customer UI for the Bidding Application)&lt;br&gt;&lt;/div&gt;" style="shape=internalStorage;whiteSpace=wrap;html=1;backgroundOutline=1;fontSize=26;" vertex="1" parent="1">
          <mxGeometry x="-1130" y="510" width="460" height="910" as="geometry" />
        </mxCell>
        <mxCell id="N_zuauuihdi1zP-7BYdp-45" value="" style="shape=image;verticalLabelPosition=bottom;labelBackgroundColor=default;verticalAlign=top;aspect=fixed;imageAspect=0;image=https://newenergyevents.com/cref/wp-content/uploads/sites/6/2018/09/Fluence_logo_with_copyline_WEB-copy.png;" vertex="1" parent="1">
          <mxGeometry x="-1060" y="580" width="183.09" height="50" as="geometry" />
        </mxCell>
        <mxCell id="N_zuauuihdi1zP-7BYdp-47" value="Customer" style="shape=actor;whiteSpace=wrap;html=1;fontSize=16;" vertex="1" parent="1">
          <mxGeometry x="-1400" y="650" width="150" height="145" as="geometry" />
        </mxCell>
        <mxCell id="N_zuauuihdi1zP-7BYdp-48" value="Customer" style="shape=actor;whiteSpace=wrap;html=1;fontSize=16;" vertex="1" parent="1">
          <mxGeometry x="-1400" y="840" width="150" height="145" as="geometry" />
        </mxCell>
        <mxCell id="N_zuauuihdi1zP-7BYdp-49" value="Customer" style="shape=actor;whiteSpace=wrap;html=1;fontSize=16;" vertex="1" parent="1">
          <mxGeometry x="-1400" y="1030" width="150" height="145" as="geometry" />
        </mxCell>
        <mxCell id="N_zuauuihdi1zP-7BYdp-50" value="Customer" style="shape=actor;whiteSpace=wrap;html=1;fontSize=16;" vertex="1" parent="1">
          <mxGeometry x="-1400" y="1220" width="150" height="145" as="geometry" />
        </mxCell>
        <mxCell id="N_zuauuihdi1zP-7BYdp-51" value="Customer" style="shape=actor;whiteSpace=wrap;html=1;fontSize=16;" vertex="1" parent="1">
          <mxGeometry x="1830" y="-90" width="150" height="145" as="geometry" />
        </mxCell>
        <mxCell id="N_zuauuihdi1zP-7BYdp-52" value="Internal User" style="shape=actor;whiteSpace=wrap;html=1;fontSize=16;" vertex="1" parent="1">
          <mxGeometry x="1630" y="-90" width="150" height="145" as="geometry" />
        </mxCell>
        <mxCell id="N_zuauuihdi1zP-7BYdp-63" value="" style="edgeStyle=orthogonalEdgeStyle;rounded=0;orthogonalLoop=1;jettySize=auto;html=1;fontSize=16;" edge="1" parent="1" source="N_zuauuihdi1zP-7BYdp-55" target="N_zuauuihdi1zP-7BYdp-57">
          <mxGeometry relative="1" as="geometry" />
        </mxCell>
        <mxCell id="N_zuauuihdi1zP-7BYdp-65" value="" style="edgeStyle=orthogonalEdgeStyle;rounded=0;orthogonalLoop=1;jettySize=auto;html=1;fontSize=16;" edge="1" parent="1" source="N_zuauuihdi1zP-7BYdp-55" target="N_zuauuihdi1zP-7BYdp-44">
          <mxGeometry relative="1" as="geometry" />
        </mxCell>
        <mxCell id="N_zuauuihdi1zP-7BYdp-85" style="edgeStyle=orthogonalEdgeStyle;rounded=0;orthogonalLoop=1;jettySize=auto;html=1;fontSize=26;" edge="1" parent="1" source="N_zuauuihdi1zP-7BYdp-55" target="N_zuauuihdi1zP-7BYdp-84">
          <mxGeometry relative="1" as="geometry" />
        </mxCell>
        <mxCell id="N_zuauuihdi1zP-7BYdp-55" value="&lt;div&gt;&lt;font style=&quot;font-size: 28px;&quot;&gt;Bidding Application&lt;br&gt;&lt;/font&gt;&lt;/div&gt;&lt;div&gt;&lt;br&gt;&lt;/div&gt;&lt;div&gt;&lt;br&gt;&lt;/div&gt;&lt;div&gt;Ingests forecasted prices, asset parameters and settings, formulates the optimization formulation for an asset (energy for renewabels, energy+AS for batteries), sends to Gurobi Server, and then submits bids to the wholesale market operator&lt;/div&gt;&lt;div&gt;&lt;br&gt;&lt;/div&gt;&lt;div&gt;&lt;br&gt;&lt;/div&gt;&lt;div&gt;Depending on bid, wind farm feathers blades, solar inverter toggles, and batteries charges or discharges (real-world impact of automated software)&lt;br&gt;&lt;/div&gt;&lt;div&gt;&lt;br&gt;&lt;/div&gt;&lt;div&gt;&lt;br&gt;&lt;/div&gt;" style="shape=hexagon;perimeter=hexagonPerimeter2;whiteSpace=wrap;html=1;fixedSize=1;fontSize=16;" vertex="1" parent="1">
          <mxGeometry x="-620" y="550" width="360" height="840" as="geometry" />
        </mxCell>
        <mxCell id="N_zuauuihdi1zP-7BYdp-56" value="" style="shape=image;verticalLabelPosition=bottom;labelBackgroundColor=default;verticalAlign=top;aspect=fixed;imageAspect=0;image=https://logos-download.com/wp-content/uploads/2016/10/Python_logo_icon.png;" vertex="1" parent="1">
          <mxGeometry x="-550" y="720" width="58.23" height="58" as="geometry" />
        </mxCell>
        <mxCell id="N_zuauuihdi1zP-7BYdp-64" value="" style="edgeStyle=orthogonalEdgeStyle;rounded=0;orthogonalLoop=1;jettySize=auto;html=1;fontSize=16;" edge="1" parent="1" source="N_zuauuihdi1zP-7BYdp-58" target="N_zuauuihdi1zP-7BYdp-55">
          <mxGeometry relative="1" as="geometry" />
        </mxCell>
        <mxCell id="N_zuauuihdi1zP-7BYdp-58" value="Gurobi Optimization Server for asset schedules" style="whiteSpace=wrap;html=1;aspect=fixed;fontSize=28;" vertex="1" parent="1">
          <mxGeometry x="-580" y="1440" width="300" height="300" as="geometry" />
        </mxCell>
        <mxCell id="N_zuauuihdi1zP-7BYdp-57" value="" style="shape=image;verticalLabelPosition=bottom;labelBackgroundColor=default;verticalAlign=top;aspect=fixed;imageAspect=0;image=http://www.gor-ev.de/wp-content/uploads/2016/07/Gurobi_Logo_klein.png;" vertex="1" parent="1">
          <mxGeometry x="-559.2" y="1470" width="178.39" height="47" as="geometry" />
        </mxCell>
        <mxCell id="N_zuauuihdi1zP-7BYdp-61" value="" style="edgeStyle=orthogonalEdgeStyle;rounded=0;orthogonalLoop=1;jettySize=auto;html=1;fontSize=16;" edge="1" parent="1" source="N_zuauuihdi1zP-7BYdp-59" target="N_zuauuihdi1zP-7BYdp-24">
          <mxGeometry relative="1" as="geometry" />
        </mxCell>
        <mxCell id="N_zuauuihdi1zP-7BYdp-59" value="&lt;div&gt;Forecasting Microservice&lt;/div&gt;&lt;div&gt;&lt;br&gt;&lt;/div&gt;&lt;div&gt;&lt;font style=&quot;font-size: 16px;&quot;&gt;For forecasting wholesale electricity prices used in optimization&lt;/font&gt;&lt;br&gt;&lt;/div&gt;" style="whiteSpace=wrap;html=1;aspect=fixed;fontSize=28;" vertex="1" parent="1">
          <mxGeometry x="-170" y="1430" width="296.5" height="296.5" as="geometry" />
        </mxCell>
        <mxCell id="N_zuauuihdi1zP-7BYdp-60" value="" style="shape=image;verticalLabelPosition=bottom;labelBackgroundColor=default;verticalAlign=top;aspect=fixed;imageAspect=0;image=https://logos-download.com/wp-content/uploads/2016/10/Python_logo_icon.png;" vertex="1" parent="1">
          <mxGeometry x="-150" y="1450" width="50.19" height="50" as="geometry" />
        </mxCell>
        <mxCell id="N_zuauuihdi1zP-7BYdp-62" value="" style="edgeStyle=orthogonalEdgeStyle;rounded=0;orthogonalLoop=1;jettySize=auto;html=1;fontSize=16;" edge="1" parent="1" source="N_zuauuihdi1zP-7BYdp-24" target="N_zuauuihdi1zP-7BYdp-55">
          <mxGeometry relative="1" as="geometry" />
        </mxCell>
        <mxCell id="N_zuauuihdi1zP-7BYdp-66" value="" style="edgeStyle=orthogonalEdgeStyle;rounded=0;orthogonalLoop=1;jettySize=auto;html=1;fontSize=16;" edge="1" parent="1" source="N_zuauuihdi1zP-7BYdp-30" target="N_zuauuihdi1zP-7BYdp-55">
          <mxGeometry relative="1" as="geometry" />
        </mxCell>
        <mxCell id="N_zuauuihdi1zP-7BYdp-68" value="" style="shape=image;verticalLabelPosition=bottom;labelBackgroundColor=default;verticalAlign=top;aspect=fixed;imageAspect=0;image=https://i.stack.imgur.com/4PBel.png;" vertex="1" parent="1">
          <mxGeometry x="-150" y="509" width="111.62" height="41" as="geometry" />
        </mxCell>
        <mxCell id="N_zuauuihdi1zP-7BYdp-77" style="edgeStyle=orthogonalEdgeStyle;rounded=0;orthogonalLoop=1;jettySize=auto;html=1;fontSize=16;" edge="1" parent="1" source="N_zuauuihdi1zP-7BYdp-76">
          <mxGeometry relative="1" as="geometry">
            <mxPoint x="1190" y="1060" as="targetPoint" />
          </mxGeometry>
        </mxCell>
        <mxCell id="N_zuauuihdi1zP-7BYdp-86" style="edgeStyle=orthogonalEdgeStyle;rounded=0;orthogonalLoop=1;jettySize=auto;html=1;fontSize=29;" edge="1" parent="1" source="N_zuauuihdi1zP-7BYdp-76" target="N_zuauuihdi1zP-7BYdp-58">
          <mxGeometry relative="1" as="geometry" />
        </mxCell>
        <mxCell id="N_zuauuihdi1zP-7BYdp-76" value="&lt;div style=&quot;font-size: 26px;&quot;&gt;&lt;br&gt;&lt;/div&gt;&lt;div style=&quot;font-size: 26px;&quot;&gt;&lt;br&gt;&lt;/div&gt;&lt;div style=&quot;font-size: 26px;&quot;&gt;Energy Storage Project Valuation Tool&lt;/div&gt;&lt;div&gt;&lt;br&gt;&lt;/div&gt;&lt;div&gt;For modeling 20-year energy storage projects IFOM in ERCOT, CAISO, AEMO, NYISO, ISO-NE, etc&lt;/div&gt;&lt;div&gt;&lt;br&gt;&lt;/div&gt;&lt;div&gt;Simple, lightweight webapp with streamlit, docker, heroku, Snowflake, and Looker for post-processing and glossy summary results&lt;br&gt;&lt;/div&gt;" style="shape=cube;whiteSpace=wrap;html=1;boundedLbl=1;backgroundOutline=1;darkOpacity=0.05;darkOpacity2=0.1;fontSize=16;" vertex="1" parent="1">
          <mxGeometry x="1030" y="1270" width="755" height="410" as="geometry" />
        </mxCell>
        <mxCell id="N_zuauuihdi1zP-7BYdp-78" value="" style="shape=image;verticalLabelPosition=bottom;labelBackgroundColor=default;verticalAlign=top;aspect=fixed;imageAspect=0;image=https://assets.website-files.com/5dc3b47ddc6c0c2a1af74ad0/5e18182db827fa0659541754_RGB_Logo_Vertical_Color_Light_Bg.png;" vertex="1" parent="1">
          <mxGeometry x="1102.63" y="1290" width="217.37" height="130" as="geometry" />
        </mxCell>
        <mxCell id="N_zuauuihdi1zP-7BYdp-79" value="Internal User" style="shape=actor;whiteSpace=wrap;html=1;fontSize=16;" vertex="1" parent="1">
          <mxGeometry x="1130" y="1726.5" width="150" height="145" as="geometry" />
        </mxCell>
        <mxCell id="N_zuauuihdi1zP-7BYdp-80" value="Internal User" style="shape=actor;whiteSpace=wrap;html=1;fontSize=16;" vertex="1" parent="1">
          <mxGeometry x="1330" y="1726.5" width="150" height="145" as="geometry" />
        </mxCell>
        <mxCell id="N_zuauuihdi1zP-7BYdp-81" value="Internal User" style="shape=actor;whiteSpace=wrap;html=1;fontSize=16;" vertex="1" parent="1">
          <mxGeometry x="1530" y="1726.5" width="150" height="145" as="geometry" />
        </mxCell>
        <mxCell id="N_zuauuihdi1zP-7BYdp-83" value="" style="group" vertex="1" connectable="0" parent="1">
          <mxGeometry x="1460" y="100" width="650" height="210" as="geometry" />
        </mxCell>
        <mxCell id="N_zuauuihdi1zP-7BYdp-2" value="&lt;br&gt;&lt;div&gt;&lt;br&gt;&lt;/div&gt;&lt;div&gt;&lt;font style=&quot;font-size: 26px;&quot;&gt;&lt;br&gt;&lt;/font&gt;&lt;/div&gt;&lt;div&gt;&lt;font style=&quot;font-size: 26px;&quot;&gt;Internal and Customer &lt;/font&gt;&lt;font style=&quot;font-size: 26px;&quot;&gt;Reports&lt;/font&gt;&lt;/div&gt;&lt;div&gt;&lt;br&gt;&lt;/div&gt;&lt;div style=&quot;font-size: 16px;&quot;&gt;&lt;font style=&quot;font-size: 16px;&quot;&gt;Combination of Contractual Monthly Asset Performance Reporting &lt;br&gt;&lt;/font&gt;&lt;/div&gt;&lt;div style=&quot;font-size: 16px;&quot;&gt;&lt;font style=&quot;font-size: 16px;&quot;&gt;and Ad-hoc reporting on market and asset dynamics&lt;/font&gt;&lt;br&gt;&lt;/div&gt;" style="strokeWidth=2;html=1;shape=mxgraph.flowchart.multi-document;whiteSpace=wrap;" vertex="1" parent="N_zuauuihdi1zP-7BYdp-83">
          <mxGeometry width="650" height="210" as="geometry" />
        </mxCell>
        <mxCell id="N_zuauuihdi1zP-7BYdp-46" value="" style="shape=image;verticalLabelPosition=bottom;labelBackgroundColor=default;verticalAlign=top;aspect=fixed;imageAspect=0;image=https://newenergyevents.com/cref/wp-content/uploads/sites/6/2018/09/Fluence_logo_with_copyline_WEB-copy.png;" vertex="1" parent="N_zuauuihdi1zP-7BYdp-83">
          <mxGeometry x="20" y="40" width="190.42" height="52" as="geometry" />
        </mxCell>
        <mxCell id="N_zuauuihdi1zP-7BYdp-82" value="Internal User" style="shape=actor;whiteSpace=wrap;html=1;fontSize=16;" vertex="1" parent="1">
          <mxGeometry x="1119" y="250" width="150" height="145" as="geometry" />
        </mxCell>
        <mxCell id="N_zuauuihdi1zP-7BYdp-84" value="&lt;div&gt;Market Operator&lt;/div&gt;&lt;div&gt;&lt;br&gt;&lt;/div&gt;&lt;div&gt;Send Bids to market, stuff happens&lt;br&gt;&lt;/div&gt;" style="shape=manualInput;whiteSpace=wrap;html=1;fontSize=26;" vertex="1" parent="1">
          <mxGeometry x="-750" y="-250" width="291.77" height="335" as="geometry" />
        </mxCell>
        <mxCell id="N_zuauuihdi1zP-7BYdp-87" value="" style="endArrow=none;dashed=1;html=1;dashPattern=1 3;strokeWidth=2;rounded=0;fontSize=29;" edge="1" parent="1">
          <mxGeometry width="50" height="50" relative="1" as="geometry">
            <mxPoint x="360" y="1700" as="sourcePoint" />
            <mxPoint x="350" y="180" as="targetPoint" />
          </mxGeometry>
        </mxCell>
      </root>
    </mxGraphModel>
  </diagram>
</mxfile>
